{"glyphs":{"0":{"ha":799,"x_min":83,"x_max":715,"o":"m 363 1031 l 384 1031 q 397 1013 397 1017 q 400 1005 397 1009 q 373 985 399 987 q 359 996 366 990 q 351 1012 353 1001 q 362 1023 361 1021 q 363 1031 363 1025 m 509 1001 q 516 991 514 997 q 521 979 518 986 q 508 965 509 966 q 503 962 507 964 q 484 964 492 958 q 473 972 476 970 q 474 982 476 978 q 473 990 472 986 q 490 1002 481 1001 q 509 1001 499 1002 m 267 941 q 264 930 267 935 q 259 921 262 925 q 241 913 244 914 q 233 914 237 911 q 218 926 218 922 q 216 932 218 929 q 233 952 225 948 q 247 952 240 956 q 258 947 252 949 q 267 941 264 945 m 606 876 q 597 871 602 873 q 587 865 591 868 q 564 871 567 867 q 559 878 562 875 l 562 892 q 567 903 564 902 q 570 909 570 905 q 581 908 576 909 q 593 906 585 907 q 606 876 602 897 m 157 787 q 149 786 153 787 q 141 783 144 785 q 129 788 132 788 q 125 789 126 788 q 119 803 121 796 q 122 815 117 810 q 144 826 136 830 q 160 819 153 822 q 165 810 163 812 q 165 802 168 808 q 159 791 163 792 q 157 787 156 789 m 686 739 q 671 730 681 735 q 652 727 662 726 q 646 732 648 728 q 640 736 644 735 q 654 772 640 764 q 661 772 656 773 q 670 773 666 770 q 682 761 677 768 q 686 739 688 754 m 122 636 q 95 646 103 642 q 92 661 92 661 q 110 680 104 677 q 126 681 115 684 q 141 669 138 674 q 136 647 140 651 q 125 637 125 639 q 122 636 125 636 m 709 600 q 707 585 709 590 q 697 576 705 581 q 690 572 693 574 q 680 572 686 571 q 667 581 671 579 q 662 586 663 582 q 662 599 659 593 q 667 612 665 605 q 681 614 674 612 q 693 614 688 617 q 706 603 704 604 q 709 600 708 602 m 102 461 q 91 470 95 468 q 83 476 87 472 q 83 486 84 481 q 85 496 83 490 q 107 507 102 509 q 119 506 113 506 q 126 498 125 499 q 129 494 127 496 q 123 471 133 479 q 102 461 113 464 m 703 468 q 712 450 712 453 q 715 445 712 448 q 704 429 704 441 q 694 428 697 430 q 686 423 690 426 q 673 437 675 437 q 667 438 670 437 q 665 460 662 452 q 676 468 669 464 q 688 472 684 472 q 695 469 692 472 q 703 468 699 467 m 148 297 q 140 285 141 288 q 140 279 140 282 q 126 273 133 277 q 111 273 119 270 q 101 284 104 275 q 100 304 98 293 q 123 312 118 311 q 134 311 127 313 q 144 298 141 298 q 148 297 146 298 m 694 315 q 696 305 694 308 q 700 300 697 302 q 697 292 700 294 q 694 283 694 289 q 680 277 686 281 q 662 273 673 274 q 652 294 655 288 q 652 307 650 300 q 666 320 663 320 q 671 320 669 320 q 685 321 678 326 q 694 315 692 317 m 604 130 q 604 148 606 138 q 612 159 609 153 q 621 165 614 164 q 635 164 632 165 q 640 161 637 163 q 651 149 650 153 q 652 141 652 145 q 625 121 643 121 q 612 126 617 125 q 604 130 608 127 m 205 137 q 213 122 213 125 q 210 109 214 115 q 201 99 206 103 q 181 100 189 96 q 167 107 174 103 q 165 117 168 114 q 165 126 163 119 q 174 133 168 130 q 182 140 179 136 q 193 139 187 138 q 205 137 198 140 m 513 56 q 524 54 522 56 q 528 52 525 53 q 543 45 541 45 q 544 45 544 46 q 548 23 547 28 q 541 18 544 22 q 534 12 538 15 q 526 12 530 11 q 515 11 521 14 q 503 22 511 14 q 501 34 502 28 q 499 45 500 39 q 506 47 506 42 q 513 52 506 52 l 513 56 m 301 19 q 298 -7 305 -3 q 283 -14 292 -11 l 269 -9 q 259 3 260 3 q 266 20 263 15 q 301 19 290 27 m 429 1 q 410 -23 429 -16 q 399 -20 404 -20 q 388 -16 393 -19 q 385 -4 388 -8 q 385 7 382 0 q 395 14 391 9 q 403 20 399 18 q 410 17 407 19 q 419 15 414 15 q 422 6 419 8 q 429 1 426 4 z "},"1":{"ha":429,"x_min":42,"x_max":304,"o":"m 301 994 q 298 987 298 991 q 301 979 298 982 q 296 972 301 974 q 288 967 290 970 q 271 965 282 963 q 258 974 260 967 q 256 983 256 977 q 256 991 255 989 q 275 1006 270 1004 q 290 1006 281 1009 q 296 999 294 1001 q 301 994 298 997 m 194 913 q 176 903 180 907 q 167 905 170 903 q 156 906 164 906 l 152 922 q 157 938 152 936 q 164 945 161 940 q 180 945 175 948 q 192 937 190 941 q 197 930 194 933 q 195 921 195 925 q 194 913 194 917 m 57 880 q 73 881 73 882 q 76 879 73 880 q 84 878 80 878 q 91 876 88 878 q 94 865 95 867 q 94 860 94 863 q 79 849 84 854 q 61 842 69 840 q 49 846 53 844 q 45 854 46 849 q 42 864 45 859 q 52 879 46 868 l 57 880 m 255 810 q 255 821 256 817 q 256 831 254 825 q 272 842 270 838 q 277 848 274 845 q 287 845 283 846 q 294 841 290 844 q 299 831 297 836 q 302 825 301 827 q 295 807 301 811 q 282 802 289 803 q 268 804 274 800 q 255 810 262 807 m 294 682 q 299 668 300 678 q 301 651 298 658 q 288 642 289 642 q 267 642 282 639 q 256 658 262 650 q 264 677 262 674 q 269 682 267 680 q 281 684 275 685 q 294 682 288 682 m 296 519 q 304 503 297 513 q 301 494 304 498 q 300 483 298 490 q 288 479 293 481 q 277 476 283 477 q 254 503 252 491 q 265 516 264 515 q 271 519 266 517 q 290 520 286 522 q 296 519 293 518 m 258 323 q 254 337 255 331 q 256 353 254 343 q 273 358 263 357 q 293 357 283 359 q 296 351 293 353 q 302 345 300 349 q 302 338 304 342 q 304 330 301 334 q 290 319 297 324 q 275 315 282 315 q 262 321 264 321 q 258 323 259 321 m 301 193 q 304 182 304 187 q 298 175 304 178 q 296 159 296 160 q 262 160 275 160 q 255 172 256 172 q 254 175 254 172 q 263 194 254 186 q 281 196 273 194 q 294 191 289 198 l 301 193 m 289 35 q 302 15 297 26 q 297 2 300 8 q 288 -7 294 -4 q 255 4 271 -15 q 257 20 254 15 q 266 33 260 26 q 277 34 273 31 q 289 35 281 37 z "},"2":{"ha":705,"x_min":58,"x_max":650,"o":"m 461 1020 q 470 998 472 1002 q 465 987 468 994 q 444 985 454 983 q 438 989 441 986 q 429 991 435 991 q 429 1006 429 1001 q 435 1019 429 1012 q 448 1022 441 1023 q 461 1020 456 1021 m 294 981 q 294 990 294 986 q 294 997 293 994 q 305 1009 302 1009 q 326 1005 323 1009 q 336 998 330 1001 q 335 979 338 989 q 328 977 330 979 q 321 972 326 974 q 303 977 308 977 q 294 981 298 977 m 197 917 q 182 921 190 920 q 168 928 174 922 q 168 937 170 935 q 167 944 165 939 q 172 952 168 947 q 180 959 176 958 q 189 960 183 959 q 198 959 195 960 q 205 949 205 949 q 209 944 206 949 q 208 929 212 935 q 197 917 205 924 m 530 905 q 529 924 528 921 q 552 935 534 937 q 568 928 560 935 q 574 914 575 922 q 566 901 566 902 q 566 899 567 901 q 541 901 544 894 q 530 905 538 907 m 107 850 q 107 837 106 844 q 106 827 109 830 q 88 821 92 821 q 81 822 84 822 q 75 828 79 825 q 68 831 72 831 q 68 842 69 838 q 64 849 66 845 q 76 858 75 857 q 77 860 77 859 q 88 861 81 861 q 98 860 95 861 l 107 850 m 624 792 q 627 784 624 787 q 632 776 631 781 q 626 762 627 766 q 623 757 625 758 q 610 753 610 754 q 606 753 609 753 q 598 754 601 751 q 590 757 595 757 q 584 771 583 769 q 583 776 585 773 q 588 790 587 788 q 590 792 589 792 q 611 795 604 798 q 624 792 618 793 m 614 624 q 614 614 613 617 q 613 604 616 610 q 600 595 606 595 q 583 593 590 590 q 568 604 575 597 q 568 618 567 613 q 571 629 570 624 q 584 636 578 632 q 600 636 590 640 q 610 627 606 628 q 614 624 613 627 m 530 446 q 517 447 524 446 q 506 450 511 448 q 497 468 498 463 q 498 475 496 473 q 505 486 505 483 q 510 487 505 488 q 528 488 525 487 q 533 487 530 488 q 545 475 543 477 q 545 467 547 473 q 537 452 538 453 l 530 446 m 442 331 q 429 330 433 332 q 419 331 425 328 q 413 336 415 332 q 408 342 411 339 q 407 353 406 349 q 408 365 408 357 q 424 370 415 368 q 442 369 433 373 q 448 361 444 368 q 454 353 453 355 q 450 342 454 346 q 442 331 446 338 m 334 259 q 340 248 338 254 q 345 236 342 243 q 336 221 342 227 q 316 220 330 216 q 301 231 301 227 q 298 242 300 239 q 300 250 297 245 q 317 258 317 258 q 334 259 331 258 m 231 140 q 231 126 232 126 q 228 123 229 126 q 198 113 221 109 q 187 120 190 119 q 186 125 184 121 q 197 151 190 140 q 208 150 202 148 q 216 152 213 152 q 224 146 221 151 q 231 140 228 142 m 75 33 q 85 33 79 35 q 98 33 92 31 q 103 26 100 27 q 109 22 106 24 q 102 -3 107 5 q 88 -7 92 -7 q 81 -8 84 -8 q 73 -4 79 -8 q 64 1 68 0 q 75 33 58 20 m 350 34 q 359 33 354 33 q 368 31 363 33 q 385 15 374 18 q 376 0 380 3 q 365 0 372 -3 q 350 -5 351 -5 q 350 0 349 -4 q 340 7 342 4 q 338 12 338 9 q 345 28 342 24 q 350 34 349 31 m 201 8 q 205 20 201 15 q 212 31 209 26 q 220 33 217 31 q 229 34 224 34 q 240 24 235 28 q 245 12 245 19 q 233 -3 235 0 q 228 -8 231 -7 q 208 1 210 -4 q 201 8 206 5 m 644 26 q 650 7 650 18 q 639 -4 640 -4 q 636 -5 637 -4 q 627 -6 629 -8 q 621 -7 624 -4 q 606 4 610 4 q 616 31 605 26 q 637 33 628 35 l 644 26 m 518 31 q 519 21 517 24 q 521 14 521 18 q 509 -3 514 -1 q 502 -8 505 -5 q 487 -2 494 -4 q 477 7 480 0 q 487 31 472 24 q 518 31 502 37 z "},"3":{"ha":730,"x_min":69,"x_max":681,"o":"m 353 1015 q 358 1007 357 1012 q 363 1001 359 1002 q 361 991 362 997 q 358 983 361 986 q 332 979 340 975 q 319 999 317 993 q 324 1015 321 1005 q 332 1017 330 1016 q 339 1017 335 1017 l 353 1015 m 460 972 q 460 985 460 979 q 463 996 460 991 q 484 998 480 1000 q 495 998 488 997 q 503 987 500 993 q 503 970 506 981 q 494 966 500 966 q 487 959 488 966 q 472 964 476 959 q 460 972 468 970 m 224 977 q 224 966 221 970 q 229 959 228 963 q 225 949 228 952 q 218 944 222 947 q 197 945 201 940 q 186 954 193 951 q 189 964 191 958 q 184 975 187 971 q 206 981 195 981 q 216 979 212 981 q 224 977 220 977 m 594 884 q 579 892 582 890 q 572 895 576 894 q 570 906 572 902 q 570 914 568 910 q 581 926 571 921 q 602 926 591 930 q 613 913 608 920 q 614 898 618 906 q 606 890 613 892 q 594 884 600 887 m 121 890 q 118 881 121 886 q 113 871 115 876 q 100 861 103 861 q 94 861 96 861 q 85 863 92 861 q 77 867 79 865 q 69 884 69 880 q 71 890 69 888 q 80 901 80 901 q 83 903 80 902 q 121 890 104 902 m 647 800 q 650 791 648 795 q 652 783 652 787 q 650 774 652 777 q 648 766 648 770 q 627 762 640 764 q 606 766 614 761 q 605 787 604 784 q 609 795 606 791 q 623 804 620 804 q 628 806 627 803 q 636 801 632 803 q 647 800 640 799 m 614 669 q 616 656 614 661 q 616 644 617 651 q 594 637 609 636 q 572 646 579 637 q 574 656 572 650 q 572 665 576 662 q 578 670 574 670 q 583 675 583 670 q 595 677 591 677 q 600 673 600 677 q 608 671 605 673 q 614 669 610 669 m 510 564 q 490 567 498 563 q 476 574 483 571 q 478 586 476 581 q 480 598 480 591 q 493 604 487 600 q 507 604 499 608 q 516 597 511 601 q 522 591 521 594 q 518 572 526 583 l 510 564 m 373 536 q 384 544 381 543 q 387 552 387 545 q 400 555 395 553 q 412 553 406 557 q 423 539 422 540 q 425 536 425 538 q 399 511 429 514 q 390 517 393 514 q 381 522 387 519 q 376 534 378 536 q 373 536 373 533 m 293 548 q 298 533 297 536 q 300 529 300 530 q 289 515 298 522 q 269 511 279 507 q 262 519 266 515 q 255 528 258 524 q 266 551 251 548 q 293 548 281 555 m 543 500 q 553 477 553 488 q 544 469 551 471 q 533 463 537 468 q 524 465 529 465 q 515 468 519 465 q 509 486 509 480 q 511 496 509 491 q 525 502 515 503 q 543 500 534 500 m 617 423 q 633 417 625 420 q 642 403 640 414 q 636 389 642 397 q 625 378 631 380 q 613 380 613 378 q 610 381 613 381 q 601 385 604 384 q 595 391 598 385 q 593 399 594 393 q 595 411 593 404 q 609 420 606 420 q 613 420 612 420 l 617 423 m 662 245 q 652 248 655 245 q 644 252 648 250 q 637 258 639 255 q 632 267 636 260 q 637 280 637 278 q 639 283 637 282 q 652 289 651 292 q 655 286 654 286 q 675 279 670 286 q 681 264 681 271 q 669 251 671 254 q 662 245 666 248 m 593 149 q 604 152 601 151 q 610 153 606 153 q 621 153 616 155 q 631 149 625 151 q 635 130 637 133 q 635 122 633 127 q 620 110 623 111 q 604 112 612 107 q 590 119 597 117 q 589 135 590 134 q 589 138 587 136 l 593 149 m 99 81 q 90 87 92 88 q 85 88 88 85 q 77 107 75 104 q 79 117 79 110 q 85 121 81 119 q 91 127 90 123 q 107 127 100 126 q 121 122 114 127 q 124 103 127 110 q 118 91 121 96 q 104 85 106 88 q 99 81 102 83 m 210 22 q 201 32 203 31 q 198 34 199 33 q 199 50 201 41 q 217 58 210 57 q 235 58 224 60 q 240 50 237 54 q 245 42 243 46 q 239 23 243 27 q 226 22 227 23 q 224 20 225 20 l 210 22 m 537 11 q 524 4 530 8 q 507 3 518 0 q 500 9 503 5 q 494 16 498 14 q 503 43 491 37 l 519 47 q 534 37 533 42 q 538 27 536 33 q 536 19 538 22 q 537 11 534 16 m 339 -11 q 345 14 339 3 q 366 19 362 18 q 377 16 370 20 q 382 -16 387 -5 q 371 -22 376 -19 q 359 -24 366 -24 q 339 -11 349 -23 z "},"4":{"ha":738,"x_min":23,"x_max":731,"o":"m 586 993 q 576 987 579 990 q 567 981 572 983 q 534 996 538 979 q 535 1004 533 1000 q 534 1016 537 1009 q 556 1024 545 1024 q 574 1021 567 1024 q 581 1009 578 1016 q 586 993 585 1002 m 433 914 q 445 916 439 913 q 454 917 450 918 q 463 913 460 917 q 469 906 467 909 q 472 898 472 905 q 472 888 472 891 q 459 877 467 882 q 438 873 452 872 q 425 889 433 878 q 430 905 418 901 l 433 914 m 593 871 q 593 859 593 864 q 593 846 594 854 q 579 839 586 842 q 564 836 572 836 q 546 848 549 842 q 545 861 543 854 q 557 874 555 875 q 557 876 559 873 q 567 877 563 875 q 574 878 571 879 q 583 875 581 878 q 593 871 586 872 m 361 731 q 345 725 347 722 q 335 727 342 728 q 330 733 334 731 q 326 739 327 735 q 326 752 323 746 q 331 764 328 758 q 340 765 335 762 q 349 768 345 768 q 365 762 363 764 q 370 758 369 760 q 373 749 370 755 q 361 731 378 738 m 585 694 q 574 694 579 697 q 566 692 568 692 q 555 699 559 693 q 547 711 552 705 q 548 726 552 718 q 555 732 553 728 q 559 738 556 735 q 573 739 566 739 q 586 736 581 739 q 592 729 591 734 q 597 722 593 724 q 591 703 594 705 l 585 694 m 240 627 q 254 629 247 627 q 269 628 262 631 q 282 610 274 610 q 279 595 279 595 q 256 583 260 585 q 245 586 252 582 q 237 596 236 594 q 235 597 237 598 q 237 610 235 604 q 240 627 239 617 m 582 553 q 570 555 575 556 q 560 555 566 553 q 547 567 547 566 q 548 571 548 568 q 549 583 551 581 q 548 587 547 585 q 562 593 556 590 q 575 595 568 597 q 589 586 589 590 q 593 580 591 583 q 594 570 595 576 q 589 561 593 564 q 582 553 585 557 m 589 449 q 594 436 591 442 q 594 422 597 430 q 564 410 582 410 q 547 423 553 415 q 546 433 547 429 q 547 439 545 437 q 553 449 548 446 q 562 456 559 452 q 576 454 571 457 q 589 449 582 452 m 77 294 q 61 279 68 282 q 47 277 54 275 q 30 288 37 278 q 34 308 23 298 q 42 321 39 320 q 47 323 45 323 q 65 317 61 317 q 73 312 69 316 q 74 302 72 305 q 77 294 76 300 m 296 312 q 306 319 301 315 q 316 321 311 323 q 328 315 324 321 q 339 307 332 309 q 336 290 338 292 q 332 285 335 288 q 319 277 326 278 q 308 277 312 277 q 299 283 304 278 q 293 292 294 288 q 294 307 296 305 q 296 312 293 309 m 471 304 q 468 292 469 297 q 465 282 467 288 q 440 279 454 277 q 420 289 426 281 q 421 301 422 301 q 420 304 420 301 q 424 311 422 308 q 429 320 426 313 q 455 318 444 323 q 471 304 467 313 m 587 307 q 589 283 593 288 q 583 274 585 279 q 564 272 566 270 q 556 274 562 274 q 549 280 553 278 q 541 286 544 282 q 541 301 545 294 q 551 307 545 304 q 560 313 556 311 q 587 307 572 312 m 731 305 q 728 297 730 301 q 730 288 727 293 l 716 279 q 684 283 697 274 q 682 304 681 298 q 701 321 692 319 q 720 317 709 324 q 726 311 723 315 q 731 305 728 308 m 199 320 q 210 308 210 307 q 203 285 214 293 q 182 278 193 277 q 176 282 178 279 q 167 286 174 285 q 166 296 167 292 q 165 307 165 300 q 171 312 168 309 q 176 317 174 315 q 189 316 183 317 q 199 320 195 315 m 594 163 q 594 150 593 155 q 594 137 595 145 q 581 130 589 132 q 564 127 572 129 q 557 134 560 130 q 548 140 553 137 q 547 151 548 148 q 552 161 547 155 q 574 171 568 171 q 585 168 581 171 q 594 163 590 165 m 543 8 q 555 26 552 22 q 567 31 559 31 q 576 29 571 31 q 583 26 582 27 q 591 15 590 22 q 593 -1 591 8 q 575 -14 576 -14 q 552 -5 564 -15 q 546 -1 547 -3 q 543 8 545 1 m 178 480 q 182 462 180 469 q 174 448 183 454 q 148 443 153 441 q 137 448 142 445 q 132 459 134 454 q 132 471 130 464 q 138 479 133 476 q 144 487 142 481 q 163 487 153 488 q 178 480 172 486 z "},"5":{"ha":692,"x_min":62,"x_max":631,"o":"m 427 998 q 431 983 427 990 q 433 968 435 975 q 415 959 418 962 q 407 958 412 956 q 393 968 395 966 q 391 971 392 970 q 389 979 388 974 q 389 989 389 983 q 396 994 392 991 q 403 1000 400 996 q 416 998 408 998 q 427 998 423 997 m 289 997 q 297 983 297 985 q 300 981 297 981 q 297 973 298 977 q 294 966 296 970 q 282 960 289 963 q 264 959 275 956 q 257 964 260 962 q 250 970 254 967 q 266 995 256 990 q 289 997 275 1000 m 567 963 q 554 961 560 962 q 541 958 548 960 q 535 962 537 959 q 526 963 533 966 q 527 986 524 981 q 534 998 530 991 q 545 998 541 1000 q 556 1000 549 997 q 568 985 566 990 q 571 974 571 978 q 567 963 571 970 m 159 991 q 159 979 157 979 q 161 975 160 978 q 144 962 149 967 q 132 956 140 958 q 119 969 123 960 q 118 987 115 978 q 124 995 121 993 q 130 1000 127 997 q 145 996 137 997 q 159 991 153 996 m 156 825 q 138 823 142 825 q 129 823 134 821 q 117 840 119 836 q 115 852 115 845 q 124 863 121 863 q 125 867 127 864 q 148 864 145 868 q 156 860 151 860 q 160 851 156 853 q 163 841 164 849 q 158 833 163 836 q 156 825 153 830 m 114 570 q 115 581 114 576 q 115 591 117 585 q 127 600 122 593 q 140 601 133 608 q 149 602 145 604 q 155 602 152 600 q 163 587 161 589 q 164 579 165 585 q 153 567 163 572 q 135 560 138 559 q 127 562 132 562 q 114 570 122 570 m 442 545 q 418 544 425 541 q 412 549 415 545 q 404 551 410 552 q 404 562 401 556 q 404 574 406 567 q 414 579 408 576 q 423 587 419 582 q 430 584 425 583 q 438 582 435 585 q 448 572 446 574 q 449 568 449 571 q 448 557 450 562 q 442 545 445 552 m 301 595 q 305 579 301 585 q 300 570 302 574 q 296 563 298 567 q 274 563 286 562 q 259 571 270 568 q 262 578 262 574 q 259 586 262 583 q 265 591 264 587 q 269 598 266 595 q 301 595 285 602 m 563 503 q 566 492 564 498 q 570 484 567 487 q 563 471 568 479 q 549 467 549 468 q 544 465 549 465 q 528 472 529 469 q 526 489 524 483 q 525 502 528 495 q 544 508 532 509 q 563 503 556 507 m 624 363 q 628 353 625 357 q 629 339 631 349 q 614 328 621 328 q 606 329 612 327 q 597 328 601 331 q 586 336 591 332 q 578 346 581 339 q 592 361 589 358 q 600 368 595 365 q 613 365 609 366 q 624 363 617 363 m 621 218 q 622 209 620 212 q 620 198 624 206 q 614 191 617 195 q 609 184 612 187 q 597 185 602 184 q 587 184 593 186 q 581 191 583 187 q 574 198 578 195 q 575 208 574 205 q 574 214 576 212 q 580 220 578 217 q 585 227 582 224 q 596 228 591 229 q 609 227 601 227 l 621 218 m 76 130 q 99 127 90 127 q 106 120 106 121 q 110 115 107 119 q 112 104 113 110 q 113 94 111 99 q 90 81 95 84 q 62 113 65 85 q 70 120 65 117 q 76 130 75 123 m 537 99 q 537 91 534 94 q 541 83 540 88 q 528 68 530 72 q 524 64 526 65 q 511 63 515 61 q 499 68 506 65 q 492 78 492 73 q 490 85 491 83 q 496 94 495 88 q 499 102 496 99 q 511 106 506 104 q 524 106 517 109 q 530 103 526 106 q 537 99 534 100 m 220 72 q 241 66 229 65 q 250 47 250 52 q 239 29 245 34 q 229 24 233 24 q 216 28 224 24 q 206 37 209 33 q 205 43 206 35 q 203 52 203 50 q 208 58 205 57 q 216 64 210 60 l 220 72 m 397 35 q 399 26 399 28 q 401 19 399 24 q 389 1 393 11 q 354 22 355 -1 q 359 39 358 35 q 378 44 366 47 q 397 35 391 41 m 117 731 q 131 732 125 734 q 144 735 137 731 q 154 725 156 726 q 152 722 152 724 q 161 711 160 715 q 159 704 161 707 q 148 696 156 700 q 137 692 140 692 q 125 696 130 692 q 115 705 121 700 q 117 719 117 712 q 117 731 118 726 z "},"6":{"ha":818,"x_min":83,"x_max":735,"o":"m 534 1025 q 540 1013 538 1023 q 540 1000 541 1004 q 532 989 536 990 q 528 985 529 987 l 509 985 q 495 991 509 991 q 492 1005 494 998 q 494 1020 491 1012 q 519 1025 513 1025 q 534 1025 525 1025 m 400 979 q 389 987 391 986 q 385 989 387 987 q 384 1011 381 1006 q 387 1021 387 1016 q 405 1025 395 1024 q 422 1020 415 1027 q 427 1003 426 1008 q 426 991 427 998 q 415 986 418 986 q 410 985 412 986 l 400 979 m 659 972 q 670 956 669 962 q 671 943 673 951 q 662 932 669 936 q 655 928 661 930 q 647 926 650 926 q 629 936 631 933 q 623 949 624 948 q 621 951 621 949 q 626 958 623 955 q 632 963 629 960 q 648 973 640 975 q 659 972 656 971 m 250 947 q 261 948 254 951 q 273 948 269 945 q 279 941 275 944 q 286 932 283 937 q 245 909 282 903 q 236 923 237 922 q 236 929 235 924 q 250 947 236 943 m 205 826 q 206 814 208 819 q 208 802 205 808 q 191 791 201 796 q 174 789 182 787 q 166 796 168 792 q 160 803 164 800 q 161 812 161 808 q 161 819 160 817 q 175 833 164 827 q 188 832 180 836 q 205 826 195 829 m 153 662 q 154 651 155 655 q 152 642 153 647 q 137 633 140 633 q 133 629 134 632 q 123 632 127 631 q 114 635 119 633 q 109 644 111 640 q 103 651 106 647 q 111 663 109 661 q 117 670 114 666 q 141 671 136 674 q 153 662 146 667 m 397 609 q 402 597 401 604 q 406 583 403 590 q 391 571 401 578 q 373 570 378 567 q 362 570 368 572 q 354 587 359 576 q 359 595 361 590 q 359 606 357 601 q 382 611 374 613 q 397 609 389 609 m 534 589 q 543 588 538 586 q 552 589 547 590 q 574 570 567 587 q 571 557 568 557 q 571 553 574 556 q 559 549 563 553 q 548 545 555 545 q 528 560 537 545 q 526 569 526 563 q 528 581 526 575 l 534 589 m 250 514 q 239 512 244 513 q 229 507 233 511 q 216 509 222 507 q 208 515 210 511 q 205 532 202 528 q 208 544 208 537 q 220 550 213 547 q 233 547 228 553 q 244 543 240 544 q 251 540 248 543 q 253 527 254 533 q 250 514 252 521 m 95 458 q 89 470 92 465 q 83 481 85 475 q 92 496 91 494 q 96 502 92 499 q 107 501 102 500 q 117 500 113 502 q 130 479 129 484 q 129 469 132 475 q 122 463 127 467 q 114 457 117 458 q 100 458 103 458 q 95 458 98 457 m 643 488 q 651 493 648 490 q 658 499 654 496 q 665 496 662 499 q 675 494 667 494 q 685 475 681 484 q 684 467 685 471 q 681 458 682 464 q 669 452 674 454 q 656 452 665 449 q 643 464 647 453 q 643 488 639 475 m 716 353 q 726 342 727 343 q 727 338 726 340 q 734 328 732 332 q 735 323 735 324 q 718 310 722 313 q 712 307 715 307 q 697 314 703 308 q 685 327 692 320 q 688 335 685 331 q 688 342 690 339 q 705 349 700 349 l 716 353 m 136 298 q 118 312 122 308 q 119 325 118 319 q 119 334 119 331 q 130 343 129 343 q 133 346 132 343 q 139 345 136 345 q 148 343 142 345 q 161 334 157 339 q 165 327 165 330 q 162 311 164 313 q 159 305 160 309 q 147 303 152 307 q 136 298 142 300 m 727 160 q 715 149 722 153 q 696 146 708 144 q 683 160 685 159 q 680 165 681 161 q 682 173 680 168 q 684 180 684 178 q 705 187 700 190 q 713 187 709 184 q 721 181 716 184 q 727 174 726 178 l 727 160 m 209 164 q 212 155 206 157 q 220 148 217 152 q 214 141 217 144 q 209 132 210 138 q 202 127 205 130 q 195 123 199 125 q 164 134 175 122 q 169 150 167 141 q 176 164 171 159 q 185 166 182 164 q 191 168 189 168 q 197 165 194 168 q 209 164 201 163 m 605 49 q 601 37 604 42 q 595 24 598 31 q 576 24 585 24 q 560 31 567 24 q 559 41 560 37 q 559 52 559 45 q 572 62 566 57 q 587 64 579 66 q 601 52 600 53 q 605 49 602 52 m 324 38 q 327 29 326 33 q 326 20 328 26 q 315 9 317 9 q 308 7 313 9 q 302 4 305 5 q 293 4 300 3 q 283 14 285 12 q 278 19 281 16 q 281 37 281 31 q 308 45 301 50 q 324 38 315 41 m 463 7 q 458 -19 465 -11 q 449 -28 450 -26 q 445 -31 448 -31 q 426 -27 439 -33 q 418 -7 419 -11 q 418 0 416 -4 q 431 12 429 11 q 445 14 434 12 q 456 11 453 14 q 463 7 460 8 z "},"7":{"ha":700,"x_min":42,"x_max":662,"o":"m 506 1004 q 511 996 509 998 q 515 989 513 993 q 516 977 515 979 q 514 971 517 974 q 496 962 509 964 q 477 963 484 960 q 470 972 471 970 q 465 975 469 975 q 468 985 468 979 q 471 994 468 990 q 477 1000 473 998 q 486 1005 481 1002 q 500 1002 499 1001 q 506 1004 502 1004 m 340 960 q 335 966 338 963 q 328 971 332 968 q 326 991 328 978 q 340 1005 336 1000 q 360 1000 357 1004 q 369 996 363 997 q 372 974 373 981 q 361 963 370 967 q 351 961 357 960 q 340 960 346 962 m 616 1001 l 632 1006 q 652 992 642 1001 q 654 970 662 983 q 642 960 644 960 q 633 960 636 959 q 625 960 629 960 q 614 970 621 966 q 610 986 608 975 q 614 996 613 994 q 616 1001 616 997 m 190 993 q 205 1003 201 1001 q 216 1004 209 1005 q 233 983 233 993 q 221 965 233 971 q 194 963 209 959 q 185 975 189 971 q 183 986 182 979 l 190 993 m 83 998 q 91 979 91 982 q 85 970 91 975 q 61 962 71 962 q 47 966 52 963 q 43 985 42 979 q 46 993 45 990 q 56 1002 56 1000 q 58 1004 56 1004 q 71 1003 65 1005 q 83 998 76 1001 m 582 863 q 581 853 581 857 q 582 845 582 849 q 578 838 581 842 q 575 831 575 834 q 564 829 570 831 q 551 830 559 827 q 541 840 540 838 q 540 844 541 841 q 538 854 536 850 q 538 861 540 857 q 549 869 545 869 q 553 872 553 868 q 562 871 559 873 q 568 872 564 869 q 574 867 572 869 q 582 863 576 864 m 467 694 q 454 711 467 705 q 458 726 460 723 q 458 731 457 728 q 477 737 471 739 q 488 738 483 735 q 494 730 490 732 q 502 726 499 728 q 503 718 502 720 q 503 709 503 715 q 497 703 500 707 q 488 697 494 700 q 480 694 486 696 q 467 694 475 693 m 418 602 q 426 597 419 594 q 439 593 433 600 q 443 582 439 586 q 446 572 446 578 q 439 563 441 566 q 433 557 437 560 q 411 553 411 552 q 399 563 399 562 q 399 566 400 564 q 411 593 396 589 l 418 602 m 358 467 q 376 465 369 468 q 387 458 382 461 q 387 451 385 454 q 389 444 389 448 q 384 431 388 437 q 374 422 380 426 q 361 423 368 423 q 350 423 355 423 q 342 431 343 431 q 343 438 342 431 q 340 449 339 448 q 342 456 340 450 q 356 464 353 464 q 358 467 359 464 m 347 323 q 354 305 350 309 q 347 297 351 300 q 340 288 343 294 q 325 285 332 285 q 308 288 317 285 q 304 302 305 294 q 311 312 302 309 q 317 327 313 324 q 328 330 321 330 q 337 326 334 330 q 347 323 340 323 m 336 152 q 323 141 323 142 q 290 148 305 138 q 288 164 286 161 q 291 170 288 167 q 294 179 294 174 q 314 184 311 186 q 323 184 317 182 q 329 180 326 182 q 335 172 332 178 q 335 163 336 168 q 336 152 334 157 m 283 14 q 293 43 283 28 q 314 42 304 46 q 331 34 324 38 q 332 15 335 20 l 321 1 q 304 -1 311 -1 q 288 9 289 7 q 283 14 286 11 z "},"8":{"ha":765,"x_min":69,"x_max":696,"o":"m 331 1006 q 332 986 332 1000 q 317 977 326 982 q 297 975 308 972 q 287 986 289 985 q 285 990 285 987 q 286 1001 283 997 q 290 1012 289 1005 q 300 1015 294 1015 q 308 1020 305 1016 q 320 1013 315 1017 q 331 1006 326 1009 m 444 1017 q 450 1004 446 1010 q 450 989 453 998 q 435 979 444 985 q 418 977 426 974 q 407 987 408 979 q 403 1002 406 994 q 410 1012 407 1006 q 418 1020 414 1017 q 430 1019 425 1020 q 444 1017 435 1017 m 537 979 q 554 977 549 979 q 566 975 559 974 q 571 955 570 959 q 570 944 572 951 q 557 940 556 941 q 556 937 557 939 q 541 939 541 937 q 537 941 540 940 q 526 958 524 955 q 526 967 528 962 q 537 979 533 970 m 198 917 q 210 904 208 905 q 213 901 212 903 l 209 882 q 198 877 199 879 q 194 875 197 875 q 180 876 186 876 q 170 878 175 875 q 168 890 168 884 q 167 903 167 895 q 176 915 175 914 q 179 916 178 916 q 186 917 182 917 q 198 917 191 917 m 648 842 q 646 834 648 837 q 646 826 644 831 q 636 820 639 825 q 629 811 633 815 q 614 813 618 810 q 602 819 609 817 q 599 832 601 826 q 601 848 597 838 q 611 855 604 853 q 625 856 618 857 q 639 852 637 852 q 642 850 640 852 l 648 842 m 138 718 q 137 733 136 728 q 136 742 138 738 q 143 750 138 747 q 151 757 148 753 q 170 755 168 758 q 179 751 172 751 q 184 736 183 739 q 183 730 186 734 q 169 715 171 716 q 160 713 167 715 q 147 716 152 715 q 138 718 142 718 m 612 701 q 613 719 612 718 q 630 728 623 728 q 644 731 637 728 q 653 720 650 723 q 659 713 656 718 q 658 701 659 707 q 650 689 656 694 q 639 686 643 689 q 627 686 635 684 q 616 695 617 692 q 612 701 614 699 m 589 591 l 574 590 q 556 598 557 598 q 552 606 553 601 q 548 613 551 610 q 553 631 551 620 q 562 633 557 631 q 570 635 566 635 q 586 630 583 629 q 591 628 589 631 q 597 618 594 624 q 594 606 600 613 q 589 601 591 604 q 589 591 587 598 m 237 605 q 244 585 245 594 q 241 576 244 579 q 239 570 239 574 q 230 567 233 570 q 221 564 227 564 q 212 566 216 564 q 205 571 209 568 q 201 579 203 576 q 201 586 199 582 q 205 593 201 590 q 206 602 209 597 q 237 605 222 610 m 452 545 q 435 536 437 536 q 427 535 431 534 q 420 534 423 536 q 413 541 416 537 q 407 547 410 544 q 407 562 407 557 q 410 574 407 567 q 420 578 416 575 q 430 579 423 582 q 448 570 446 574 q 453 566 450 567 q 451 556 452 562 q 452 545 450 551 m 334 547 q 340 538 336 541 q 342 528 343 534 q 328 511 332 514 q 315 510 323 509 q 306 513 309 510 q 298 518 302 515 q 300 536 296 530 q 308 551 304 543 q 321 550 317 553 q 334 547 326 547 m 582 503 q 589 488 593 488 q 587 477 590 480 q 578 471 583 473 q 562 469 566 469 q 553 469 557 468 q 548 477 552 475 q 541 484 544 479 q 553 510 541 506 q 570 509 566 509 l 582 503 m 198 480 q 205 472 202 476 q 209 463 209 468 q 205 454 209 457 q 201 446 201 452 q 188 445 194 446 q 179 449 182 444 q 165 460 168 460 q 164 465 163 461 q 169 475 167 471 q 174 484 171 479 q 186 481 180 483 q 198 480 191 480 m 688 385 q 683 376 685 381 q 678 368 681 370 q 661 363 663 365 q 655 362 659 362 q 648 366 650 363 q 643 374 646 369 q 650 404 636 397 q 680 400 665 410 q 683 393 682 397 q 688 385 684 388 m 118 357 q 127 347 129 353 q 125 331 125 340 q 116 326 119 328 q 107 321 113 324 q 92 326 100 324 q 83 338 83 328 q 79 348 79 346 q 83 353 80 350 q 100 362 98 361 q 110 365 103 363 l 118 357 m 690 264 q 693 256 692 259 q 696 248 694 252 l 690 233 q 671 228 674 225 q 662 228 667 231 q 650 245 651 240 q 650 258 648 251 q 668 269 656 266 q 690 264 680 271 m 109 233 q 115 226 111 231 q 119 216 118 221 q 107 196 111 201 q 96 190 103 191 q 90 192 94 190 q 80 193 87 194 q 75 202 79 198 q 69 209 72 206 q 73 222 72 217 q 77 235 73 228 q 93 234 85 236 q 109 233 100 232 m 629 134 q 633 126 629 127 q 637 119 636 125 q 633 104 640 107 q 618 94 625 100 q 602 103 609 94 q 594 104 595 102 q 589 110 593 107 q 593 129 593 115 q 608 134 597 134 q 629 134 618 134 m 151 103 q 157 88 153 96 q 156 73 160 80 q 141 68 144 69 q 136 65 138 68 q 125 68 129 66 q 117 72 121 69 q 115 80 117 77 q 114 88 114 83 q 117 96 114 92 q 119 103 119 99 q 134 106 127 107 q 151 103 140 104 m 262 22 q 253 12 259 15 q 243 3 247 8 q 225 9 229 5 q 218 39 218 27 q 239 46 235 47 q 248 45 243 45 q 258 27 258 30 q 262 22 259 24 m 372 26 q 385 26 382 24 q 393 27 388 27 q 399 16 397 23 q 404 1 401 9 q 381 -14 395 -14 q 372 -12 376 -14 q 363 -11 369 -9 q 359 -3 361 -8 q 355 4 358 1 q 362 17 361 18 q 363 18 363 16 l 372 26 m 495 1 q 500 13 496 8 q 505 24 503 18 q 515 28 510 26 q 525 27 519 30 q 539 17 537 19 q 541 12 541 15 q 539 5 541 8 q 537 -4 537 1 q 517 -11 528 -11 q 505 -6 511 -8 q 495 1 498 -4 z "},"9":{"ha":815,"x_min":83,"x_max":732,"o":"m 274 -27 q 269 -15 270 -24 q 269 -1 267 -5 q 276 9 273 8 q 281 14 279 9 q 290 14 285 14 q 300 12 294 14 q 313 5 300 5 q 316 -8 315 -1 q 315 -22 317 -15 q 289 -26 296 -27 q 274 -27 282 -26 m 408 16 q 420 9 418 9 q 423 7 422 8 q 425 -15 427 -11 q 420 -24 422 -19 q 404 -29 414 -28 q 387 -23 393 -30 q 382 -7 382 -12 q 382 4 381 -3 q 393 10 391 11 q 399 11 396 9 l 408 16 m 149 27 q 141 39 141 37 q 138 45 141 41 q 138 56 136 49 q 148 66 141 64 q 155 71 149 68 q 163 73 160 73 q 177 66 176 68 q 180 64 178 65 l 187 49 q 182 42 186 45 q 176 37 179 39 q 160 26 168 23 q 149 27 152 30 m 560 46 q 547 45 555 43 q 536 45 540 47 q 530 54 533 50 q 524 62 526 57 q 563 85 528 92 q 573 71 572 71 q 574 64 574 71 q 560 46 571 52 m 606 168 q 605 180 604 175 q 604 191 606 184 q 620 202 610 197 q 637 205 629 208 q 645 197 643 202 q 651 190 647 193 q 650 180 650 184 q 650 174 651 176 q 636 160 646 165 q 623 161 629 157 q 606 168 616 165 m 659 330 q 659 341 658 336 q 661 351 659 346 q 675 359 673 358 q 680 362 678 359 q 690 359 686 361 q 699 357 694 358 q 704 348 701 351 q 709 340 707 345 q 696 324 704 332 q 671 322 677 317 q 659 330 666 327 m 416 388 q 411 399 412 392 q 408 412 410 406 q 425 425 414 419 q 441 426 435 429 q 452 425 446 423 q 460 407 457 414 q 455 399 453 406 q 454 389 457 393 q 432 386 439 384 q 416 388 425 388 m 279 408 q 271 409 275 411 q 263 408 267 407 q 248 415 252 410 q 240 429 243 420 q 243 442 245 441 q 243 446 240 444 q 255 449 251 445 q 267 453 259 453 q 279 449 274 453 q 286 439 283 445 q 288 429 288 437 q 286 416 289 422 l 279 408 m 566 480 q 576 481 571 480 q 585 486 582 481 q 609 477 601 486 q 610 461 613 465 q 606 450 606 457 q 594 444 601 448 q 582 448 587 441 q 570 450 574 450 q 564 453 567 450 q 566 480 559 467 m 722 533 q 727 522 724 526 q 732 510 730 517 q 725 496 726 499 q 719 490 724 492 q 707 491 712 491 q 699 494 703 491 q 685 512 686 507 q 686 524 684 517 q 693 530 688 525 q 701 534 699 534 q 715 534 712 533 q 722 533 719 534 m 172 510 q 164 507 167 510 q 157 502 161 505 q 151 505 153 502 q 140 506 148 507 q 130 525 134 515 q 132 532 130 529 q 134 541 134 536 q 147 547 141 544 q 160 548 153 551 q 172 535 168 545 q 172 510 176 525 m 100 647 q 92 659 91 658 q 91 662 92 661 q 83 678 83 673 q 89 686 85 685 q 92 690 92 686 q 120 686 114 692 q 132 674 126 681 q 130 665 133 670 q 130 658 127 661 q 113 651 117 651 l 100 647 m 681 694 q 694 688 685 688 q 699 667 699 674 q 697 658 699 661 q 684 647 688 651 q 665 651 666 650 q 656 659 659 652 q 651 667 652 665 q 655 682 652 680 q 659 686 658 684 q 671 690 667 686 q 681 694 674 693 m 94 841 q 106 852 99 848 q 123 854 113 856 q 137 840 134 842 q 140 833 140 837 q 138 826 140 830 q 136 818 136 822 q 115 812 119 810 q 106 812 110 815 q 99 819 103 815 q 94 826 95 822 q 94 833 92 830 q 94 841 96 837 m 612 829 q 609 839 614 836 q 601 846 604 842 q 608 852 604 849 q 612 861 612 854 q 655 857 648 869 q 650 842 652 850 q 643 829 648 834 q 634 827 637 829 q 628 825 631 825 q 622 828 625 826 q 612 829 618 830 m 216 949 q 227 972 221 967 q 245 975 236 974 q 262 968 254 975 q 263 958 262 963 q 263 945 264 954 q 249 937 255 941 q 233 935 243 932 q 220 946 221 945 q 216 949 218 947 m 498 958 q 495 966 496 963 q 496 974 494 968 q 507 985 506 985 q 513 987 509 985 q 519 990 515 989 q 528 990 522 991 q 538 980 536 982 q 543 975 540 978 q 541 959 540 962 q 534 954 536 958 q 530 947 533 949 q 513 949 519 944 q 498 958 506 955 m 358 989 q 363 1017 358 1006 q 373 1025 370 1023 q 378 1028 376 1027 q 387 1027 382 1028 q 396 1024 391 1025 q 404 1004 403 1008 q 403 996 406 1000 q 390 985 392 985 q 378 983 388 985 q 366 985 369 982 q 358 989 362 989 z "},"Ð":{"ha":1080,"x_min":-99,"x_max":997,"o":"m 454 990 q 448 974 450 981 q 435 966 446 967 q 422 972 423 971 q 418 977 420 972 q 415 990 415 986 q 416 997 415 994 q 446 1002 441 1008 q 454 990 452 997 m 330 990 q 332 983 332 987 q 332 975 331 978 q 325 968 327 972 q 317 960 323 963 q 305 959 307 960 q 301 959 304 958 q 290 969 296 960 q 288 987 283 978 q 296 995 289 990 q 311 998 304 1000 q 321 995 316 998 q 330 990 327 991 m 583 993 q 585 983 582 986 q 586 972 589 981 q 570 959 568 959 q 551 966 553 962 q 545 977 547 970 q 544 985 544 983 q 557 997 555 996 q 574 996 570 998 q 583 993 578 994 m 175 952 q 162 957 167 954 q 152 964 157 960 q 146 970 149 967 q 146 979 144 972 q 165 993 157 993 q 176 991 172 993 q 185 983 182 990 q 186 967 189 975 q 176 956 178 956 q 175 952 175 955 m 689 978 q 710 966 705 972 q 712 947 715 960 q 696 938 705 940 q 678 943 686 936 q 674 967 670 955 q 682 972 681 968 q 689 978 684 977 m 838 911 q 837 895 837 907 q 820 884 823 887 q 812 880 817 880 q 805 882 808 880 q 796 887 802 884 q 799 914 793 903 q 818 922 804 925 q 828 918 825 922 q 838 911 831 914 m 191 849 q 190 839 191 842 q 190 829 189 836 q 178 823 183 827 q 165 819 172 818 q 152 831 159 821 q 152 852 145 841 q 159 855 155 853 q 167 859 163 857 q 191 849 182 863 m 932 802 q 921 791 925 791 q 903 783 913 779 q 888 795 894 788 q 901 819 897 812 q 914 825 905 825 q 926 814 920 819 q 932 802 932 808 m 183 709 q 183 702 182 707 q 182 694 184 697 q 160 681 163 681 q 145 687 152 681 q 136 700 138 693 l 144 716 q 154 721 149 718 q 164 724 159 724 q 179 713 176 713 q 183 709 182 712 m 964 669 q 947 666 949 665 q 944 667 945 667 l 929 671 q 928 692 925 688 q 932 701 930 696 q 940 707 937 704 q 949 709 943 709 q 958 702 952 704 q 966 696 963 700 q 966 678 966 682 q 964 669 966 674 m 195 586 q 193 568 197 571 q 187 559 189 566 q 170 555 174 556 q 164 555 167 553 q 154 570 155 563 q 155 583 153 576 q 167 597 157 593 q 175 597 174 598 q 182 593 176 595 q 195 586 191 586 m 966 571 q 981 572 975 574 q 994 567 987 570 q 993 554 997 559 q 991 538 989 549 q 960 541 971 521 q 960 562 956 555 q 966 571 963 568 m 142 450 q 152 454 148 453 q 163 458 156 456 q 170 454 168 457 q 179 449 172 450 q 180 441 176 445 q 180 431 183 438 q 172 418 174 420 q 168 415 170 416 q 157 414 163 412 q 144 418 151 415 q 139 433 138 423 q 142 450 140 444 m 994 418 q 982 401 991 410 q 966 400 968 397 q 954 410 958 408 q 949 414 951 411 q 951 423 952 418 q 952 431 951 429 l 977 441 q 982 434 979 438 q 990 429 985 430 l 994 418 m 929 293 q 930 308 930 297 q 950 319 944 321 q 958 323 956 317 q 964 317 960 320 q 971 312 967 315 q 966 284 978 296 q 941 279 955 273 q 936 288 940 286 q 929 293 932 290 m 155 296 q 182 304 172 308 q 192 293 191 297 q 195 286 193 289 q 172 263 191 270 q 162 269 167 267 q 155 275 157 270 q 155 284 153 279 q 155 296 156 289 m 906 193 q 916 183 911 187 q 922 174 920 179 q 915 157 916 159 q 909 152 914 155 q 901 149 906 149 q 890 151 897 148 q 876 167 882 157 q 880 176 879 172 q 882 187 882 180 q 893 190 890 186 q 906 193 897 194 m 191 168 q 192 155 191 161 q 183 149 193 148 q 156 137 168 133 q 152 147 153 141 q 148 159 151 153 q 157 174 151 165 q 178 175 170 176 q 191 168 186 174 m 810 81 q 808 68 810 75 q 803 56 806 62 q 793 54 796 57 q 787 52 791 52 q 777 55 781 54 q 770 58 773 56 l 766 73 q 781 94 776 91 q 796 94 785 98 q 804 88 802 92 q 810 81 807 84 m 663 27 q 654 8 659 22 q 635 5 642 4 q 625 7 629 7 q 619 24 618 20 q 620 37 620 28 q 637 46 627 45 q 655 41 648 47 q 663 27 658 30 m 127 27 q 137 37 136 38 q 140 38 138 37 q 150 42 146 42 q 155 42 153 42 q 172 28 170 33 q 172 20 174 24 q 169 10 172 14 q 164 1 165 7 q 155 -1 157 1 q 144 -3 152 -4 q 136 7 138 5 q 132 11 133 8 q 130 19 129 15 q 127 27 130 23 m 350 23 q 345 11 349 15 q 340 -1 342 7 q 332 -3 335 0 q 326 -5 330 -5 q 308 4 315 -5 q 304 16 305 15 q 305 23 302 18 q 313 32 308 30 q 321 41 317 34 q 342 33 339 37 q 350 23 346 28 m 473 39 q 478 30 476 35 q 483 20 480 24 q 479 13 483 15 q 477 4 476 11 q 463 -2 465 0 q 457 -4 461 -4 q 449 1 450 -3 q 445 11 448 4 q 441 17 442 14 q 444 26 441 20 q 454 37 453 35 q 457 39 456 39 q 465 39 460 41 q 473 39 469 38 m 88 522 q 90 515 91 519 q 90 507 90 511 q 82 499 84 505 q 76 491 80 494 q 64 490 65 491 q 60 490 62 488 q 48 501 54 491 q 46 519 42 511 q 55 527 47 522 q 69 532 62 532 q 79 528 75 530 q 88 522 84 525 m -68 486 q -91 496 -80 487 q -96 502 -94 499 q -96 511 -99 505 q -77 525 -84 525 q -65 524 -69 525 q -56 515 -60 522 q -56 499 -53 507 q -65 487 -64 487 q -68 486 -66 487 m 411 522 q 404 507 406 514 q 392 498 403 500 q 378 504 380 503 q 373 509 377 505 q 370 523 370 519 q 372 529 370 526 l 384 538 q 402 534 396 540 q 411 522 408 529 m 286 522 q 288 515 289 519 q 288 507 288 511 q 280 499 282 505 q 274 491 278 494 q 262 490 264 491 q 256 490 259 488 q 245 501 251 491 q 243 519 240 511 q 252 527 244 522 q 269 532 260 532 q 278 528 274 530 q 286 522 282 525 z "},"ð":{"ha":1080,"x_min":-99,"x_max":997,"o":"m 454 990 q 448 974 450 981 q 435 966 446 967 q 422 972 423 971 q 418 977 420 972 q 415 990 415 986 q 416 997 415 994 q 446 1002 441 1008 q 454 990 452 997 m 330 990 q 332 983 332 987 q 332 975 331 978 q 325 968 327 972 q 317 960 323 963 q 305 959 307 960 q 301 959 304 958 q 290 969 296 960 q 288 987 283 978 q 296 995 289 990 q 311 998 304 1000 q 321 995 316 998 q 330 990 327 991 m 583 993 q 585 983 582 986 q 586 972 589 981 q 570 959 568 959 q 551 966 553 962 q 545 977 547 970 q 544 985 544 983 q 557 997 555 996 q 574 996 570 998 q 583 993 578 994 m 175 952 q 162 957 167 954 q 152 964 157 960 q 146 970 149 967 q 146 979 144 972 q 165 993 157 993 q 176 991 172 993 q 185 983 182 990 q 186 967 189 975 q 176 956 178 956 q 175 952 175 955 m 689 978 q 710 966 705 972 q 712 947 715 960 q 696 938 705 940 q 678 943 686 936 q 674 967 670 955 q 682 972 681 968 q 689 978 684 977 m 838 911 q 837 895 837 907 q 820 884 823 887 q 812 880 817 880 q 805 882 808 880 q 796 887 802 884 q 799 914 793 903 q 818 922 804 925 q 828 918 825 922 q 838 911 831 914 m 191 849 q 190 839 191 842 q 190 829 189 836 q 178 823 183 827 q 165 819 172 818 q 152 831 159 821 q 152 852 145 841 q 159 855 155 853 q 167 859 163 857 q 191 849 182 863 m 932 802 q 921 791 925 791 q 903 783 913 779 q 888 795 894 788 q 901 819 897 812 q 914 825 905 825 q 926 814 920 819 q 932 802 932 808 m 183 709 q 183 702 182 707 q 182 694 184 697 q 160 681 163 681 q 145 687 152 681 q 136 700 138 693 l 144 716 q 154 721 149 718 q 164 724 159 724 q 179 713 176 713 q 183 709 182 712 m 964 669 q 947 666 949 665 q 944 667 945 667 l 929 671 q 928 692 925 688 q 932 701 930 696 q 940 707 937 704 q 949 709 943 709 q 958 702 952 704 q 966 696 963 700 q 966 678 966 682 q 964 669 966 674 m 195 586 q 193 568 197 571 q 187 559 189 566 q 170 555 174 556 q 164 555 167 553 q 154 570 155 563 q 155 583 153 576 q 167 597 157 593 q 175 597 174 598 q 182 593 176 595 q 195 586 191 586 m 966 571 q 981 572 975 574 q 994 567 987 570 q 993 554 997 559 q 991 538 989 549 q 960 541 971 521 q 960 562 956 555 q 966 571 963 568 m 142 450 q 152 454 148 453 q 163 458 156 456 q 170 454 168 457 q 179 449 172 450 q 180 441 176 445 q 180 431 183 438 q 172 418 174 420 q 168 415 170 416 q 157 414 163 412 q 144 418 151 415 q 139 433 138 423 q 142 450 140 444 m 994 418 q 982 401 991 410 q 966 400 968 397 q 954 410 958 408 q 949 414 951 411 q 951 423 952 418 q 952 431 951 429 l 977 441 q 982 434 979 438 q 990 429 985 430 l 994 418 m 929 293 q 930 308 930 297 q 950 319 944 321 q 958 323 956 317 q 964 317 960 320 q 971 312 967 315 q 966 284 978 296 q 941 279 955 273 q 936 288 940 286 q 929 293 932 290 m 155 296 q 182 304 172 308 q 192 293 191 297 q 195 286 193 289 q 172 263 191 270 q 162 269 167 267 q 155 275 157 270 q 155 284 153 279 q 155 296 156 289 m 906 193 q 916 183 911 187 q 922 174 920 179 q 915 157 916 159 q 909 152 914 155 q 901 149 906 149 q 890 151 897 148 q 876 167 882 157 q 880 176 879 172 q 882 187 882 180 q 893 190 890 186 q 906 193 897 194 m 191 168 q 192 155 191 161 q 183 149 193 148 q 156 137 168 133 q 152 147 153 141 q 148 159 151 153 q 157 174 151 165 q 178 175 170 176 q 191 168 186 174 m 810 81 q 808 68 810 75 q 803 56 806 62 q 793 54 796 57 q 787 52 791 52 q 777 55 781 54 q 770 58 773 56 l 766 73 q 781 94 776 91 q 796 94 785 98 q 804 88 802 92 q 810 81 807 84 m 663 27 q 654 8 659 22 q 635 5 642 4 q 625 7 629 7 q 619 24 618 20 q 620 37 620 28 q 637 46 627 45 q 655 41 648 47 q 663 27 658 30 m 127 27 q 137 37 136 38 q 140 38 138 37 q 150 42 146 42 q 155 42 153 42 q 172 28 170 33 q 172 20 174 24 q 169 10 172 14 q 164 1 165 7 q 155 -1 157 1 q 144 -3 152 -4 q 136 7 138 5 q 132 11 133 8 q 130 19 129 15 q 127 27 130 23 m 350 23 q 345 11 349 15 q 340 -1 342 7 q 332 -3 335 0 q 326 -5 330 -5 q 308 4 315 -5 q 304 16 305 15 q 305 23 302 18 q 313 32 308 30 q 321 41 317 34 q 342 33 339 37 q 350 23 346 28 m 473 39 q 478 30 476 35 q 483 20 480 24 q 479 13 483 15 q 477 4 476 11 q 463 -2 465 0 q 457 -4 461 -4 q 449 1 450 -3 q 445 11 448 4 q 441 17 442 14 q 444 26 441 20 q 454 37 453 35 q 457 39 456 39 q 465 39 460 41 q 473 39 469 38 m 88 522 q 90 515 91 519 q 90 507 90 511 q 82 499 84 505 q 76 491 80 494 q 64 490 65 491 q 60 490 62 488 q 48 501 54 491 q 46 519 42 511 q 55 527 47 522 q 69 532 62 532 q 79 528 75 530 q 88 522 84 525 m -68 486 q -91 496 -80 487 q -96 502 -94 499 q -96 511 -99 505 q -77 525 -84 525 q -65 524 -69 525 q -56 515 -60 522 q -56 499 -53 507 q -65 487 -64 487 q -68 486 -66 487 m 411 522 q 404 507 406 514 q 392 498 403 500 q 378 504 380 503 q 373 509 377 505 q 370 523 370 519 q 372 529 370 526 l 384 538 q 402 534 396 540 q 411 522 408 529 m 286 522 q 288 515 289 519 q 288 507 288 511 q 280 499 282 505 q 274 491 278 494 q 262 490 264 491 q 256 490 259 488 q 245 501 251 491 q 243 519 240 511 q 252 527 244 522 q 269 532 260 532 q 278 528 274 530 q 286 522 282 525 z "},"Ł":{"ha":825,"x_min":-98,"x_max":791,"o":"m 163 1016 q 169 1006 168 1009 q 172 1001 170 1002 q 174 991 174 994 q 172 982 175 987 q 161 971 164 971 q 146 972 152 968 q 134 978 140 975 q 131 996 129 993 q 136 1002 133 998 q 154 1015 149 1016 q 163 1016 159 1015 m 171 845 q 160 834 160 836 q 157 831 160 833 q 141 829 144 827 q 130 842 130 841 q 130 846 129 842 q 134 871 127 864 q 151 876 140 878 q 161 870 157 875 q 168 861 164 865 q 168 852 167 856 q 171 845 170 849 m 178 712 q 159 685 168 693 q 134 688 148 685 q 127 713 129 704 q 134 718 133 713 q 138 726 134 723 q 155 727 146 730 q 167 720 163 726 q 178 712 171 715 m 159 545 q 144 548 151 545 q 133 553 138 551 q 127 575 126 563 q 144 586 136 583 q 160 586 153 589 q 167 574 165 575 q 168 571 168 572 q 165 555 168 559 q 159 545 161 551 m 170 441 q 174 431 172 437 q 175 420 176 426 q 172 413 175 416 q 168 406 168 410 q 144 400 160 403 q 132 437 127 414 q 147 447 144 448 q 152 450 151 446 l 170 441 m 175 292 q 174 281 175 285 q 172 269 174 277 q 155 258 161 258 q 146 259 149 258 q 132 273 133 269 q 127 278 132 277 q 130 289 126 285 q 134 300 133 293 q 156 305 153 302 q 171 295 170 298 q 175 292 172 292 m 174 130 q 160 117 165 119 q 142 116 152 111 q 130 127 133 121 q 132 145 132 142 q 136 148 133 148 q 151 159 148 157 q 159 160 153 160 q 169 147 167 155 q 174 130 171 140 m 305 34 q 313 22 309 27 q 315 5 317 16 q 303 -6 305 -4 q 298 -8 301 -8 q 277 5 285 -11 q 281 31 269 20 q 297 34 294 34 l 305 34 m 442 34 q 446 18 445 23 q 444 1 446 12 q 430 -7 433 -8 q 427 -9 427 -7 q 418 -7 423 -8 q 410 -5 414 -7 q 403 14 403 8 q 403 22 403 19 q 419 33 410 28 q 442 34 429 38 m 555 35 q 565 20 563 22 q 567 15 567 18 q 566 7 568 11 q 564 -3 564 3 q 555 -8 557 -5 q 541 -8 552 -11 q 534 -5 538 -8 q 528 1 529 -1 q 530 22 526 19 q 536 33 534 26 q 545 32 543 31 q 555 35 548 33 m 663 -9 q 636 5 644 -8 q 642 26 639 19 q 652 33 650 34 q 658 34 655 33 q 669 31 665 37 q 678 18 674 24 q 678 4 680 5 q 678 0 677 3 q 671 -4 673 -1 q 663 -9 669 -7 m 791 9 q 786 0 788 1 q 783 -4 784 -1 q 772 -14 774 -14 q 768 -14 769 -14 q 755 -11 758 -11 q 753 -9 753 -11 q 745 4 747 0 q 743 12 743 8 q 754 30 746 22 q 773 29 769 33 q 783 26 777 26 q 786 17 784 20 q 791 9 788 14 m 167 18 q 168 5 167 9 q 168 -9 168 0 q 157 -16 161 -12 q 144 -19 152 -20 q 135 -14 140 -18 q 129 -4 130 -9 q 127 4 127 1 q 130 12 127 7 q 136 20 133 16 q 142 27 140 23 q 167 18 159 23 m 366 667 q 384 657 376 663 q 393 637 392 651 q 385 628 387 632 q 377 621 384 624 q 365 619 372 618 q 355 623 358 620 q 349 644 349 633 q 355 662 351 659 q 366 667 359 665 m 259 631 q 270 625 266 629 q 278 618 274 621 q 286 597 288 602 q 283 586 283 593 q 275 583 278 585 q 270 578 273 581 q 261 579 266 578 q 254 582 256 581 q 239 602 243 586 q 243 620 244 620 q 259 631 258 631 m 20 538 q 28 547 23 543 q 37 555 34 552 q 58 544 52 548 q 65 529 64 540 q 58 515 60 517 q 43 509 50 507 q 26 515 35 511 q 20 538 20 528 m -85 471 q -92 481 -91 476 q -98 488 -94 486 q -90 503 -98 498 q -76 514 -83 509 q -63 505 -68 507 q -56 498 -58 503 q -52 486 -52 491 q -53 475 -53 481 q -69 470 -61 469 q -85 471 -77 471 z "},"ł":{"ha":825,"x_min":-98,"x_max":791,"o":"m 163 1016 q 169 1006 168 1009 q 172 1001 170 1002 q 174 991 174 994 q 172 982 175 987 q 161 971 164 971 q 146 972 152 968 q 134 978 140 975 q 131 996 129 993 q 136 1002 133 998 q 154 1015 149 1016 q 163 1016 159 1015 m 171 845 q 160 834 160 836 q 157 831 160 833 q 141 829 144 827 q 130 842 130 841 q 130 846 129 842 q 134 871 127 864 q 151 876 140 878 q 161 870 157 875 q 168 861 164 865 q 168 852 167 856 q 171 845 170 849 m 178 712 q 159 685 168 693 q 134 688 148 685 q 127 713 129 704 q 134 718 133 713 q 138 726 134 723 q 155 727 146 730 q 167 720 163 726 q 178 712 171 715 m 159 545 q 144 548 151 545 q 133 553 138 551 q 127 575 126 563 q 144 586 136 583 q 160 586 153 589 q 167 574 165 575 q 168 571 168 572 q 165 555 168 559 q 159 545 161 551 m 170 441 q 174 431 172 437 q 175 420 176 426 q 172 413 175 416 q 168 406 168 410 q 144 400 160 403 q 132 437 127 414 q 147 447 144 448 q 152 450 151 446 l 170 441 m 175 292 q 174 281 175 285 q 172 269 174 277 q 155 258 161 258 q 146 259 149 258 q 132 273 133 269 q 127 278 132 277 q 130 289 126 285 q 134 300 133 293 q 156 305 153 302 q 171 295 170 298 q 175 292 172 292 m 174 130 q 160 117 165 119 q 142 116 152 111 q 130 127 133 121 q 132 145 132 142 q 136 148 133 148 q 151 159 148 157 q 159 160 153 160 q 169 147 167 155 q 174 130 171 140 m 305 34 q 313 22 309 27 q 315 5 317 16 q 303 -6 305 -4 q 298 -8 301 -8 q 277 5 285 -11 q 281 31 269 20 q 297 34 294 34 l 305 34 m 442 34 q 446 18 445 23 q 444 1 446 12 q 430 -7 433 -8 q 427 -9 427 -7 q 418 -7 423 -8 q 410 -5 414 -7 q 403 14 403 8 q 403 22 403 19 q 419 33 410 28 q 442 34 429 38 m 555 35 q 565 20 563 22 q 567 15 567 18 q 566 7 568 11 q 564 -3 564 3 q 555 -8 557 -5 q 541 -8 552 -11 q 534 -5 538 -8 q 528 1 529 -1 q 530 22 526 19 q 536 33 534 26 q 545 32 543 31 q 555 35 548 33 m 663 -9 q 636 5 644 -8 q 642 26 639 19 q 652 33 650 34 q 658 34 655 33 q 669 31 665 37 q 678 18 674 24 q 678 4 680 5 q 678 0 677 3 q 671 -4 673 -1 q 663 -9 669 -7 m 791 9 q 786 0 788 1 q 783 -4 784 -1 q 772 -14 774 -14 q 768 -14 769 -14 q 755 -11 758 -11 q 753 -9 753 -11 q 745 4 747 0 q 743 12 743 8 q 754 30 746 22 q 773 29 769 33 q 783 26 777 26 q 786 17 784 20 q 791 9 788 14 m 167 18 q 168 5 167 9 q 168 -9 168 0 q 157 -16 161 -12 q 144 -19 152 -20 q 135 -14 140 -18 q 129 -4 130 -9 q 127 4 127 1 q 130 12 127 7 q 136 20 133 16 q 142 27 140 23 q 167 18 159 23 m 366 667 q 384 657 376 663 q 393 637 392 651 q 385 628 387 632 q 377 621 384 624 q 365 619 372 618 q 355 623 358 620 q 349 644 349 633 q 355 662 351 659 q 366 667 359 665 m 259 631 q 270 625 266 629 q 278 618 274 621 q 286 597 288 602 q 283 586 283 593 q 275 583 278 585 q 270 578 273 581 q 261 579 266 578 q 254 582 256 581 q 239 602 243 586 q 243 620 244 620 q 259 631 258 631 m 20 538 q 28 547 23 543 q 37 555 34 552 q 58 544 52 548 q 65 529 64 540 q 58 515 60 517 q 43 509 50 507 q 26 515 35 511 q 20 538 20 528 m -85 471 q -92 481 -91 476 q -98 488 -94 486 q -90 503 -98 498 q -76 514 -83 509 q -63 505 -68 507 q -56 498 -58 503 q -52 486 -52 491 q -53 475 -53 481 q -69 470 -61 469 q -85 471 -77 471 z "},"Š":{"ha":785,"x_min":71,"x_max":718,"o":"m 401 993 q 391 986 396 989 q 381 978 385 983 q 369 980 374 979 q 357 982 363 981 l 351 1008 q 387 1019 373 1024 q 398 1000 399 1005 q 401 993 397 996 m 228 954 q 225 964 228 960 q 220 972 222 967 q 254 994 235 998 q 265 975 264 982 q 264 966 266 968 q 248 957 251 956 q 243 958 245 958 q 235 955 239 958 q 228 954 232 952 m 484 962 q 481 975 483 972 q 483 982 480 977 q 498 995 495 993 q 506 997 502 997 q 517 993 513 997 q 528 986 521 989 q 517 956 529 968 q 499 956 506 954 q 484 962 492 959 m 133 910 q 142 911 137 910 q 149 910 146 913 q 151 897 152 905 q 152 883 149 890 q 132 877 136 876 q 122 876 127 878 q 109 888 114 882 q 109 906 103 895 q 123 920 119 918 l 133 910 m 602 929 q 623 916 614 921 q 623 903 627 909 q 618 890 620 898 q 602 886 609 887 q 586 890 594 886 q 581 897 583 891 q 578 909 579 903 q 582 918 578 916 q 589 928 586 921 l 602 929 m 705 827 q 703 819 707 821 q 701 811 699 818 q 695 808 699 808 q 686 807 692 808 q 678 804 682 803 q 670 803 674 806 q 656 814 661 814 q 656 834 656 826 q 664 838 659 834 q 671 844 669 842 q 705 827 693 850 m 121 753 q 121 743 119 747 q 119 735 122 739 q 107 726 117 728 q 95 725 102 723 q 84 730 88 727 q 77 750 75 743 q 86 762 83 761 q 92 766 90 762 q 108 762 102 765 q 121 753 114 758 m 153 621 q 163 621 159 620 q 172 623 167 621 q 180 616 176 620 q 189 612 183 613 q 189 593 190 597 q 183 586 187 590 q 172 578 172 581 q 168 578 171 576 q 153 587 155 587 q 151 589 152 587 q 149 610 144 605 q 153 621 153 614 m 338 538 q 330 519 335 528 q 311 517 319 517 q 296 521 304 518 q 292 536 293 526 q 297 555 292 547 q 304 557 300 556 q 313 557 309 559 q 327 551 324 551 q 332 548 330 551 l 338 538 m 445 483 q 444 492 448 488 q 439 500 441 495 q 441 508 439 505 q 444 517 442 511 q 458 523 449 521 q 475 521 468 525 q 480 514 476 517 q 486 505 484 511 q 484 497 486 500 q 483 487 483 494 q 471 480 476 484 q 456 479 465 476 l 445 483 m 613 461 q 621 456 617 457 q 627 452 624 454 q 631 441 629 442 q 633 438 633 439 q 628 422 635 427 q 614 412 621 418 q 597 417 605 415 q 585 426 589 419 q 586 448 585 439 q 593 453 590 450 q 601 458 597 456 l 613 461 m 671 283 q 670 299 673 300 q 667 302 667 298 q 673 316 670 315 q 677 323 677 317 q 687 325 684 326 q 696 327 690 324 q 710 314 703 321 q 715 294 718 307 q 709 289 711 292 q 704 283 708 286 q 685 285 690 281 l 671 283 m 118 104 q 119 93 119 98 q 119 83 119 88 q 104 72 104 72 q 92 69 96 68 q 83 72 88 71 q 73 85 72 81 q 71 92 73 90 q 80 106 80 104 q 85 111 83 109 q 96 114 88 113 q 107 111 103 114 q 118 104 111 107 m 662 164 q 673 158 671 156 q 677 160 674 160 q 687 144 688 145 q 686 141 686 144 q 685 129 688 132 q 682 122 682 126 q 673 121 677 122 q 665 118 670 119 q 658 122 661 118 q 648 123 655 126 q 637 142 644 138 q 642 151 640 148 q 647 160 644 155 q 662 164 656 159 m 216 43 q 230 44 222 47 q 244 42 237 41 q 250 32 248 35 q 255 24 252 28 q 221 3 247 1 q 214 12 216 5 q 208 23 212 19 q 210 32 209 28 q 210 39 210 35 l 216 43 m 551 12 q 541 16 544 14 q 533 20 538 19 q 524 33 526 33 q 522 35 522 33 q 530 51 528 49 q 533 56 532 53 q 545 60 538 57 q 560 60 551 62 q 570 49 566 53 q 574 37 575 45 q 566 20 574 26 q 551 12 559 15 m 368 -18 q 363 -4 365 -9 q 362 11 361 1 q 382 19 378 20 q 391 20 385 18 q 404 10 401 12 q 408 7 407 8 q 406 -12 411 -4 q 393 -22 400 -19 q 382 -21 387 -23 q 368 -18 377 -19 m 397 1179 q 410 1177 404 1176 q 423 1175 416 1177 q 433 1157 434 1162 q 434 1147 431 1152 q 419 1138 427 1142 q 400 1137 411 1134 q 393 1143 395 1139 q 387 1149 392 1146 q 393 1168 391 1162 q 397 1179 395 1173 m 445 1207 q 452 1217 448 1214 q 458 1227 456 1221 l 480 1227 q 490 1219 488 1225 q 495 1211 491 1214 q 494 1200 494 1204 q 491 1190 494 1196 q 467 1181 479 1183 q 457 1185 460 1183 q 450 1191 454 1188 q 445 1207 450 1204 m 515 1234 q 512 1242 513 1238 q 506 1246 511 1245 q 511 1255 511 1249 q 510 1263 511 1260 q 522 1274 518 1274 q 526 1276 525 1274 q 535 1275 530 1274 q 544 1275 540 1276 q 551 1269 548 1272 q 556 1263 553 1265 q 552 1251 555 1255 q 551 1238 549 1248 q 536 1232 545 1232 q 515 1234 526 1232 m 373 1207 q 368 1191 368 1204 q 361 1185 363 1188 q 353 1181 358 1183 q 327 1190 339 1183 q 324 1200 324 1196 q 323 1211 324 1204 q 328 1219 327 1214 q 336 1222 330 1225 l 359 1227 q 366 1217 362 1221 q 373 1207 370 1214 m 302 1234 q 282 1232 292 1232 q 267 1238 273 1232 q 266 1251 269 1248 q 262 1263 263 1255 q 267 1269 264 1265 q 274 1275 270 1272 q 283 1275 278 1276 q 293 1276 289 1274 q 304 1265 304 1270 q 308 1263 304 1261 q 307 1255 307 1260 q 312 1246 307 1249 q 306 1242 307 1245 q 302 1234 305 1238 z "},"š":{"ha":785,"x_min":71,"x_max":718,"o":"m 401 993 q 391 986 396 989 q 381 978 385 983 q 369 980 374 979 q 357 982 363 981 l 351 1008 q 387 1019 373 1024 q 398 1000 399 1005 q 401 993 397 996 m 228 954 q 225 964 228 960 q 220 972 222 967 q 254 994 235 998 q 265 975 264 982 q 264 966 266 968 q 248 957 251 956 q 243 958 245 958 q 235 955 239 958 q 228 954 232 952 m 484 962 q 481 975 483 972 q 483 982 480 977 q 498 995 495 993 q 506 997 502 997 q 517 993 513 997 q 528 986 521 989 q 517 956 529 968 q 499 956 506 954 q 484 962 492 959 m 133 910 q 142 911 137 910 q 149 910 146 913 q 151 897 152 905 q 152 883 149 890 q 132 877 136 876 q 122 876 127 878 q 109 888 114 882 q 109 906 103 895 q 123 920 119 918 l 133 910 m 602 929 q 623 916 614 921 q 623 903 627 909 q 618 890 620 898 q 602 886 609 887 q 586 890 594 886 q 581 897 583 891 q 578 909 579 903 q 582 918 578 916 q 589 928 586 921 l 602 929 m 705 827 q 703 819 707 821 q 701 811 699 818 q 695 808 699 808 q 686 807 692 808 q 678 804 682 803 q 670 803 674 806 q 656 814 661 814 q 656 834 656 826 q 664 838 659 834 q 671 844 669 842 q 705 827 693 850 m 121 753 q 121 743 119 747 q 119 735 122 739 q 107 726 117 728 q 95 725 102 723 q 84 730 88 727 q 77 750 75 743 q 86 762 83 761 q 92 766 90 762 q 108 762 102 765 q 121 753 114 758 m 153 621 q 163 621 159 620 q 172 623 167 621 q 180 616 176 620 q 189 612 183 613 q 189 593 190 597 q 183 586 187 590 q 172 578 172 581 q 168 578 171 576 q 153 587 155 587 q 151 589 152 587 q 149 610 144 605 q 153 621 153 614 m 338 538 q 330 519 335 528 q 311 517 319 517 q 296 521 304 518 q 292 536 293 526 q 297 555 292 547 q 304 557 300 556 q 313 557 309 559 q 327 551 324 551 q 332 548 330 551 l 338 538 m 445 483 q 444 492 448 488 q 439 500 441 495 q 441 508 439 505 q 444 517 442 511 q 458 523 449 521 q 475 521 468 525 q 480 514 476 517 q 486 505 484 511 q 484 497 486 500 q 483 487 483 494 q 471 480 476 484 q 456 479 465 476 l 445 483 m 613 461 q 621 456 617 457 q 627 452 624 454 q 631 441 629 442 q 633 438 633 439 q 628 422 635 427 q 614 412 621 418 q 597 417 605 415 q 585 426 589 419 q 586 448 585 439 q 593 453 590 450 q 601 458 597 456 l 613 461 m 671 283 q 670 299 673 300 q 667 302 667 298 q 673 316 670 315 q 677 323 677 317 q 687 325 684 326 q 696 327 690 324 q 710 314 703 321 q 715 294 718 307 q 709 289 711 292 q 704 283 708 286 q 685 285 690 281 l 671 283 m 118 104 q 119 93 119 98 q 119 83 119 88 q 104 72 104 72 q 92 69 96 68 q 83 72 88 71 q 73 85 72 81 q 71 92 73 90 q 80 106 80 104 q 85 111 83 109 q 96 114 88 113 q 107 111 103 114 q 118 104 111 107 m 662 164 q 673 158 671 156 q 677 160 674 160 q 687 144 688 145 q 686 141 686 144 q 685 129 688 132 q 682 122 682 126 q 673 121 677 122 q 665 118 670 119 q 658 122 661 118 q 648 123 655 126 q 637 142 644 138 q 642 151 640 148 q 647 160 644 155 q 662 164 656 159 m 216 43 q 230 44 222 47 q 244 42 237 41 q 250 32 248 35 q 255 24 252 28 q 221 3 247 1 q 214 12 216 5 q 208 23 212 19 q 210 32 209 28 q 210 39 210 35 l 216 43 m 551 12 q 541 16 544 14 q 533 20 538 19 q 524 33 526 33 q 522 35 522 33 q 530 51 528 49 q 533 56 532 53 q 545 60 538 57 q 560 60 551 62 q 570 49 566 53 q 574 37 575 45 q 566 20 574 26 q 551 12 559 15 m 368 -18 q 363 -4 365 -9 q 362 11 361 1 q 382 19 378 20 q 391 20 385 18 q 404 10 401 12 q 408 7 407 8 q 406 -12 411 -4 q 393 -22 400 -19 q 382 -21 387 -23 q 368 -18 377 -19 m 397 1179 q 410 1177 404 1176 q 423 1175 416 1177 q 433 1157 434 1162 q 434 1147 431 1152 q 419 1138 427 1142 q 400 1137 411 1134 q 393 1143 395 1139 q 387 1149 392 1146 q 393 1168 391 1162 q 397 1179 395 1173 m 445 1207 q 452 1217 448 1214 q 458 1227 456 1221 l 480 1227 q 490 1219 488 1225 q 495 1211 491 1214 q 494 1200 494 1204 q 491 1190 494 1196 q 467 1181 479 1183 q 457 1185 460 1183 q 450 1191 454 1188 q 445 1207 450 1204 m 515 1234 q 512 1242 513 1238 q 506 1246 511 1245 q 511 1255 511 1249 q 510 1263 511 1260 q 522 1274 518 1274 q 526 1276 525 1274 q 535 1275 530 1274 q 544 1275 540 1276 q 551 1269 548 1272 q 556 1263 553 1265 q 552 1251 555 1255 q 551 1238 549 1248 q 536 1232 545 1232 q 515 1234 526 1232 m 373 1207 q 368 1191 368 1204 q 361 1185 363 1188 q 353 1181 358 1183 q 327 1190 339 1183 q 324 1200 324 1196 q 323 1211 324 1204 q 328 1219 327 1214 q 336 1222 330 1225 l 359 1227 q 366 1217 362 1221 q 373 1207 370 1214 m 302 1234 q 282 1232 292 1232 q 267 1238 273 1232 q 266 1251 269 1248 q 262 1263 263 1255 q 267 1269 264 1265 q 274 1275 270 1272 q 283 1275 278 1276 q 293 1276 289 1274 q 304 1265 304 1270 q 308 1263 304 1261 q 307 1255 307 1260 q 312 1246 307 1249 q 306 1242 307 1245 q 302 1234 305 1238 z "},"Ý":{"ha":762,"x_min":14,"x_max":749,"o":"m 64 993 q 65 979 64 985 q 65 964 66 972 q 44 963 54 962 q 22 967 34 964 q 15 986 14 982 q 14 994 16 990 q 29 1005 24 1005 q 37 1008 34 1005 q 52 1000 46 1005 q 64 993 57 996 m 749 989 q 744 978 746 983 q 738 970 742 972 q 730 968 732 970 q 722 968 728 967 q 709 975 711 972 q 705 978 708 977 q 703 990 705 985 q 707 998 700 996 q 722 1008 713 1008 q 732 1008 730 1009 q 739 1003 738 1006 q 745 998 739 1000 l 749 989 m 674 864 q 666 852 671 857 q 655 844 661 848 q 646 848 650 846 q 636 850 642 849 q 627 863 629 861 q 625 869 625 864 q 636 888 629 884 q 656 887 654 890 q 663 886 659 884 q 674 864 670 878 m 151 856 q 132 850 144 850 q 111 852 121 849 q 107 879 103 872 q 118 891 110 888 q 125 891 121 892 q 134 891 130 890 q 146 882 140 887 q 153 868 152 878 l 151 856 m 575 772 q 579 764 578 769 q 585 757 581 760 q 584 749 582 750 q 587 742 586 747 q 581 735 583 739 q 576 727 579 731 q 554 728 566 723 q 537 741 543 732 q 538 749 537 746 q 538 758 538 751 q 575 772 549 769 m 304 644 q 317 621 317 629 q 309 608 309 609 q 299 602 300 602 q 296 601 298 601 q 283 604 289 600 q 271 613 278 608 q 272 623 274 618 q 271 631 270 627 q 283 642 274 640 q 304 644 292 644 m 484 642 q 491 632 487 635 q 499 625 495 629 q 497 615 500 618 q 494 605 494 612 q 484 604 487 606 q 477 601 481 601 q 466 607 471 601 q 453 616 461 613 q 456 633 453 633 q 460 633 458 632 l 484 642 m 400 513 q 406 505 404 510 q 411 498 408 500 q 408 486 408 491 q 406 475 408 481 q 397 474 400 476 q 391 469 395 472 q 380 473 384 471 q 370 479 377 476 q 368 486 370 483 q 365 495 365 490 q 382 513 376 513 q 400 513 389 514 m 414 361 q 408 341 410 343 q 407 332 406 339 q 399 329 403 331 q 392 326 396 327 q 379 327 385 324 q 368 332 373 330 q 362 347 368 343 q 395 372 366 372 q 414 361 404 362 m 227 769 q 224 754 224 765 q 212 736 216 738 q 205 734 209 734 q 191 734 197 731 q 180 741 186 738 q 208 780 179 780 q 227 769 217 770 m 389 203 q 404 193 403 193 q 408 187 406 193 q 410 179 410 184 q 414 170 411 174 q 405 159 410 165 q 392 152 400 153 q 381 154 389 152 q 370 159 373 156 q 364 178 363 172 q 362 187 365 183 q 375 193 374 190 q 378 197 376 195 l 389 203 m 412 23 q 411 15 410 19 q 412 7 412 11 q 403 -7 407 -3 q 395 -9 399 -7 q 388 -12 392 -12 q 376 -9 381 -12 q 368 -4 372 -7 q 366 26 361 11 q 378 33 372 28 q 391 37 384 38 q 407 26 404 33 l 412 23 m 521 1232 q 509 1232 514 1233 q 495 1234 503 1232 q 486 1251 484 1245 q 484 1261 487 1256 q 500 1271 491 1267 q 518 1271 509 1275 q 525 1266 524 1270 q 532 1260 526 1263 q 526 1241 529 1246 q 521 1232 524 1236 m 473 1200 q 467 1192 471 1194 q 460 1183 463 1190 q 450 1182 454 1181 q 441 1181 445 1183 q 429 1190 430 1184 q 423 1196 427 1195 q 425 1208 425 1204 q 427 1221 425 1213 q 441 1225 434 1223 q 454 1229 448 1227 q 461 1223 458 1226 q 468 1217 464 1219 q 473 1200 468 1204 m 403 1175 q 406 1168 406 1172 q 412 1162 407 1165 q 407 1154 407 1160 q 408 1145 407 1147 q 397 1135 400 1135 q 393 1131 395 1134 q 384 1133 389 1134 q 374 1134 378 1131 q 368 1139 370 1135 q 362 1145 365 1142 q 366 1158 363 1154 q 368 1171 369 1161 q 382 1177 373 1177 q 403 1175 392 1177 z "},"ý":{"ha":762,"x_min":14,"x_max":749,"o":"m 64 993 q 65 979 64 985 q 65 964 66 972 q 44 963 54 962 q 22 967 34 964 q 15 986 14 982 q 14 994 16 990 q 29 1005 24 1005 q 37 1008 34 1005 q 52 1000 46 1005 q 64 993 57 996 m 749 989 q 744 978 746 983 q 738 970 742 972 q 730 968 732 970 q 722 968 728 967 q 709 975 711 972 q 705 978 708 977 q 703 990 705 985 q 707 998 700 996 q 722 1008 713 1008 q 732 1008 730 1009 q 739 1003 738 1006 q 745 998 739 1000 l 749 989 m 674 864 q 666 852 671 857 q 655 844 661 848 q 646 848 650 846 q 636 850 642 849 q 627 863 629 861 q 625 869 625 864 q 636 888 629 884 q 656 887 654 890 q 663 886 659 884 q 674 864 670 878 m 151 856 q 132 850 144 850 q 111 852 121 849 q 107 879 103 872 q 118 891 110 888 q 125 891 121 892 q 134 891 130 890 q 146 882 140 887 q 153 868 152 878 l 151 856 m 575 772 q 579 764 578 769 q 585 757 581 760 q 584 749 582 750 q 587 742 586 747 q 581 735 583 739 q 576 727 579 731 q 554 728 566 723 q 537 741 543 732 q 538 749 537 746 q 538 758 538 751 q 575 772 549 769 m 304 644 q 317 621 317 629 q 309 608 309 609 q 299 602 300 602 q 296 601 298 601 q 283 604 289 600 q 271 613 278 608 q 272 623 274 618 q 271 631 270 627 q 283 642 274 640 q 304 644 292 644 m 484 642 q 491 632 487 635 q 499 625 495 629 q 497 615 500 618 q 494 605 494 612 q 484 604 487 606 q 477 601 481 601 q 466 607 471 601 q 453 616 461 613 q 456 633 453 633 q 460 633 458 632 l 484 642 m 400 513 q 406 505 404 510 q 411 498 408 500 q 408 486 408 491 q 406 475 408 481 q 397 474 400 476 q 391 469 395 472 q 380 473 384 471 q 370 479 377 476 q 368 486 370 483 q 365 495 365 490 q 382 513 376 513 q 400 513 389 514 m 414 361 q 408 341 410 343 q 407 332 406 339 q 399 329 403 331 q 392 326 396 327 q 379 327 385 324 q 368 332 373 330 q 362 347 368 343 q 395 372 366 372 q 414 361 404 362 m 227 769 q 224 754 224 765 q 212 736 216 738 q 205 734 209 734 q 191 734 197 731 q 180 741 186 738 q 208 780 179 780 q 227 769 217 770 m 389 203 q 404 193 403 193 q 408 187 406 193 q 410 179 410 184 q 414 170 411 174 q 405 159 410 165 q 392 152 400 153 q 381 154 389 152 q 370 159 373 156 q 364 178 363 172 q 362 187 365 183 q 375 193 374 190 q 378 197 376 195 l 389 203 m 412 23 q 411 15 410 19 q 412 7 412 11 q 403 -7 407 -3 q 395 -9 399 -7 q 388 -12 392 -12 q 376 -9 381 -12 q 368 -4 372 -7 q 366 26 361 11 q 378 33 372 28 q 391 37 384 38 q 407 26 404 33 l 412 23 m 521 1232 q 509 1232 514 1233 q 495 1234 503 1232 q 486 1251 484 1245 q 484 1261 487 1256 q 500 1271 491 1267 q 518 1271 509 1275 q 525 1266 524 1270 q 532 1260 526 1263 q 526 1241 529 1246 q 521 1232 524 1236 m 473 1200 q 467 1192 471 1194 q 460 1183 463 1190 q 450 1182 454 1181 q 441 1181 445 1183 q 429 1190 430 1184 q 423 1196 427 1195 q 425 1208 425 1204 q 427 1221 425 1213 q 441 1225 434 1223 q 454 1229 448 1227 q 461 1223 458 1226 q 468 1217 464 1219 q 473 1200 468 1204 m 403 1175 q 406 1168 406 1172 q 412 1162 407 1165 q 407 1154 407 1160 q 408 1145 407 1147 q 397 1135 400 1135 q 393 1131 395 1134 q 384 1133 389 1134 q 374 1134 378 1131 q 368 1139 370 1135 q 362 1145 365 1142 q 366 1158 363 1154 q 368 1171 369 1161 q 382 1177 373 1177 q 403 1175 392 1177 z "},"Þ":{"ha":811,"x_min":123,"x_max":750,"o":"m 163 968 q 154 966 157 967 q 144 967 151 966 q 126 993 127 983 q 133 999 129 996 q 140 1005 137 1002 q 148 1006 142 1006 q 159 1005 153 1005 q 165 997 161 1001 q 170 986 170 993 q 168 977 171 981 q 163 968 165 972 m 426 799 q 420 785 425 789 q 414 772 416 780 q 397 773 397 769 q 384 789 387 785 q 382 796 381 792 q 389 804 384 802 q 396 811 393 807 q 416 811 407 808 q 423 801 423 803 q 426 799 423 799 m 526 799 q 532 800 528 800 q 541 798 537 799 q 557 783 552 785 q 556 773 555 776 q 552 764 557 770 q 540 755 545 758 q 524 755 534 753 q 518 767 521 765 q 513 773 515 769 q 516 787 511 784 q 522 798 521 791 l 526 799 m 171 845 q 155 829 159 831 q 149 826 152 826 q 140 829 145 829 q 133 833 136 830 q 126 851 126 846 q 127 859 126 856 q 140 867 136 864 q 155 868 145 871 q 168 852 164 856 l 171 845 m 288 780 q 281 774 283 777 q 275 768 278 770 q 267 769 270 769 q 258 772 263 769 q 248 782 250 780 q 244 785 247 784 q 245 794 245 789 q 247 802 244 799 q 260 809 258 810 q 266 810 263 808 q 281 805 278 806 q 288 803 285 804 q 289 791 290 791 q 288 788 288 791 l 288 780 m 667 731 q 667 717 665 720 q 667 707 670 713 q 656 699 658 701 q 654 696 655 697 q 642 695 646 696 q 633 700 639 694 q 626 711 625 707 q 624 718 627 715 q 652 736 633 741 q 659 732 655 735 q 667 731 662 730 m 163 727 q 168 709 168 716 q 161 692 164 696 q 155 686 159 689 q 134 692 145 686 q 125 708 123 697 q 127 715 125 711 q 136 720 129 720 q 151 730 145 732 q 163 727 156 728 m 747 616 q 746 593 750 601 q 736 589 739 594 q 727 585 734 585 q 709 593 713 593 q 705 600 707 595 q 704 612 703 605 q 712 623 711 621 q 715 625 713 625 q 726 628 723 627 q 736 627 730 629 q 745 616 743 617 q 747 616 746 616 m 707 467 q 707 486 704 480 q 716 498 715 496 q 724 499 719 499 q 731 502 728 499 q 743 488 743 494 q 747 471 746 473 q 746 465 747 468 q 738 459 745 463 q 727 456 731 456 q 717 460 720 456 q 707 467 713 464 m 140 548 q 134 559 136 553 q 125 567 132 564 q 133 583 133 578 q 148 589 140 587 q 161 587 156 590 q 172 569 171 575 q 171 560 172 563 q 166 555 170 557 q 160 548 163 553 l 140 548 m 661 372 q 661 361 658 365 q 665 353 665 358 q 656 340 659 342 q 652 336 654 338 q 625 353 628 339 q 628 372 623 361 q 648 379 642 380 q 661 372 654 378 m 153 453 q 163 446 163 448 q 164 442 163 445 q 170 422 171 426 q 168 415 168 419 q 136 411 144 406 q 128 422 130 415 q 126 431 126 429 q 131 441 127 438 q 138 450 134 445 q 153 453 153 450 m 514 279 q 522 283 519 279 q 526 289 524 286 q 538 290 533 290 q 548 285 543 290 q 555 273 553 281 q 557 259 556 266 q 541 248 544 248 q 536 244 538 247 q 520 254 525 251 q 513 263 515 256 q 514 279 517 269 m 425 256 q 418 232 418 240 q 410 229 414 229 q 401 225 406 228 q 382 237 385 236 q 383 245 385 240 q 384 254 381 251 q 395 268 393 266 q 399 271 396 270 q 410 268 404 269 q 419 264 415 267 l 425 256 m 281 225 q 265 229 270 225 q 254 236 260 233 q 252 245 254 241 q 252 255 251 250 q 258 262 254 258 q 266 269 263 266 q 286 270 279 273 q 292 260 290 263 q 294 252 294 256 q 292 240 293 243 q 292 236 292 237 q 281 225 288 232 m 157 311 q 168 298 165 304 q 165 279 168 281 q 161 271 161 277 q 149 271 155 270 q 140 275 142 273 q 127 288 126 285 q 126 293 127 290 q 131 302 129 296 q 137 311 133 308 q 146 312 141 313 q 157 311 151 311 m 160 172 q 166 161 163 165 q 172 151 170 157 q 168 145 171 148 q 165 136 164 142 q 150 132 155 130 q 137 133 145 133 q 131 142 134 137 q 125 152 127 148 q 134 165 136 164 q 136 170 133 167 q 151 172 148 174 q 160 172 155 171 m 171 20 q 170 7 172 12 q 167 -4 168 3 q 152 -8 159 -7 q 138 -5 145 -9 q 131 3 133 -3 q 126 16 129 9 q 131 27 130 24 q 133 30 132 30 q 153 34 141 38 q 165 25 163 27 q 171 20 168 23 z "},"þ":{"ha":811,"x_min":123,"x_max":750,"o":"m 163 968 q 154 966 157 967 q 144 967 151 966 q 126 993 127 983 q 133 999 129 996 q 140 1005 137 1002 q 148 1006 142 1006 q 159 1005 153 1005 q 165 997 161 1001 q 170 986 170 993 q 168 977 171 981 q 163 968 165 972 m 426 799 q 420 785 425 789 q 414 772 416 780 q 397 773 397 769 q 384 789 387 785 q 382 796 381 792 q 389 804 384 802 q 396 811 393 807 q 416 811 407 808 q 423 801 423 803 q 426 799 423 799 m 526 799 q 532 800 528 800 q 541 798 537 799 q 557 783 552 785 q 556 773 555 776 q 552 764 557 770 q 540 755 545 758 q 524 755 534 753 q 518 767 521 765 q 513 773 515 769 q 516 787 511 784 q 522 798 521 791 l 526 799 m 171 845 q 155 829 159 831 q 149 826 152 826 q 140 829 145 829 q 133 833 136 830 q 126 851 126 846 q 127 859 126 856 q 140 867 136 864 q 155 868 145 871 q 168 852 164 856 l 171 845 m 288 780 q 281 774 283 777 q 275 768 278 770 q 267 769 270 769 q 258 772 263 769 q 248 782 250 780 q 244 785 247 784 q 245 794 245 789 q 247 802 244 799 q 260 809 258 810 q 266 810 263 808 q 281 805 278 806 q 288 803 285 804 q 289 791 290 791 q 288 788 288 791 l 288 780 m 667 731 q 667 717 665 720 q 667 707 670 713 q 656 699 658 701 q 654 696 655 697 q 642 695 646 696 q 633 700 639 694 q 626 711 625 707 q 624 718 627 715 q 652 736 633 741 q 659 732 655 735 q 667 731 662 730 m 163 727 q 168 709 168 716 q 161 692 164 696 q 155 686 159 689 q 134 692 145 686 q 125 708 123 697 q 127 715 125 711 q 136 720 129 720 q 151 730 145 732 q 163 727 156 728 m 747 616 q 746 593 750 601 q 736 589 739 594 q 727 585 734 585 q 709 593 713 593 q 705 600 707 595 q 704 612 703 605 q 712 623 711 621 q 715 625 713 625 q 726 628 723 627 q 736 627 730 629 q 745 616 743 617 q 747 616 746 616 m 707 467 q 707 486 704 480 q 716 498 715 496 q 724 499 719 499 q 731 502 728 499 q 743 488 743 494 q 747 471 746 473 q 746 465 747 468 q 738 459 745 463 q 727 456 731 456 q 717 460 720 456 q 707 467 713 464 m 140 548 q 134 559 136 553 q 125 567 132 564 q 133 583 133 578 q 148 589 140 587 q 161 587 156 590 q 172 569 171 575 q 171 560 172 563 q 166 555 170 557 q 160 548 163 553 l 140 548 m 661 372 q 661 361 658 365 q 665 353 665 358 q 656 340 659 342 q 652 336 654 338 q 625 353 628 339 q 628 372 623 361 q 648 379 642 380 q 661 372 654 378 m 153 453 q 163 446 163 448 q 164 442 163 445 q 170 422 171 426 q 168 415 168 419 q 136 411 144 406 q 128 422 130 415 q 126 431 126 429 q 131 441 127 438 q 138 450 134 445 q 153 453 153 450 m 514 279 q 522 283 519 279 q 526 289 524 286 q 538 290 533 290 q 548 285 543 290 q 555 273 553 281 q 557 259 556 266 q 541 248 544 248 q 536 244 538 247 q 520 254 525 251 q 513 263 515 256 q 514 279 517 269 m 425 256 q 418 232 418 240 q 410 229 414 229 q 401 225 406 228 q 382 237 385 236 q 383 245 385 240 q 384 254 381 251 q 395 268 393 266 q 399 271 396 270 q 410 268 404 269 q 419 264 415 267 l 425 256 m 281 225 q 265 229 270 225 q 254 236 260 233 q 252 245 254 241 q 252 255 251 250 q 258 262 254 258 q 266 269 263 266 q 286 270 279 273 q 292 260 290 263 q 294 252 294 256 q 292 240 293 243 q 292 236 292 237 q 281 225 288 232 m 157 311 q 168 298 165 304 q 165 279 168 281 q 161 271 161 277 q 149 271 155 270 q 140 275 142 273 q 127 288 126 285 q 126 293 127 290 q 131 302 129 296 q 137 311 133 308 q 146 312 141 313 q 157 311 151 311 m 160 172 q 166 161 163 165 q 172 151 170 157 q 168 145 171 148 q 165 136 164 142 q 150 132 155 130 q 137 133 145 133 q 131 142 134 137 q 125 152 127 148 q 134 165 136 164 q 136 170 133 167 q 151 172 148 174 q 160 172 155 171 m 171 20 q 170 7 172 12 q 167 -4 168 3 q 152 -8 159 -7 q 138 -5 145 -9 q 131 3 133 -3 q 126 16 129 9 q 131 27 130 24 q 133 30 132 30 q 153 34 141 38 q 165 25 163 27 q 171 20 168 23 z "},"Ž":{"ha":787,"x_min":42,"x_max":745,"o":"m 75 1006 q 90 979 91 989 q 79 970 80 972 q 77 967 79 968 q 45 971 50 958 q 42 981 42 974 q 43 990 42 987 q 57 1006 46 996 q 65 1004 62 1004 q 75 1006 68 1005 m 612 986 q 599 969 601 972 q 593 964 597 966 q 570 969 578 960 q 564 996 562 978 q 578 1003 576 1004 q 582 1002 581 1002 q 589 1005 585 1004 q 597 1005 593 1006 q 607 994 605 997 q 612 986 609 990 m 479 979 q 469 970 475 972 q 457 963 463 967 q 446 965 450 964 q 438 971 442 966 q 434 983 435 975 q 438 998 433 991 q 469 1002 448 1012 q 475 990 476 993 q 476 985 475 987 l 479 979 m 221 986 q 209 971 212 971 q 182 964 194 964 q 174 975 178 968 q 172 989 170 981 q 182 1002 179 1000 q 190 1006 186 1004 q 208 1005 195 1002 q 217 990 217 993 q 221 986 217 987 m 741 978 q 727 964 732 967 q 716 962 723 963 q 703 964 709 962 q 697 973 701 971 q 694 985 693 975 q 705 1001 700 998 q 721 1005 716 1005 q 727 1005 726 1005 q 739 990 736 996 q 738 982 742 985 l 741 978 m 340 1005 q 346 994 343 998 q 350 985 349 990 q 342 970 350 977 q 324 963 334 963 q 317 964 323 963 q 309 967 312 966 q 304 977 307 970 q 304 991 301 985 q 312 1000 308 998 q 316 1006 316 1001 q 329 1006 324 1006 q 340 1005 334 1005 m 640 850 q 645 836 643 836 q 648 836 647 837 q 648 825 648 829 q 647 819 648 822 q 634 810 637 811 q 629 808 631 808 q 615 813 618 815 q 609 812 612 811 q 603 821 606 815 q 601 833 600 827 q 621 849 613 846 q 633 852 628 852 l 640 850 m 469 579 q 480 562 472 572 q 476 550 476 552 q 475 547 476 548 q 463 538 467 541 q 452 536 458 536 q 446 541 448 537 q 437 544 444 545 q 432 558 433 551 q 430 574 431 566 q 448 582 444 579 l 469 579 m 384 427 q 380 412 380 420 q 371 410 373 411 q 366 406 369 408 q 349 404 351 401 q 343 407 346 406 q 335 423 335 418 q 346 441 343 439 q 366 444 363 446 q 373 439 369 442 q 384 427 374 430 m 275 274 q 256 272 264 271 q 241 279 247 273 q 240 291 239 285 q 239 304 241 297 q 256 316 244 311 q 277 315 267 321 q 281 308 281 312 q 286 301 282 304 q 283 286 286 292 q 275 274 279 281 m 557 673 q 538 671 547 670 q 525 678 529 671 q 523 690 522 684 q 522 703 524 696 q 538 714 528 709 q 559 713 549 719 q 564 707 563 711 q 570 700 564 703 q 566 685 570 690 q 557 673 562 680 m 159 180 q 167 177 164 180 q 176 176 170 174 q 184 168 179 172 q 186 159 189 163 q 182 138 187 142 q 170 130 176 134 q 157 134 163 132 q 144 138 152 137 q 140 156 140 153 q 141 160 141 159 q 153 168 152 165 q 156 170 153 170 l 159 180 m 743 31 q 741 20 739 26 q 745 9 743 15 q 734 -3 736 0 q 727 -8 731 -7 q 712 -7 715 -9 q 704 -8 709 -5 q 699 1 701 -4 q 694 9 697 5 q 700 25 700 23 q 701 30 700 27 q 716 37 712 35 q 724 38 720 38 q 734 35 731 38 q 743 31 738 33 m 614 31 q 618 20 616 24 q 621 9 620 15 q 613 1 617 5 q 604 -5 609 -3 q 588 -4 597 -5 q 578 3 579 -3 q 576 15 576 15 q 575 18 575 15 q 577 25 575 22 q 581 33 579 28 q 597 35 587 34 q 614 31 606 37 m 484 30 q 486 15 483 22 q 487 5 488 8 q 477 -1 479 1 q 472 -7 475 -4 q 463 -5 465 -8 q 454 -3 461 -1 q 449 7 453 4 q 446 16 445 11 q 457 32 454 31 q 460 35 460 33 q 474 33 467 33 q 484 30 481 34 m 359 15 q 349 0 354 1 q 323 -4 331 -5 q 313 3 316 -3 q 323 33 313 27 q 346 35 332 39 q 355 19 353 20 q 359 15 357 18 m 75 37 q 85 18 85 23 q 88 9 85 14 q 82 1 85 4 q 76 -7 79 -1 q 68 -9 71 -7 q 58 -8 65 -11 q 45 4 50 -4 q 45 20 42 18 q 58 33 56 33 q 61 34 60 33 l 75 37 m 212 -7 q 198 -5 205 -5 q 186 -4 191 -5 q 182 8 180 5 q 182 14 183 11 q 182 26 179 24 q 187 35 186 28 l 212 35 q 224 27 222 30 q 227 23 225 24 l 229 8 q 221 0 227 3 q 212 -7 216 -3 m 397 1179 q 410 1177 404 1176 q 423 1175 416 1177 q 433 1157 434 1162 q 434 1147 431 1152 q 419 1138 427 1142 q 400 1137 411 1134 q 393 1143 395 1139 q 387 1149 392 1146 q 393 1168 391 1162 q 397 1179 395 1173 m 445 1207 q 452 1217 448 1214 q 458 1227 456 1221 l 480 1227 q 490 1219 488 1225 q 495 1211 491 1214 q 494 1200 494 1204 q 491 1190 494 1196 q 467 1181 479 1183 q 457 1185 460 1183 q 450 1191 454 1188 q 445 1207 450 1204 m 515 1234 q 512 1242 513 1238 q 506 1246 511 1245 q 511 1255 511 1249 q 510 1263 511 1260 q 522 1274 518 1274 q 526 1276 525 1274 q 535 1275 530 1274 q 544 1275 540 1276 q 551 1269 548 1272 q 556 1263 553 1265 q 552 1251 555 1255 q 551 1238 549 1248 q 536 1232 545 1232 q 515 1234 526 1232 m 373 1207 q 368 1191 368 1204 q 361 1185 363 1188 q 353 1181 358 1183 q 327 1190 339 1183 q 324 1200 324 1196 q 323 1211 324 1204 q 328 1219 327 1214 q 336 1222 330 1225 l 359 1227 q 366 1217 362 1221 q 373 1207 370 1214 m 302 1234 q 282 1232 292 1232 q 267 1238 273 1232 q 266 1251 269 1248 q 262 1263 263 1255 q 267 1269 264 1265 q 274 1275 270 1272 q 283 1275 278 1276 q 293 1276 289 1274 q 304 1265 304 1270 q 308 1263 304 1261 q 307 1255 307 1260 q 312 1246 307 1249 q 306 1242 307 1245 q 302 1234 305 1238 z "},"ž":{"ha":787,"x_min":42,"x_max":745,"o":"m 75 1006 q 90 979 91 989 q 79 970 80 972 q 77 967 79 968 q 45 971 50 958 q 42 981 42 974 q 43 990 42 987 q 57 1006 46 996 q 65 1004 62 1004 q 75 1006 68 1005 m 612 986 q 599 969 601 972 q 593 964 597 966 q 570 969 578 960 q 564 996 562 978 q 578 1003 576 1004 q 582 1002 581 1002 q 589 1005 585 1004 q 597 1005 593 1006 q 607 994 605 997 q 612 986 609 990 m 479 979 q 469 970 475 972 q 457 963 463 967 q 446 965 450 964 q 438 971 442 966 q 434 983 435 975 q 438 998 433 991 q 469 1002 448 1012 q 475 990 476 993 q 476 985 475 987 l 479 979 m 221 986 q 209 971 212 971 q 182 964 194 964 q 174 975 178 968 q 172 989 170 981 q 182 1002 179 1000 q 190 1006 186 1004 q 208 1005 195 1002 q 217 990 217 993 q 221 986 217 987 m 741 978 q 727 964 732 967 q 716 962 723 963 q 703 964 709 962 q 697 973 701 971 q 694 985 693 975 q 705 1001 700 998 q 721 1005 716 1005 q 727 1005 726 1005 q 739 990 736 996 q 738 982 742 985 l 741 978 m 340 1005 q 346 994 343 998 q 350 985 349 990 q 342 970 350 977 q 324 963 334 963 q 317 964 323 963 q 309 967 312 966 q 304 977 307 970 q 304 991 301 985 q 312 1000 308 998 q 316 1006 316 1001 q 329 1006 324 1006 q 340 1005 334 1005 m 640 850 q 645 836 643 836 q 648 836 647 837 q 648 825 648 829 q 647 819 648 822 q 634 810 637 811 q 629 808 631 808 q 615 813 618 815 q 609 812 612 811 q 603 821 606 815 q 601 833 600 827 q 621 849 613 846 q 633 852 628 852 l 640 850 m 469 579 q 480 562 472 572 q 476 550 476 552 q 475 547 476 548 q 463 538 467 541 q 452 536 458 536 q 446 541 448 537 q 437 544 444 545 q 432 558 433 551 q 430 574 431 566 q 448 582 444 579 l 469 579 m 384 427 q 380 412 380 420 q 371 410 373 411 q 366 406 369 408 q 349 404 351 401 q 343 407 346 406 q 335 423 335 418 q 346 441 343 439 q 366 444 363 446 q 373 439 369 442 q 384 427 374 430 m 275 274 q 256 272 264 271 q 241 279 247 273 q 240 291 239 285 q 239 304 241 297 q 256 316 244 311 q 277 315 267 321 q 281 308 281 312 q 286 301 282 304 q 283 286 286 292 q 275 274 279 281 m 557 673 q 538 671 547 670 q 525 678 529 671 q 523 690 522 684 q 522 703 524 696 q 538 714 528 709 q 559 713 549 719 q 564 707 563 711 q 570 700 564 703 q 566 685 570 690 q 557 673 562 680 m 159 180 q 167 177 164 180 q 176 176 170 174 q 184 168 179 172 q 186 159 189 163 q 182 138 187 142 q 170 130 176 134 q 157 134 163 132 q 144 138 152 137 q 140 156 140 153 q 141 160 141 159 q 153 168 152 165 q 156 170 153 170 l 159 180 m 743 31 q 741 20 739 26 q 745 9 743 15 q 734 -3 736 0 q 727 -8 731 -7 q 712 -7 715 -9 q 704 -8 709 -5 q 699 1 701 -4 q 694 9 697 5 q 700 25 700 23 q 701 30 700 27 q 716 37 712 35 q 724 38 720 38 q 734 35 731 38 q 743 31 738 33 m 614 31 q 618 20 616 24 q 621 9 620 15 q 613 1 617 5 q 604 -5 609 -3 q 588 -4 597 -5 q 578 3 579 -3 q 576 15 576 15 q 575 18 575 15 q 577 25 575 22 q 581 33 579 28 q 597 35 587 34 q 614 31 606 37 m 484 30 q 486 15 483 22 q 487 5 488 8 q 477 -1 479 1 q 472 -7 475 -4 q 463 -5 465 -8 q 454 -3 461 -1 q 449 7 453 4 q 446 16 445 11 q 457 32 454 31 q 460 35 460 33 q 474 33 467 33 q 484 30 481 34 m 359 15 q 349 0 354 1 q 323 -4 331 -5 q 313 3 316 -3 q 323 33 313 27 q 346 35 332 39 q 355 19 353 20 q 359 15 357 18 m 75 37 q 85 18 85 23 q 88 9 85 14 q 82 1 85 4 q 76 -7 79 -1 q 68 -9 71 -7 q 58 -8 65 -11 q 45 4 50 -4 q 45 20 42 18 q 58 33 56 33 q 61 34 60 33 l 75 37 m 212 -7 q 198 -5 205 -5 q 186 -4 191 -5 q 182 8 180 5 q 182 14 183 11 q 182 26 179 24 q 187 35 186 28 l 212 35 q 224 27 222 30 q 227 23 225 24 l 229 8 q 221 0 227 3 q 212 -7 216 -3 m 397 1179 q 410 1177 404 1176 q 423 1175 416 1177 q 433 1157 434 1162 q 434 1147 431 1152 q 419 1138 427 1142 q 400 1137 411 1134 q 393 1143 395 1139 q 387 1149 392 1146 q 393 1168 391 1162 q 397 1179 395 1173 m 445 1207 q 452 1217 448 1214 q 458 1227 456 1221 l 480 1227 q 490 1219 488 1225 q 495 1211 491 1214 q 494 1200 494 1204 q 491 1190 494 1196 q 467 1181 479 1183 q 457 1185 460 1183 q 450 1191 454 1188 q 445 1207 450 1204 m 515 1234 q 512 1242 513 1238 q 506 1246 511 1245 q 511 1255 511 1249 q 510 1263 511 1260 q 522 1274 518 1274 q 526 1276 525 1274 q 535 1275 530 1274 q 544 1275 540 1276 q 551 1269 548 1272 q 556 1263 553 1265 q 552 1251 555 1255 q 551 1238 549 1248 q 536 1232 545 1232 q 515 1234 526 1232 m 373 1207 q 368 1191 368 1204 q 361 1185 363 1188 q 353 1181 358 1183 q 327 1190 339 1183 q 324 1200 324 1196 q 323 1211 324 1204 q 328 1219 327 1214 q 336 1222 330 1225 l 359 1227 q 366 1217 362 1221 q 373 1207 370 1214 m 302 1234 q 282 1232 292 1232 q 267 1238 273 1232 q 266 1251 269 1248 q 262 1263 263 1255 q 267 1269 264 1265 q 274 1275 270 1272 q 283 1275 278 1276 q 293 1276 289 1274 q 304 1265 304 1270 q 308 1263 304 1261 q 307 1255 307 1260 q 312 1246 307 1249 q 306 1242 307 1245 q 302 1234 305 1238 z "},"½":{"ha":762,"x_min":81,"x_max":680,"o":"m 529 981 q 532 989 530 986 q 534 998 534 991 q 563 1004 544 1004 q 567 979 572 986 q 554 970 562 972 q 539 971 547 968 q 529 981 532 974 m 509 849 q 486 848 494 845 q 472 853 479 850 q 473 864 471 860 q 476 873 475 868 q 484 878 480 876 q 491 884 488 880 q 504 881 498 883 q 513 876 510 879 q 515 863 517 867 q 513 857 514 860 l 509 849 m 450 761 q 458 739 458 750 q 454 731 457 734 q 448 726 450 728 q 439 727 444 728 q 427 724 434 726 q 419 738 422 735 q 419 746 416 741 q 432 760 427 758 q 438 764 437 761 l 450 761 m 201 998 q 194 979 197 991 q 183 977 187 981 q 174 974 179 974 q 165 976 168 974 q 159 981 163 978 q 163 1005 157 1001 q 174 1016 168 1009 q 182 1015 179 1016 q 190 1015 186 1015 q 201 998 194 1002 m 198 882 q 195 863 198 868 q 189 852 193 853 q 184 848 186 850 q 169 850 174 848 q 159 859 164 852 q 161 879 159 878 q 165 886 164 880 q 184 886 176 887 q 198 882 191 884 m 187 722 q 170 719 179 718 q 156 727 161 720 l 156 745 q 167 758 164 753 q 181 758 175 761 q 190 748 187 754 q 192 734 193 742 q 187 722 191 727 m 191 612 q 159 590 190 586 q 152 596 155 593 q 142 601 149 600 q 144 610 145 608 q 146 620 144 613 q 153 625 151 621 q 160 632 156 629 q 178 631 175 633 q 183 629 180 629 q 191 612 186 623 m 369 601 q 363 611 363 604 q 359 623 363 618 q 362 629 361 627 q 366 636 363 632 q 374 640 369 639 q 382 644 380 642 q 397 636 397 637 q 399 632 397 635 l 404 616 q 389 605 397 610 q 369 601 380 600 m 350 498 q 335 485 336 487 q 331 483 334 483 q 304 494 315 476 q 309 511 307 509 q 312 518 311 514 q 332 519 324 522 q 347 510 340 515 l 350 498 m 285 399 q 286 372 296 388 q 269 361 273 362 q 256 359 264 361 q 254 368 256 365 q 250 374 251 370 q 250 382 248 378 q 250 389 252 385 q 260 396 254 392 q 274 397 266 400 l 285 399 m 228 275 q 233 269 229 270 q 236 259 237 267 q 225 239 229 245 q 216 238 220 239 q 208 240 212 237 q 197 258 194 256 q 201 275 198 275 q 203 278 203 275 q 216 276 212 279 q 228 275 221 273 m 179 148 q 179 134 180 138 q 175 123 178 130 q 149 119 161 115 q 138 138 136 123 q 142 146 138 141 q 148 153 145 152 q 163 155 159 155 q 170 155 168 155 l 179 148 m 118 26 q 119 17 118 20 q 122 11 121 14 q 119 4 121 5 q 111 0 117 3 q 103 -4 109 -1 q 92 -3 98 -7 q 85 5 90 0 q 84 16 81 9 q 90 31 90 23 q 110 31 107 34 q 118 26 113 28 m 605 486 q 610 471 610 477 q 604 463 609 465 q 563 469 570 458 q 574 486 571 481 q 581 494 576 490 q 593 492 589 495 q 605 486 598 488 m 502 458 q 505 438 507 442 q 505 429 502 434 q 494 423 498 427 q 484 419 491 419 q 467 445 467 419 q 473 452 469 449 q 480 458 477 454 q 491 458 487 458 q 502 458 495 457 m 680 397 q 670 385 670 385 q 661 378 661 380 q 658 374 661 377 q 644 380 646 381 q 640 380 642 380 q 635 397 633 395 q 633 403 636 400 q 650 412 650 412 q 667 412 661 415 q 677 404 674 408 l 680 397 m 468 353 q 448 338 453 339 q 431 340 442 336 q 426 357 426 354 q 423 362 426 361 q 444 374 430 372 q 464 365 457 376 l 468 353 m 661 309 q 671 288 666 294 q 661 276 662 277 q 659 271 661 275 q 647 272 652 271 q 636 277 642 273 q 628 292 628 288 q 629 298 628 296 q 644 307 643 305 q 646 309 644 309 q 653 309 648 311 q 661 309 658 308 m 587 214 q 592 196 597 208 q 581 179 587 184 q 566 180 571 179 q 553 194 555 193 q 559 203 556 199 q 563 214 562 208 q 587 214 576 220 m 505 92 q 487 94 500 94 q 479 118 481 111 q 490 125 490 123 q 491 127 490 126 q 503 130 499 130 q 513 127 507 130 q 519 117 518 118 q 519 110 521 117 q 511 98 513 100 q 505 92 509 95 m 467 27 q 466 12 467 14 q 465 3 465 9 q 458 -3 461 0 q 453 -9 456 -7 q 426 7 434 -4 q 429 20 430 19 q 431 24 429 22 q 439 31 437 30 q 450 34 442 33 q 460 34 457 35 q 467 27 463 33 m 647 33 q 661 18 658 22 q 662 9 663 15 q 656 -1 662 5 q 646 -8 651 -7 q 635 -5 639 -8 q 625 0 632 -3 q 623 15 621 14 q 624 19 624 16 q 631 22 628 20 q 639 27 635 24 l 647 33 m 567 4 q 556 -5 557 -5 q 551 -5 555 -4 q 538 -9 543 -9 q 530 -9 534 -8 q 524 3 529 -1 q 517 14 519 7 q 524 21 519 19 q 529 30 528 23 q 553 28 547 33 q 563 20 559 24 q 564 13 562 15 q 567 4 566 11 z "},"¼":{"ha":758,"x_min":98,"x_max":718,"o":"m 548 993 q 536 983 538 985 q 532 978 534 981 q 507 978 521 971 q 506 1000 503 997 q 509 1008 509 1002 q 524 1008 519 1005 q 536 1015 529 1012 q 542 1004 538 1008 q 548 993 545 1000 m 486 849 q 472 834 476 845 q 462 833 465 834 q 453 836 458 833 q 445 849 448 838 q 448 864 446 861 q 450 869 450 867 q 459 871 456 872 q 465 875 463 869 q 488 861 484 867 q 486 849 492 856 m 431 722 q 427 705 427 705 q 415 694 415 694 q 404 692 410 692 q 396 693 397 693 q 388 706 387 703 q 387 712 389 709 q 390 720 388 716 q 391 731 392 723 l 407 736 q 426 725 423 728 q 431 722 429 722 m 175 982 q 146 977 156 972 q 133 990 136 981 q 141 1004 141 1005 q 155 1012 155 1012 q 174 1008 171 1012 q 180 1002 176 1005 q 175 982 180 986 m 178 882 q 180 869 180 875 q 178 857 180 863 q 167 850 174 852 q 153 846 160 849 q 141 856 145 849 q 134 869 137 863 q 144 883 137 878 q 161 888 152 888 q 170 885 165 887 q 178 882 174 883 m 174 722 q 165 719 170 719 q 160 715 161 719 q 148 722 152 716 q 137 731 144 728 q 137 741 140 736 q 136 749 134 745 q 145 758 138 755 q 159 762 152 760 q 172 755 165 760 q 179 742 178 751 q 176 732 179 736 q 174 722 172 728 m 171 593 q 163 589 167 590 q 155 587 160 587 q 144 592 148 589 q 134 597 140 595 q 136 613 134 604 q 140 629 137 623 q 163 635 157 632 q 178 618 171 633 q 176 601 180 604 q 171 593 172 598 m 373 583 q 372 575 373 578 q 373 568 370 572 q 364 558 362 559 q 363 555 366 557 q 355 552 358 553 q 347 552 351 551 q 341 556 343 552 q 334 559 339 560 q 330 564 332 562 q 328 574 327 567 q 335 587 332 585 q 339 590 338 590 q 357 595 354 594 q 362 598 359 597 q 373 583 363 586 m 301 457 q 311 444 308 446 q 316 441 313 442 q 309 425 308 427 q 308 422 309 423 q 297 417 300 419 q 290 412 294 415 q 283 415 286 414 q 275 415 281 416 q 271 441 267 435 q 278 452 275 446 q 290 453 285 454 q 301 457 296 452 m 217 307 q 245 313 240 316 q 255 304 251 309 q 253 288 252 289 q 252 283 254 286 q 239 276 243 277 q 233 275 236 275 q 218 286 218 282 q 214 293 217 290 l 217 307 m 198 167 q 194 154 197 160 q 189 141 191 148 q 178 136 178 137 q 175 134 178 134 q 168 135 171 133 q 159 137 164 137 q 157 146 159 141 q 156 153 156 151 q 165 171 163 168 q 182 175 179 178 q 193 172 186 172 l 198 167 m 130 39 q 135 24 133 33 q 140 8 137 16 q 131 -2 133 -1 q 127 -5 129 -3 q 109 -4 111 -7 q 100 -1 106 -1 q 102 23 98 16 q 113 32 106 30 q 122 39 119 34 l 130 39 m 598 514 q 585 515 590 514 q 575 518 579 517 q 571 537 568 525 q 587 553 582 551 q 595 553 591 555 q 604 548 600 553 q 610 540 609 543 q 608 526 613 533 q 598 514 604 519 m 605 449 q 612 435 610 444 q 613 415 613 426 q 588 408 597 406 q 572 416 579 411 q 571 425 571 420 q 570 431 571 429 q 578 443 572 439 q 591 452 585 446 l 605 449 m 486 395 q 493 405 488 400 q 500 415 498 410 q 517 418 509 418 q 529 411 525 418 q 531 396 530 403 q 526 382 532 389 q 514 378 519 380 q 502 378 509 376 q 489 389 491 387 q 486 395 487 391 m 454 302 q 462 293 458 294 q 468 288 465 292 q 468 279 471 282 q 468 270 465 275 q 448 258 452 262 q 437 258 444 255 q 425 270 427 260 q 425 282 426 281 q 430 289 425 283 q 445 298 444 297 l 454 302 m 612 334 q 612 323 610 327 q 610 312 613 319 q 590 302 597 304 q 575 304 583 301 q 570 315 572 308 q 571 328 568 323 q 576 336 572 334 q 582 343 581 338 q 603 341 600 346 q 612 334 606 336 m 425 163 q 420 155 423 157 q 420 148 416 153 q 412 146 416 146 q 406 140 408 145 q 381 148 388 138 q 381 165 374 165 q 395 179 389 178 q 403 183 400 180 q 416 175 415 176 l 425 163 m 479 159 q 484 165 480 164 q 488 171 488 165 q 496 174 495 171 q 500 180 498 178 l 517 180 q 523 174 519 176 q 526 165 526 171 q 524 155 528 159 q 517 144 519 151 q 505 142 510 142 q 494 142 500 141 q 486 152 490 148 q 479 159 483 156 m 613 233 q 612 223 613 228 q 614 216 612 218 q 598 201 602 208 q 583 199 594 197 q 568 208 572 201 q 568 214 570 210 q 568 222 567 218 q 576 236 576 235 q 593 241 590 241 q 600 239 597 240 l 613 233 m 715 175 q 716 165 715 170 q 716 157 718 161 q 699 138 704 141 q 682 141 690 137 q 671 155 673 145 q 675 170 670 165 q 685 180 681 174 q 705 180 701 183 q 715 175 709 176 m 600 140 q 610 122 606 123 q 614 118 614 121 q 614 109 614 111 q 612 103 613 107 q 590 98 591 100 q 586 92 589 95 q 575 98 576 98 q 572 99 574 98 q 568 115 567 110 q 568 125 568 119 q 575 129 574 125 q 579 136 576 133 q 589 138 585 137 q 600 140 593 140 m 591 31 q 610 18 604 23 q 609 3 616 12 q 578 -8 589 -15 q 570 5 570 -5 q 576 18 570 12 q 589 27 582 23 l 591 31 z "},"¹":{"ha":298,"x_min":125,"x_max":172,"o":"m 167 978 q 125 985 132 963 q 133 998 133 997 q 143 1006 142 1006 q 146 1006 144 1005 q 165 1003 163 1006 q 172 997 168 1000 q 167 978 172 979 m 170 876 q 172 863 172 869 q 170 852 172 857 q 158 845 165 846 q 144 841 151 844 q 133 850 137 844 q 126 864 129 857 q 153 883 130 883 q 162 880 159 882 q 170 876 165 878 m 165 716 q 157 714 161 715 q 152 709 153 713 q 139 716 142 711 q 129 726 136 722 q 129 735 132 731 q 127 743 126 739 q 136 752 130 750 q 151 757 142 754 q 164 750 157 754 q 171 736 171 746 q 168 727 171 731 q 165 716 165 723 m 164 587 q 155 583 159 585 q 146 583 152 582 q 136 587 140 583 q 126 591 132 591 q 127 608 126 598 q 132 624 129 617 q 144 626 138 625 q 155 629 151 627 q 170 613 163 628 q 169 595 172 597 q 164 587 165 593 z "},"¾":{"ha":826,"x_min":80,"x_max":785,"o":"m 208 1005 q 199 1003 205 1002 q 190 1001 193 1004 q 163 1001 172 994 q 162 1013 160 1008 q 163 1023 164 1019 q 172 1030 165 1028 q 182 1036 178 1032 q 197 1030 193 1034 q 206 1024 202 1027 q 208 1013 208 1015 q 208 1005 208 1010 m 296 989 q 264 982 273 978 q 252 993 256 986 q 255 1005 254 1000 q 259 1017 256 1010 q 271 1019 266 1017 q 281 1024 277 1021 q 290 1018 285 1023 q 298 1006 296 1013 q 296 996 296 998 q 296 989 297 993 m 137 966 q 136 956 137 960 q 137 947 134 951 q 128 939 132 944 q 119 930 125 933 q 109 934 113 932 q 98 935 104 936 q 98 964 88 951 q 125 972 107 978 l 137 966 m 328 894 q 321 889 326 887 q 311 890 317 891 q 296 882 297 883 q 292 880 294 880 q 284 886 289 882 q 278 895 279 891 q 278 903 277 899 q 279 913 279 907 q 302 924 294 925 q 315 920 309 924 q 318 913 316 916 q 317 905 320 910 q 324 900 320 901 q 328 894 328 899 m 270 842 q 262 827 267 831 q 254 814 256 822 q 239 816 250 818 q 225 821 228 814 q 216 842 222 836 q 233 854 231 846 q 243 856 237 856 q 252 859 250 856 q 267 847 266 850 q 270 842 267 844 m 187 825 q 184 817 186 821 q 182 810 183 814 q 180 802 187 804 q 172 795 174 800 q 158 793 165 792 q 144 798 151 795 q 142 808 146 804 q 140 819 138 811 q 150 827 146 822 q 163 831 153 831 q 182 827 179 827 q 187 825 184 827 m 282 776 q 281 760 281 760 q 279 758 281 761 q 267 747 274 751 q 253 747 259 746 q 240 751 247 749 q 242 762 241 757 q 241 774 243 768 q 252 785 248 783 q 259 791 256 788 q 275 783 273 788 q 282 776 277 779 m 317 667 q 300 667 305 663 q 285 669 296 671 q 280 682 278 680 q 283 690 282 685 q 293 707 288 703 q 300 711 298 711 q 323 703 317 707 q 329 687 328 688 q 330 684 330 686 q 320 671 320 673 q 317 667 320 670 m 123 628 q 114 624 118 627 q 106 618 110 621 q 84 624 92 621 q 90 654 80 639 q 103 657 98 654 q 115 658 109 661 q 123 639 123 643 q 123 628 122 635 m 187 625 q 189 609 190 618 q 186 593 187 600 q 178 588 183 590 q 170 583 174 586 q 157 589 163 586 q 148 600 151 591 q 149 610 146 605 q 155 623 152 616 q 163 625 159 624 q 170 631 167 627 q 178 627 172 628 q 187 625 183 627 m 266 631 q 278 628 277 627 q 282 628 279 629 q 293 617 293 617 q 283 593 292 597 q 271 583 275 590 q 258 589 260 586 q 252 593 255 591 q 247 610 247 606 q 250 617 247 614 q 262 627 258 627 q 266 631 266 627 m 629 989 q 618 977 620 979 q 613 972 616 975 q 587 972 602 966 q 587 981 589 978 q 583 987 585 983 q 587 994 585 991 q 589 1002 589 997 q 604 1004 600 1001 q 617 1009 609 1006 q 623 998 620 1002 q 629 989 627 994 m 567 845 q 559 838 562 842 q 553 830 556 834 q 545 830 548 831 q 538 829 541 829 q 527 844 526 841 q 528 849 528 846 q 529 861 526 857 q 530 867 532 864 q 562 867 548 875 q 567 845 575 859 m 514 719 q 509 701 509 701 q 496 692 496 692 q 484 688 490 688 q 476 690 479 689 q 469 703 468 700 q 467 708 469 705 q 470 716 468 712 q 471 727 472 720 q 479 729 475 730 q 486 732 483 728 q 499 728 498 728 q 502 727 500 728 l 514 719 m 456 581 q 454 572 456 575 q 456 566 452 568 q 446 555 444 556 q 445 552 448 555 q 435 549 439 551 q 427 548 431 547 q 421 553 423 548 q 414 556 419 557 q 411 572 410 571 q 412 574 412 572 q 415 584 412 582 q 419 587 418 586 q 439 593 437 591 q 444 595 441 594 q 456 581 445 583 m 382 454 q 392 443 389 445 q 399 439 395 441 l 392 425 q 378 414 381 416 q 372 410 376 412 q 364 412 368 411 q 355 414 361 414 q 352 438 349 433 q 358 449 355 444 q 370 451 365 452 q 382 454 376 450 m 297 305 q 338 301 334 313 q 334 284 334 286 q 332 279 335 282 q 321 275 324 275 q 315 274 317 274 q 298 285 298 281 q 294 292 297 289 l 297 305 m 279 167 q 275 153 278 159 q 270 140 273 146 q 258 135 259 136 q 255 133 258 134 q 248 134 251 133 q 239 136 244 136 q 237 145 239 141 q 236 153 236 149 q 245 171 241 167 q 264 174 260 176 q 275 172 269 171 l 279 167 m 213 39 q 217 24 216 33 q 221 8 218 16 q 212 -2 214 -1 q 210 -5 210 -3 q 189 -4 193 -7 q 180 -1 186 -1 q 179 16 178 11 q 182 23 180 20 q 193 32 186 30 q 203 39 199 34 l 213 39 m 665 514 q 652 515 656 514 q 642 518 647 517 q 637 537 637 522 q 642 543 640 540 q 648 548 644 545 q 671 548 667 553 q 678 540 675 543 q 676 526 681 533 q 665 514 671 519 m 674 449 q 680 435 678 444 q 680 415 681 426 q 655 408 665 406 q 640 416 646 411 q 639 425 639 420 q 636 431 639 429 q 646 443 639 439 q 658 452 652 446 q 666 450 663 452 q 674 449 669 449 m 553 395 q 561 405 556 400 q 568 415 566 410 q 597 411 587 422 q 597 396 597 403 q 594 382 598 389 q 582 378 587 380 q 570 378 576 376 q 557 389 560 387 q 553 395 555 391 m 522 302 q 530 293 526 294 q 534 288 533 292 q 534 279 537 282 q 534 270 532 275 q 515 258 519 262 q 505 258 510 255 q 498 263 502 259 q 494 270 494 267 q 494 282 495 281 q 499 289 492 283 q 511 298 510 297 l 522 302 m 680 334 q 679 323 677 327 q 678 312 681 319 q 656 302 663 304 q 642 304 650 301 q 637 315 639 308 q 637 328 636 323 q 644 336 640 334 q 650 343 648 338 q 671 341 666 346 q 680 334 675 336 m 494 163 q 488 155 491 157 q 487 148 484 153 q 479 146 483 146 q 473 140 475 145 q 449 148 456 138 q 449 165 445 165 q 462 179 457 178 q 471 183 467 180 q 484 171 484 175 l 494 163 m 547 159 q 551 165 547 164 q 556 171 556 165 q 564 174 563 171 q 568 180 564 178 l 583 180 q 589 174 586 176 q 594 165 593 171 q 590 155 594 159 q 583 144 586 151 q 560 142 570 141 q 547 159 556 151 m 680 233 q 681 216 680 220 q 667 201 671 208 q 651 199 662 197 q 636 208 640 201 q 636 214 637 210 q 636 222 635 218 l 644 237 q 669 239 659 241 l 680 233 m 783 175 q 785 165 784 170 q 785 157 785 161 q 773 146 776 146 q 749 141 757 137 q 739 155 741 145 q 743 170 736 165 q 751 180 749 174 q 772 180 769 183 q 783 175 776 176 m 667 140 q 671 134 669 136 q 674 126 674 132 q 680 109 681 111 q 680 103 680 107 q 668 104 669 107 q 665 100 667 102 q 647 96 651 91 q 635 107 635 107 q 635 115 633 110 q 635 125 636 119 q 642 129 642 125 q 647 136 643 133 q 656 138 652 137 q 667 140 661 140 m 658 31 q 678 18 673 23 q 677 3 684 12 q 656 -11 661 -9 q 646 -8 652 -12 q 636 5 636 -5 q 642 18 636 12 q 655 27 648 23 l 658 31 z "},"³":{"ha":406,"x_min":80,"x_max":330,"o":"m 208 990 q 199 987 205 987 q 190 986 193 987 q 163 986 171 978 q 162 997 160 991 q 163 1005 164 1002 q 172 1014 165 1012 q 182 1020 178 1016 q 197 1015 193 1019 q 206 1006 202 1010 q 208 996 208 997 q 208 990 208 996 m 296 972 q 264 966 273 963 q 252 977 256 970 q 259 1000 254 987 q 281 1006 270 1001 q 290 1001 285 1006 q 298 991 296 996 q 296 980 296 983 q 296 972 297 977 m 137 948 q 136 939 137 943 q 137 930 134 935 q 128 923 132 928 q 119 916 125 918 q 109 918 113 916 q 98 920 104 920 q 98 948 88 935 q 125 956 107 962 l 137 948 m 328 878 q 321 873 326 871 q 311 873 317 875 q 296 866 297 868 q 292 865 294 864 q 284 870 289 865 q 278 879 279 875 q 278 887 277 883 q 279 895 279 891 q 285 901 282 898 q 290 906 288 903 q 302 909 294 910 q 315 903 309 909 q 318 897 316 901 q 317 888 320 894 q 324 884 320 884 q 328 878 328 883 m 270 825 q 262 812 267 817 q 254 799 256 807 q 239 800 250 803 q 225 804 228 798 q 216 825 220 822 q 233 837 231 829 q 243 840 237 840 q 252 844 250 840 q 267 830 266 833 q 270 825 267 827 m 187 808 q 180 786 187 788 q 172 777 174 784 q 158 776 165 774 q 144 780 151 777 q 142 791 146 788 q 140 803 138 795 q 150 811 146 806 q 163 817 153 817 q 187 808 183 812 m 282 760 q 279 743 281 745 q 274 737 277 741 q 267 731 271 734 q 240 735 252 731 q 242 747 241 742 q 241 758 243 751 q 252 768 248 766 q 259 774 256 770 q 275 767 273 772 q 282 760 277 762 m 317 651 q 300 651 305 648 q 285 652 296 654 q 280 666 278 662 q 283 675 282 670 q 293 692 290 689 l 312 696 q 324 684 323 685 q 329 671 328 673 q 330 667 330 670 q 320 654 320 655 q 317 651 320 654 m 123 612 q 114 608 118 610 q 106 602 110 605 q 94 604 99 602 q 84 606 90 605 q 90 637 80 624 q 103 642 98 639 q 115 642 109 644 q 123 623 123 628 q 123 612 122 618 m 187 609 q 189 593 190 602 q 186 578 187 585 q 178 572 183 575 q 170 567 174 570 q 157 572 163 570 q 148 583 151 575 q 149 594 146 590 q 155 605 152 598 q 163 609 159 608 q 170 614 167 610 q 178 611 172 612 q 187 609 183 610 m 266 614 q 278 612 277 612 q 282 612 279 613 l 293 601 q 283 578 292 581 q 271 567 275 575 q 258 572 260 570 q 252 578 255 575 q 247 594 247 590 q 250 601 247 598 q 262 611 258 610 q 266 614 266 612 z "},"²":{"ha":416,"x_min":83,"x_max":340,"o":"m 259 1010 q 264 996 264 1002 q 258 987 263 990 q 229 985 236 983 q 218 994 221 987 q 229 1010 227 1005 q 235 1019 231 1016 q 248 1016 243 1020 q 259 1010 252 1012 m 161 983 q 165 963 167 967 q 164 952 163 959 q 155 948 157 952 q 146 944 152 944 q 132 951 136 944 q 127 970 127 959 q 134 977 130 974 q 140 983 137 979 q 152 982 148 983 q 161 983 156 981 m 340 933 q 330 922 334 922 q 308 913 311 911 q 296 924 298 921 q 294 928 294 926 q 300 943 298 940 q 304 948 301 945 q 328 947 323 951 q 336 941 334 944 l 340 933 m 129 878 q 109 863 114 864 q 92 865 103 861 q 86 882 85 879 q 83 887 87 884 q 104 899 91 897 q 125 890 118 901 l 129 878 m 320 850 q 328 827 326 833 q 317 810 317 815 q 294 815 300 810 q 286 831 285 827 q 286 837 286 836 q 300 846 294 844 q 310 850 305 852 q 320 850 315 849 m 248 774 q 252 755 256 766 q 241 741 248 745 q 227 742 232 739 q 219 747 222 746 q 214 751 216 749 q 219 764 216 761 q 224 774 222 768 q 236 777 229 776 q 248 774 243 777 m 164 658 q 149 659 160 659 q 143 665 145 661 q 136 667 141 669 q 140 675 138 670 q 138 685 141 681 q 151 692 151 690 q 153 694 152 693 q 164 696 160 696 q 174 694 168 697 q 180 684 179 685 q 179 675 180 682 q 171 664 174 667 q 164 658 168 661 m 127 612 q 126 596 126 598 q 126 586 126 594 q 119 581 122 583 q 113 575 117 578 q 85 591 94 579 q 90 605 91 604 q 92 609 90 606 q 110 618 99 617 q 120 618 117 618 q 127 612 123 617 m 307 617 q 321 603 317 606 q 324 594 324 600 q 317 583 323 589 q 305 576 312 578 q 295 578 298 576 q 285 583 292 581 q 282 599 281 598 q 283 602 283 600 q 292 607 289 604 q 300 613 294 610 l 307 617 m 227 589 q 212 579 218 581 q 200 576 205 575 q 191 575 195 576 q 184 586 190 582 q 176 597 179 590 q 183 606 179 604 q 190 614 187 608 q 222 605 214 614 q 224 597 222 600 q 227 589 225 595 z "},"¦":{"ha":308,"x_min":123,"x_max":183,"o":"m 178 1005 q 177 993 178 998 q 175 982 176 987 q 148 977 152 977 q 133 987 136 982 q 130 997 130 993 q 134 1008 130 1004 q 141 1020 138 1012 q 163 1018 155 1024 q 178 1005 171 1012 m 180 875 q 176 860 176 860 q 166 849 167 850 q 161 846 165 848 q 136 854 145 845 q 130 873 127 871 q 130 883 132 876 q 140 888 136 884 q 151 891 144 891 q 172 882 167 884 q 180 875 178 880 m 168 722 q 144 718 157 718 q 132 731 137 724 q 133 749 127 738 q 138 756 137 754 q 144 760 140 758 q 161 758 155 762 q 175 749 167 753 q 173 732 175 736 q 168 722 171 727 m 138 593 q 132 609 136 601 q 132 625 129 617 q 142 631 138 628 q 155 632 146 633 q 163 627 160 631 q 174 623 167 623 q 171 600 174 608 q 160 589 168 591 q 151 591 156 591 q 138 593 145 590 m 167 357 q 158 355 163 355 q 149 355 153 354 q 137 361 138 361 q 133 366 136 361 q 130 380 132 380 q 130 384 129 381 q 139 393 136 392 q 144 399 142 395 q 158 397 155 399 q 168 393 161 396 q 174 385 170 387 q 178 377 178 382 q 174 367 178 370 q 167 357 170 363 m 142 267 q 150 267 144 270 q 159 269 156 264 q 170 260 168 260 q 175 258 172 259 q 175 243 178 250 q 170 229 172 236 q 141 229 152 224 q 133 256 132 248 q 142 267 134 263 m 160 138 q 175 127 164 130 q 178 112 176 113 q 183 109 180 111 q 172 102 174 104 q 168 102 171 100 q 154 97 160 98 q 141 99 148 96 q 127 110 132 106 q 125 117 123 114 q 136 132 132 130 q 142 138 140 134 q 151 138 148 136 q 160 138 155 140 m 133 3 q 148 10 146 9 q 152 11 149 11 q 160 8 156 11 q 170 5 164 5 q 175 -12 176 -8 q 176 -18 174 -15 q 171 -24 175 -22 q 167 -33 167 -26 q 144 -30 153 -37 q 130 -16 136 -23 q 132 -7 133 -12 q 133 3 132 -3 z "},"−":{"ha":495,"x_min":68,"x_max":426,"o":"m 118 506 q 121 491 121 491 q 122 490 122 491 q 119 480 122 484 q 114 469 117 476 q 106 465 110 468 q 99 461 103 463 q 90 463 92 463 q 84 465 88 463 q 75 469 80 468 q 69 477 71 471 q 71 486 68 481 q 73 496 75 490 q 87 505 77 502 q 103 505 96 509 q 111 505 107 505 q 118 506 115 506 m 218 502 q 222 481 225 491 q 213 465 220 472 q 193 461 198 460 q 184 464 187 463 q 177 470 182 465 q 172 477 172 475 q 176 492 174 488 q 179 498 178 495 q 184 504 182 500 q 194 507 187 507 q 205 505 199 509 q 218 502 212 502 m 326 483 q 315 469 320 471 q 307 463 309 468 q 292 463 297 458 q 279 468 288 468 l 273 484 q 275 499 275 499 q 292 505 286 506 q 301 507 298 505 q 313 496 308 503 q 326 483 319 488 m 374 479 q 378 490 377 486 q 381 500 378 495 q 397 505 389 503 q 414 505 404 507 q 420 498 416 500 q 425 490 423 495 q 418 471 426 479 q 399 463 410 463 q 387 468 389 468 q 384 469 385 468 l 374 479 z "},"×":{"ha":515,"x_min":69,"x_max":446,"o":"m 96 677 q 110 663 107 669 q 115 652 113 658 q 115 640 117 647 q 104 631 113 633 q 87 631 91 631 q 79 635 83 632 l 72 648 q 75 661 73 658 q 80 669 77 665 q 90 671 84 671 q 96 677 95 671 m 197 582 q 199 566 202 574 q 189 551 195 557 q 179 549 183 547 q 170 544 175 551 q 161 553 164 551 q 153 562 157 555 q 155 574 156 568 q 161 583 155 579 q 169 586 164 586 q 176 589 174 586 q 189 585 184 585 q 197 582 193 585 m 336 593 q 347 590 342 591 q 358 583 353 589 q 363 568 363 576 q 355 553 363 560 q 332 551 347 547 q 316 566 316 555 q 326 585 320 582 q 336 593 331 589 m 396 658 q 407 665 403 662 q 418 674 411 669 l 433 673 q 439 667 437 671 q 446 662 442 663 q 445 651 446 656 q 446 639 444 646 q 439 633 442 635 q 430 627 435 631 q 420 629 425 629 q 412 629 416 628 q 407 637 408 633 q 400 639 406 640 q 399 649 397 644 q 396 658 401 654 m 232 495 q 243 505 240 503 q 247 509 245 507 q 268 507 263 509 q 275 499 273 506 q 283 486 282 490 q 282 477 285 481 q 271 466 271 465 q 269 467 271 467 q 259 465 266 465 q 248 467 252 464 q 243 471 245 468 q 237 477 240 475 q 235 487 239 484 q 232 495 232 490 m 114 309 q 101 303 103 304 q 96 300 99 302 q 69 315 81 300 q 80 340 72 336 q 90 344 84 345 q 100 345 96 343 q 114 309 121 331 m 175 426 q 189 420 190 422 q 190 418 189 419 q 198 408 198 412 q 199 400 198 403 q 193 391 198 397 q 184 384 189 385 q 177 382 182 381 q 167 382 172 382 q 153 399 156 393 q 155 406 156 401 q 156 414 153 411 q 165 422 164 423 q 170 422 167 422 l 175 426 m 361 395 q 345 385 349 387 q 336 382 340 382 q 330 389 334 385 q 321 392 326 392 q 319 404 317 399 q 317 415 320 410 q 335 429 327 420 q 343 429 339 430 q 351 429 347 429 q 357 421 353 425 q 363 411 361 418 q 361 403 363 407 q 361 395 359 399 m 445 334 q 444 321 442 327 q 441 309 446 315 q 432 305 438 305 q 422 300 426 305 q 405 311 407 307 q 400 317 403 315 q 401 334 404 327 q 412 340 407 338 q 422 346 416 343 q 433 340 427 343 q 445 334 439 336 z "}," ":{"ha":541,"x_min":0,"x_max":0,"o":""},"!":{"ha":305,"x_min":122,"x_max":180,"o":"m 136 1009 q 144 1013 140 1010 q 155 1016 149 1016 q 174 995 172 1001 q 172 979 175 989 q 155 973 160 974 q 144 972 151 972 q 139 979 141 975 q 133 983 137 982 q 134 999 133 996 q 136 1009 136 1002 m 171 860 q 176 845 170 849 q 171 835 172 842 q 164 826 170 827 q 149 825 152 823 q 141 823 146 826 q 133 833 136 831 q 127 841 130 836 q 131 858 132 856 q 130 864 130 860 q 138 867 134 865 q 146 868 141 868 q 159 865 157 864 q 164 865 161 865 l 171 860 m 180 704 q 170 685 171 689 q 165 678 168 681 q 142 675 153 671 q 125 690 130 680 l 126 707 l 137 718 q 154 718 149 720 q 165 716 159 716 q 180 704 167 707 m 136 572 q 151 575 151 574 q 163 572 157 575 q 174 566 168 568 q 175 548 174 549 q 175 544 176 547 q 164 529 170 532 q 156 526 159 526 q 144 530 149 526 q 133 536 138 533 q 131 559 129 552 q 136 572 133 566 m 176 389 q 163 381 171 387 l 144 381 q 136 389 138 384 q 129 397 133 393 q 132 407 132 401 q 133 418 132 412 q 156 425 151 427 q 167 423 161 423 q 175 409 172 416 q 176 389 178 401 m 176 255 q 161 233 175 241 q 130 244 140 231 q 130 262 129 259 q 130 267 132 264 q 149 279 145 278 q 157 278 153 279 q 170 269 165 275 q 176 255 174 262 m 159 110 q 170 102 168 104 q 175 96 172 99 q 172 86 172 92 q 170 77 172 80 q 157 68 159 66 q 136 72 138 69 q 127 75 134 75 q 129 103 122 94 q 159 110 140 110 m 168 -16 l 146 -20 q 133 -14 134 -16 q 127 -12 132 -11 q 126 -2 125 -7 q 129 5 127 3 q 138 19 132 19 q 152 23 145 19 q 163 16 159 20 q 174 8 168 12 q 168 -16 175 -4 z "},"\"":{"ha":444,"x_min":95,"x_max":347,"o":"m 345 963 q 331 960 331 960 q 330 959 331 959 q 319 962 324 960 q 308 967 315 964 q 304 975 307 971 q 300 983 301 979 q 309 1004 307 1000 q 316 1010 311 1009 q 326 1009 321 1012 q 336 1008 331 1006 q 344 994 340 1002 q 343 978 347 985 q 344 970 343 974 q 345 963 345 967 m 340 863 q 321 859 331 856 q 304 868 311 861 q 300 887 298 882 q 302 895 301 892 q 309 903 304 898 q 316 910 313 909 q 331 905 328 907 q 336 902 334 903 q 342 896 339 899 q 346 886 346 892 q 344 876 347 880 q 340 863 340 871 m 323 755 q 308 767 309 762 q 301 774 307 772 q 302 789 297 785 q 307 803 308 793 l 324 808 q 340 802 340 804 q 343 800 340 799 q 344 789 345 795 q 346 780 343 783 q 335 767 342 772 q 323 755 328 762 m 317 705 q 329 704 324 705 q 339 700 334 703 q 344 685 342 692 q 343 667 346 678 q 336 661 339 665 q 330 656 334 656 q 310 663 319 654 q 301 682 301 671 q 307 694 307 692 q 308 697 307 697 l 317 705 m 141 963 q 117 962 121 960 q 107 967 113 964 q 103 975 106 971 q 99 983 100 979 q 106 1004 104 1000 q 115 1010 109 1009 q 123 1009 119 1012 q 133 1008 127 1006 q 141 994 137 1002 q 141 978 145 985 l 141 963 m 137 863 q 118 859 127 856 q 103 868 109 861 q 102 895 98 888 q 107 903 102 898 q 115 910 113 909 q 129 905 126 907 q 134 902 132 903 q 144 886 142 897 q 141 876 144 880 q 137 863 138 871 m 121 755 q 106 767 107 762 q 100 774 104 772 q 100 789 95 785 q 106 803 106 793 l 122 808 q 137 802 137 804 q 140 800 137 799 q 140 789 141 795 q 142 780 140 783 q 133 767 140 772 q 121 755 126 762 m 117 705 q 136 700 125 705 q 141 667 142 685 q 134 661 137 665 q 126 656 130 656 q 108 663 117 654 q 100 682 99 671 q 106 697 104 696 l 117 705 z "},"#":{"ha":734,"x_min":62,"x_max":674,"o":"m 589 864 q 583 857 587 859 q 576 852 579 856 q 557 854 568 850 q 550 865 553 860 q 548 880 547 871 q 560 882 556 879 q 571 887 564 886 q 587 869 585 876 l 589 864 m 290 886 q 298 874 294 880 q 304 861 301 868 q 294 853 294 856 q 292 849 294 850 q 282 851 289 852 q 271 850 275 850 q 259 859 264 854 q 256 872 254 864 q 275 888 270 887 q 283 887 282 887 q 290 886 283 887 m 240 765 q 254 778 250 779 q 263 780 259 777 q 272 777 267 777 q 279 774 277 777 q 286 760 285 761 q 285 755 286 758 q 277 749 282 751 q 266 743 271 746 q 254 744 260 741 q 243 751 247 747 l 240 765 m 571 772 q 566 750 578 757 q 536 750 553 743 q 532 764 530 757 q 538 779 534 772 q 555 779 545 781 q 571 772 564 776 m 567 669 q 571 650 567 654 q 561 642 564 642 q 556 637 557 642 q 545 637 549 637 q 534 639 541 637 q 527 662 524 658 q 534 671 530 666 q 558 672 555 674 q 567 669 562 670 m 235 635 q 218 644 222 640 q 220 667 210 655 q 227 673 222 671 q 236 677 232 674 q 250 665 243 670 q 254 644 258 659 q 235 635 237 640 m 129 636 q 115 644 115 644 q 109 652 109 650 q 106 658 109 655 q 114 667 110 663 q 126 673 118 671 q 140 672 140 673 q 142 669 141 671 q 153 660 153 661 q 152 655 152 659 q 150 644 151 647 q 146 640 149 642 q 136 638 141 637 q 129 636 132 639 m 631 640 l 632 670 q 662 671 650 677 q 671 655 674 666 q 667 648 671 650 q 659 639 662 646 q 650 639 654 637 q 643 637 647 640 l 631 640 m 463 661 q 459 648 464 651 q 453 639 454 646 q 438 641 445 640 q 425 648 431 642 q 424 656 423 652 q 426 663 425 659 q 433 667 430 666 q 442 670 435 669 q 456 668 453 670 q 463 661 460 666 m 361 661 q 346 637 362 644 q 334 640 336 642 q 331 639 332 639 q 317 654 319 648 q 320 670 316 659 q 327 671 324 670 q 335 674 330 673 q 351 671 349 671 q 355 669 353 671 l 361 661 m 245 536 q 219 533 227 529 q 206 537 212 537 q 205 555 201 553 q 209 563 209 556 q 223 566 216 566 q 241 563 231 566 q 246 545 245 548 q 245 536 247 541 m 545 556 q 540 539 547 544 q 529 528 533 534 q 516 532 522 530 q 505 536 510 533 q 500 543 502 538 q 496 552 499 548 q 510 570 507 567 q 530 566 521 571 q 545 556 538 560 m 229 449 q 220 429 224 441 q 209 424 214 426 q 197 419 203 422 q 188 427 190 422 q 183 439 186 433 q 191 458 186 445 q 199 463 195 461 q 206 467 202 464 q 214 463 210 464 q 221 461 218 463 l 229 449 m 526 439 q 518 429 519 430 q 515 426 517 429 q 499 429 503 425 q 488 431 492 430 q 480 437 483 431 q 484 444 483 442 q 484 453 486 446 q 518 457 502 464 q 524 449 521 452 q 526 439 526 446 m 62 342 q 71 349 65 345 q 81 350 77 353 q 98 349 95 353 q 106 342 100 345 q 104 329 104 330 q 102 326 103 328 q 79 318 85 316 q 71 323 73 320 q 65 330 68 326 q 62 342 62 335 m 203 353 q 208 345 206 349 q 209 336 209 342 q 200 320 201 324 q 197 313 199 316 q 189 317 193 316 q 179 320 186 317 q 173 326 176 323 q 167 331 170 328 q 165 351 165 338 q 176 353 171 353 q 184 355 180 353 q 194 353 191 354 q 203 353 197 353 m 384 315 q 363 338 365 324 q 369 358 362 351 q 382 357 376 355 q 396 357 388 358 q 401 348 399 351 q 404 338 404 345 q 397 325 404 330 q 384 315 391 320 m 604 350 q 607 340 606 343 q 602 330 608 336 q 586 317 587 317 q 571 324 575 320 q 566 330 568 326 q 563 339 563 334 q 567 345 564 343 q 572 354 570 347 q 604 350 590 359 m 264 355 q 281 353 279 351 q 285 354 282 354 q 300 345 298 350 q 308 338 301 340 q 271 317 301 313 q 267 330 267 323 q 263 345 266 338 l 264 355 m 502 323 q 493 320 496 324 q 484 316 490 316 q 465 326 468 323 q 458 331 461 328 q 461 338 461 332 q 464 346 461 343 q 473 351 471 351 q 477 355 476 351 q 488 351 484 354 q 499 350 492 349 q 504 343 500 346 q 507 336 507 340 l 502 323 m 452 218 q 451 227 453 222 q 450 233 449 231 q 476 246 468 245 q 491 237 484 247 q 483 212 499 216 q 452 218 467 208 m 193 227 q 176 214 182 214 q 164 210 170 213 q 155 214 160 213 q 146 217 151 214 q 147 231 145 229 q 149 239 149 233 q 161 244 155 243 q 172 250 167 245 q 180 245 179 248 q 187 240 180 241 l 193 227 m 446 142 q 458 139 452 141 q 469 140 464 137 q 475 132 471 134 q 481 125 480 130 q 473 109 479 117 q 457 102 467 102 q 450 104 453 102 q 441 107 448 107 q 435 121 434 117 q 433 127 435 125 q 444 138 442 137 q 446 142 446 140 m 155 140 q 169 133 164 138 q 174 123 174 127 q 170 116 174 121 q 163 109 165 111 q 136 109 144 103 q 127 123 129 115 l 133 138 q 155 140 152 141 z "},"$":{"ha":667,"x_min":54,"x_max":597,"o":"m 309 1086 q 341 1094 334 1095 q 353 1082 349 1093 q 351 1067 353 1069 q 349 1063 350 1066 q 339 1058 346 1061 q 326 1058 332 1055 q 313 1068 315 1061 q 309 1086 312 1076 m 353 981 q 352 974 350 978 q 354 966 354 970 q 346 958 349 963 q 336 949 343 952 q 330 951 334 949 q 321 951 327 954 q 314 960 316 955 q 309 971 312 966 q 317 982 312 978 q 324 991 321 986 q 346 985 343 987 q 353 981 349 983 m 463 972 q 484 960 481 967 q 488 943 490 948 q 484 935 487 939 q 469 928 473 929 q 455 936 454 935 q 454 939 456 937 q 449 956 450 954 q 449 959 448 958 q 461 968 453 964 l 463 972 m 174 914 q 168 922 171 917 q 163 929 165 926 q 171 945 168 940 q 176 956 174 949 q 191 953 183 954 q 206 949 199 952 q 211 928 214 933 q 206 918 208 924 q 174 914 191 914 m 587 903 q 595 888 593 891 q 597 882 597 884 q 593 874 595 876 q 589 865 590 872 q 566 864 571 861 q 556 869 562 867 q 553 888 552 884 q 557 895 555 891 q 565 899 562 898 q 570 905 568 901 q 580 903 576 905 q 587 903 583 901 m 140 810 q 110 792 122 791 q 100 798 103 793 q 91 804 96 802 q 94 819 90 814 q 100 831 99 823 q 127 830 117 829 q 134 821 132 825 q 140 810 137 817 m 160 665 q 144 660 148 661 q 138 661 140 659 q 128 667 132 665 q 123 673 125 670 q 123 681 122 677 q 123 690 123 685 q 138 701 126 696 q 150 699 149 697 q 156 700 151 701 q 165 694 160 697 q 167 680 170 690 q 164 673 167 677 q 160 665 161 670 m 208 591 q 204 604 208 598 q 203 620 201 609 q 214 631 208 627 q 235 632 221 635 q 239 625 237 629 q 245 617 241 620 q 239 595 244 598 q 224 591 232 590 q 208 591 217 593 m 346 562 q 352 554 349 557 q 358 545 355 551 q 357 536 358 540 q 357 528 357 533 q 351 522 353 525 q 342 518 349 519 q 330 521 335 518 q 320 526 326 524 q 315 536 315 534 q 316 541 316 537 q 318 552 315 548 q 323 560 321 556 q 334 561 330 560 q 346 562 339 562 m 471 495 q 481 472 483 483 q 477 463 476 464 q 471 458 477 461 q 461 455 468 457 q 450 454 454 453 q 442 459 445 456 q 437 465 439 463 q 442 491 434 483 q 456 495 449 498 q 471 495 464 492 m 534 358 q 536 373 536 362 q 539 388 536 382 q 548 395 543 393 q 561 393 559 392 q 567 395 563 395 q 574 384 574 392 q 579 370 574 376 q 572 359 574 359 q 568 357 571 359 q 534 358 547 349 m 591 222 q 580 207 585 210 q 572 198 575 203 q 560 197 562 198 q 555 198 559 195 q 545 210 547 208 q 543 214 543 212 q 545 229 545 224 q 554 235 549 233 q 562 240 559 237 q 585 233 581 236 q 591 222 589 229 m 98 182 q 104 168 99 174 q 101 159 103 163 q 100 149 99 156 q 85 144 91 149 q 69 142 80 140 q 56 155 57 151 q 57 165 54 161 q 57 172 60 168 q 64 180 61 175 q 72 186 66 184 q 82 185 79 184 q 90 186 85 186 l 98 182 m 491 121 q 494 112 491 115 q 496 106 496 109 q 490 96 495 99 q 481 88 484 94 q 469 87 472 88 q 457 88 465 85 q 449 102 452 100 q 446 107 446 103 q 461 125 458 121 q 476 123 468 122 q 491 121 484 125 m 189 68 q 172 91 170 81 q 179 109 175 100 q 192 112 189 109 q 199 114 195 115 q 210 110 209 110 q 214 106 210 110 q 218 91 217 100 q 213 76 218 81 q 189 68 205 69 m 355 56 q 350 49 353 52 q 346 41 347 46 q 334 38 339 38 q 326 37 330 38 q 315 43 319 39 q 308 52 312 47 q 309 61 311 56 q 312 71 308 66 q 324 81 320 77 q 339 79 331 79 q 351 72 347 79 q 353 64 354 69 q 355 56 353 60 m 354 -38 q 355 -52 355 -47 q 357 -62 355 -56 q 349 -67 353 -65 q 342 -72 346 -69 q 307 -64 317 -75 q 309 -52 308 -57 q 312 -39 309 -46 q 331 -35 326 -33 q 343 -34 336 -37 l 354 -38 z "},"%":{"ha":833,"x_min":41,"x_max":810,"o":"m 193 895 q 176 877 182 879 q 165 872 171 875 q 155 876 161 875 q 144 880 149 878 q 142 890 144 886 q 142 902 140 894 q 147 913 148 911 q 149 916 146 914 q 159 917 156 916 q 170 918 163 918 q 178 913 175 916 q 187 909 180 910 l 193 895 m 669 902 q 672 889 670 894 q 677 879 674 884 q 669 870 674 873 q 659 863 663 867 q 644 863 651 867 q 629 878 635 867 q 631 899 624 888 q 638 903 635 899 q 646 907 642 906 q 661 905 659 905 l 669 902 m 324 842 q 317 831 319 837 q 313 819 316 825 q 300 819 307 819 q 288 818 294 818 q 281 823 286 823 q 274 827 277 823 q 274 838 275 833 q 273 849 273 844 q 287 861 283 860 q 294 863 290 863 q 302 860 298 863 q 312 859 307 857 q 321 845 320 848 q 324 842 321 842 m 90 802 q 87 795 90 798 q 85 787 84 793 q 75 780 79 784 q 66 773 72 776 l 50 779 q 43 788 46 785 q 42 799 41 791 q 46 807 43 804 q 52 815 49 810 q 66 817 58 818 q 79 815 73 817 q 83 808 81 812 q 90 802 85 804 m 590 766 q 595 755 593 764 q 597 741 598 747 q 581 730 585 732 q 570 726 576 727 q 555 736 557 735 q 552 739 553 736 q 549 752 548 751 q 552 755 551 753 l 559 769 q 580 770 575 773 q 590 766 585 766 m 345 757 q 350 748 347 753 q 355 738 353 743 q 353 730 353 735 q 351 722 354 726 q 336 714 342 715 q 327 715 330 713 q 318 721 321 716 q 309 727 315 726 q 313 745 308 739 q 323 757 317 750 q 345 757 331 761 m 56 675 q 71 673 64 673 q 88 674 77 674 q 92 665 85 666 q 103 662 99 665 q 103 654 102 658 q 100 644 104 650 q 78 635 90 642 q 56 637 66 628 q 46 652 49 643 q 51 663 47 659 q 56 675 54 667 m 511 598 q 498 594 499 593 q 496 595 498 595 q 481 594 484 593 q 475 595 479 595 q 470 604 473 600 q 469 614 467 608 q 474 630 472 628 q 479 635 476 632 q 507 631 500 635 q 516 616 515 617 q 517 614 517 616 q 514 606 515 610 q 511 598 513 602 m 288 633 q 316 628 305 635 q 324 606 327 621 q 305 592 309 594 q 294 593 301 590 q 277 612 279 598 q 281 623 277 621 q 288 633 286 624 m 210 568 q 203 558 208 563 q 197 547 199 553 q 175 544 187 543 q 168 551 172 549 q 160 555 163 552 q 158 569 156 564 q 163 576 160 574 q 193 586 183 590 q 206 576 203 578 q 210 568 209 574 m 389 468 q 391 486 388 479 q 400 499 395 492 q 418 500 411 502 q 431 495 425 498 q 435 486 433 490 q 438 479 438 483 q 434 470 438 473 q 431 461 430 467 q 416 455 422 456 q 408 454 411 454 q 389 468 393 464 m 662 389 q 646 380 648 382 q 643 378 644 378 q 628 382 633 377 q 618 393 623 387 q 621 406 618 404 q 621 410 624 407 q 629 416 627 412 q 637 422 631 419 q 650 418 648 422 q 656 414 652 415 q 661 400 658 403 q 662 389 663 397 m 334 315 q 326 320 328 316 q 316 326 323 324 q 311 338 313 332 q 308 353 308 345 q 332 368 324 357 q 347 362 345 362 q 350 359 349 362 q 355 350 353 354 q 359 340 357 346 q 351 326 354 326 q 350 323 349 326 q 341 320 345 323 q 334 315 338 317 m 788 342 q 790 329 791 335 q 792 316 789 323 q 786 311 789 313 q 779 304 783 308 q 751 312 755 304 q 747 331 746 320 q 764 344 761 342 q 770 349 768 346 q 778 344 776 347 q 788 342 780 340 m 547 317 q 544 302 547 305 q 540 298 541 300 q 526 289 529 292 q 519 285 522 286 q 511 290 515 288 q 505 296 507 292 q 502 314 499 311 q 503 324 505 317 q 511 329 509 326 q 519 332 514 332 q 529 330 525 334 q 540 327 533 326 l 547 317 m 791 229 q 805 212 800 222 q 800 191 810 202 q 790 185 793 187 q 784 183 787 183 q 770 187 776 182 q 758 193 765 193 q 758 212 755 205 q 764 227 760 220 q 777 229 770 228 q 791 229 783 229 m 279 220 q 277 211 277 216 q 279 198 278 206 q 272 194 277 195 q 267 186 267 193 q 258 186 263 186 q 252 183 254 186 q 237 187 243 187 q 231 207 229 194 q 239 227 232 220 q 250 227 245 227 q 258 228 254 228 q 273 222 269 221 q 279 220 277 222 m 537 199 q 548 185 543 193 q 551 168 553 178 q 542 162 545 165 q 533 157 538 159 q 517 161 519 161 q 511 161 514 160 q 507 186 505 176 q 521 194 510 197 q 528 199 524 201 q 537 199 532 197 m 731 80 q 718 87 724 83 q 708 98 711 91 q 705 117 705 114 q 739 126 719 127 q 753 114 750 119 q 755 107 755 109 q 753 97 755 100 q 747 88 750 94 q 739 84 742 85 q 731 80 735 83 m 647 80 q 627 63 635 66 q 612 62 618 60 q 602 69 605 64 q 595 80 598 75 q 598 94 597 90 q 601 100 600 98 q 611 106 605 103 q 621 106 617 109 l 636 99 q 644 87 642 91 q 647 80 646 84 m 203 83 q 199 68 201 71 q 198 62 197 66 q 182 50 187 53 q 172 49 178 47 q 161 56 165 50 q 151 61 157 61 q 172 92 155 90 q 203 83 189 94 z "},"&":{"ha":1086,"x_min":83,"x_max":1089,"o":"m 483 983 q 470 984 475 983 q 458 983 465 985 q 445 1004 450 989 q 451 1018 448 1016 q 454 1025 454 1020 q 465 1027 460 1025 q 476 1025 469 1028 q 489 1008 488 1010 q 490 1004 490 1006 q 486 992 490 996 q 483 983 481 989 m 313 949 q 296 956 298 954 q 292 959 294 958 q 290 971 293 971 q 286 974 288 971 q 290 981 288 978 q 292 991 292 985 q 301 994 297 994 q 312 997 305 994 q 323 991 321 1000 q 332 982 326 983 q 330 963 335 970 q 313 949 324 956 m 712 945 q 724 926 719 932 q 722 915 720 916 q 722 911 724 914 q 696 898 709 901 q 690 904 693 901 q 681 907 688 907 q 679 916 681 913 q 675 922 677 918 q 685 937 685 935 q 688 941 685 940 q 712 945 705 941 m 148 880 q 155 892 151 887 q 163 905 159 898 q 188 899 178 907 q 197 879 198 890 q 190 865 190 865 q 172 859 176 857 q 161 863 168 861 q 152 877 152 873 q 148 880 152 880 m 199 715 q 194 703 197 708 q 184 694 191 697 q 174 696 179 696 q 165 697 170 696 q 154 716 156 709 q 155 730 152 723 q 175 741 171 741 q 186 736 179 742 q 194 724 191 731 q 199 715 197 718 m 1080 624 q 1085 589 1089 609 q 1072 579 1074 581 q 1043 590 1054 581 q 1043 606 1047 598 q 1048 614 1046 612 q 1051 623 1051 616 q 1063 624 1058 625 q 1080 624 1069 623 m 217 594 q 230 605 224 597 q 245 612 236 613 q 254 608 251 612 q 263 602 256 605 q 263 593 262 597 q 264 587 264 590 q 258 577 263 581 q 251 567 254 574 q 231 567 236 566 q 217 585 218 582 q 217 594 216 589 m 358 581 q 377 573 373 575 q 383 568 381 571 q 388 562 385 566 q 395 557 391 559 q 390 546 392 552 q 385 534 388 540 q 377 530 382 532 q 368 530 372 528 q 351 540 354 536 q 349 547 349 544 q 358 567 346 562 l 358 581 m 978 505 q 959 513 962 510 q 951 518 956 517 q 949 538 947 534 q 949 545 952 541 q 965 549 956 547 q 981 548 974 551 q 991 517 994 537 q 978 505 986 513 m 228 471 q 212 483 216 481 q 208 487 209 484 q 206 494 206 490 q 206 502 206 499 q 220 517 213 511 q 237 519 227 524 q 248 503 247 506 q 249 494 250 495 q 247 488 248 492 q 235 475 239 476 q 228 471 231 473 m 849 499 q 852 490 852 495 q 857 483 852 484 q 846 462 850 467 q 834 454 842 457 q 823 460 827 457 q 811 465 818 463 q 811 476 814 472 q 810 484 808 480 q 819 494 812 492 q 829 503 826 496 q 838 501 834 503 q 849 499 842 499 m 868 400 q 866 413 869 410 q 864 423 863 416 q 870 437 864 430 q 883 444 876 444 q 901 433 898 438 q 907 420 905 425 q 909 414 909 416 q 898 400 898 400 q 878 397 883 395 q 868 400 872 400 m 747 433 q 754 419 753 425 q 757 404 764 412 q 746 391 750 395 q 738 389 741 391 q 730 391 735 388 q 718 397 723 393 q 713 411 713 401 q 726 431 718 427 q 747 433 735 435 m 119 374 q 106 382 113 378 q 98 392 100 385 q 97 402 99 400 q 98 407 95 404 q 104 414 100 412 q 111 422 109 416 l 126 420 q 137 408 136 410 q 138 406 138 407 q 138 395 140 399 q 136 387 137 391 q 127 381 133 382 q 119 374 122 380 m 686 345 q 692 332 688 336 q 694 317 697 328 q 689 311 690 315 q 685 305 688 308 q 670 300 674 301 q 662 302 666 300 q 655 308 658 305 q 650 312 652 311 q 648 325 650 320 q 650 336 647 330 q 671 349 658 345 l 686 345 m 939 323 q 939 309 937 311 q 941 304 941 307 q 921 275 940 279 q 909 280 911 281 q 903 282 906 279 q 898 298 898 294 q 901 307 898 302 q 907 311 903 309 q 910 320 911 313 q 921 318 916 315 q 932 317 926 321 l 939 323 m 117 275 l 125 262 q 125 254 126 258 q 129 247 123 250 q 123 239 125 244 q 118 232 121 235 q 106 230 111 231 q 98 232 102 229 q 85 245 87 245 q 83 247 84 245 l 83 263 q 104 276 98 277 q 117 275 110 275 m 873 180 q 879 168 876 176 q 878 151 882 159 q 864 137 871 141 q 849 141 849 141 q 838 152 842 145 q 834 165 833 159 q 844 176 844 175 q 846 179 844 176 q 865 181 861 183 q 873 180 869 179 m 168 100 q 161 100 165 102 q 152 99 156 98 q 144 103 148 100 q 137 107 140 106 q 134 117 137 114 q 130 126 132 121 q 138 138 136 136 q 140 142 140 140 q 156 148 156 148 q 170 140 170 140 q 176 120 178 123 q 176 113 175 117 l 168 100 m 713 54 q 723 69 720 69 q 727 71 726 69 q 754 77 739 80 q 763 63 758 71 q 761 45 768 56 q 749 34 753 37 q 739 33 741 34 q 734 34 736 33 q 725 42 728 39 q 720 50 722 45 l 713 54 m 309 54 q 316 35 312 46 q 308 22 320 24 q 288 13 293 11 q 277 18 283 15 q 275 45 267 39 q 289 56 282 52 q 299 56 296 57 q 309 54 302 54 m 620 30 q 616 8 620 12 q 613 -1 613 4 q 597 -8 598 -8 q 582 1 586 -8 q 575 22 578 11 q 581 31 578 28 q 587 39 585 33 q 614 30 609 42 l 620 30 m 456 23 q 461 15 458 18 q 467 7 464 12 q 465 -7 465 -5 q 463 -11 465 -8 q 456 -17 460 -14 q 449 -20 453 -20 q 441 -20 445 -22 q 433 -18 438 -18 q 426 -6 430 -11 q 425 9 422 -1 q 444 22 438 22 q 456 23 449 23 m 637 996 q 642 981 642 981 q 643 978 643 981 q 631 962 632 963 q 628 959 631 962 q 619 958 627 959 q 609 960 612 958 q 597 977 600 971 q 598 990 595 983 q 623 1000 616 1002 q 637 996 629 998 z "},"'":{"ha":241,"x_min":95,"x_max":145,"o":"m 141 963 q 117 962 121 960 q 107 967 113 964 q 103 975 106 971 q 99 983 100 979 q 106 1004 104 1000 q 115 1010 109 1009 q 123 1009 119 1012 q 133 1008 127 1006 q 141 994 137 1002 q 141 978 145 985 l 141 963 m 137 863 q 118 859 127 856 q 103 868 109 861 q 102 895 98 888 q 107 903 102 898 q 115 910 113 909 q 129 905 126 907 q 134 902 132 903 q 144 886 142 897 q 141 876 144 880 q 137 863 138 871 m 121 755 q 106 767 107 762 q 100 774 104 772 q 100 789 95 785 q 106 803 106 793 l 122 808 q 137 802 137 804 q 140 800 137 799 q 140 789 141 795 q 142 780 140 783 q 133 767 140 772 q 121 755 126 762 m 117 705 q 136 700 125 705 q 141 667 142 685 q 134 661 137 665 q 126 656 130 656 q 108 663 117 654 q 100 682 99 671 q 106 697 104 696 l 117 705 z "},"(":{"ha":354,"x_min":83,"x_max":305,"o":"m 300 1032 q 280 1031 283 1029 q 275 1028 277 1032 q 269 1034 271 1031 q 258 1035 266 1038 q 263 1063 263 1047 q 275 1071 270 1067 q 292 1072 281 1074 q 302 1057 298 1061 q 305 1048 305 1054 q 302 1041 305 1044 q 300 1032 298 1038 m 231 940 q 235 930 232 933 q 237 921 237 926 q 233 908 237 913 q 224 898 228 903 q 215 899 220 901 q 208 899 210 898 q 198 911 199 906 q 194 920 197 916 q 203 937 199 935 q 210 943 208 939 q 220 940 217 941 q 231 940 224 939 m 190 783 q 182 768 187 773 q 171 758 176 764 q 157 762 160 762 q 153 765 155 762 q 144 777 149 776 q 144 787 146 785 q 144 795 142 788 q 153 799 148 798 q 160 804 157 800 q 169 804 164 803 q 178 803 174 806 q 184 793 180 799 q 190 783 187 788 m 123 618 q 111 628 111 628 q 110 629 110 628 q 106 644 104 639 q 106 655 107 648 q 112 661 110 658 q 119 665 114 663 q 142 662 130 670 q 151 639 153 654 q 140 626 149 633 q 123 618 132 618 m 114 480 q 103 480 109 481 q 94 481 98 479 q 83 501 83 494 q 84 513 83 509 q 90 520 85 518 q 96 525 94 522 q 108 524 103 526 q 118 524 113 522 q 126 512 123 519 q 126 494 129 505 q 114 480 117 481 m 141 359 q 136 351 138 353 q 132 345 133 349 q 122 345 125 347 q 114 340 119 343 q 96 354 102 345 q 94 369 96 363 q 105 386 98 382 q 119 388 113 389 q 129 382 126 387 q 134 370 132 377 l 141 359 m 146 247 q 172 241 163 250 q 178 220 182 233 q 171 208 171 210 q 168 205 171 206 q 157 202 165 203 q 144 203 149 201 q 134 216 136 213 q 133 228 132 220 q 142 244 141 241 q 146 247 144 247 m 237 85 q 232 71 232 76 q 209 62 214 61 q 195 65 203 62 q 187 79 193 68 q 189 99 186 85 q 200 106 197 106 q 201 110 203 107 q 217 107 210 111 q 231 99 224 103 q 231 89 232 95 q 237 85 231 83 m 297 -27 q 300 -47 301 -37 q 292 -62 298 -58 q 267 -58 271 -68 q 256 -43 255 -46 q 258 -37 258 -41 q 267 -26 264 -31 q 282 -22 270 -20 q 290 -26 288 -23 q 297 -27 292 -30 z "},")":{"ha":354,"x_min":49,"x_max":271,"o":"m 54 1032 q 52 1041 56 1038 q 49 1048 49 1044 q 52 1057 49 1054 q 57 1067 56 1061 q 78 1071 72 1074 q 91 1063 84 1067 l 95 1035 q 85 1034 87 1038 q 79 1028 83 1031 q 60 1031 64 1029 q 54 1032 57 1032 m 123 940 q 134 940 130 939 q 144 943 137 941 q 151 937 146 939 q 157 932 155 935 q 156 911 157 916 q 152 902 155 906 q 138 899 142 898 q 130 898 134 901 q 121 908 125 903 q 117 921 117 913 q 119 930 117 926 q 123 940 122 933 m 164 783 q 170 793 167 788 q 175 803 172 799 q 185 804 180 806 q 194 804 190 803 q 202 799 197 800 q 210 795 208 798 q 210 787 212 788 q 209 777 208 785 q 197 762 199 762 q 194 760 194 762 q 172 768 176 764 q 164 783 167 773 m 231 618 q 214 626 222 618 q 205 639 206 633 q 213 662 202 654 q 235 665 224 670 q 242 661 240 663 q 248 655 244 658 q 248 644 247 648 q 248 633 250 639 q 235 623 239 623 l 231 618 m 240 480 q 231 491 232 488 q 228 494 231 494 q 228 512 225 505 q 236 524 231 519 q 246 524 241 522 q 258 525 251 526 q 264 520 260 522 q 270 513 267 518 q 271 501 271 509 q 270 490 271 494 q 251 480 256 479 q 240 480 245 481 m 213 359 q 224 382 222 377 q 233 388 227 387 q 248 386 240 389 q 258 380 255 382 q 258 365 259 366 q 255 361 258 363 q 240 340 252 345 q 232 345 235 343 q 222 345 229 347 q 218 351 221 349 q 217 359 216 353 l 213 359 m 209 247 q 218 235 220 237 q 218 232 217 233 q 220 216 222 220 q 216 210 218 213 q 197 202 206 201 q 186 205 189 203 q 176 220 176 217 q 181 241 172 233 q 209 247 190 250 m 117 85 q 123 89 123 83 q 123 99 122 95 q 137 107 130 103 q 153 110 144 111 q 163 100 161 99 q 165 99 164 100 q 167 79 168 85 q 159 65 161 68 q 145 62 152 62 q 132 64 138 61 q 122 73 121 72 q 122 76 123 75 l 117 85 m 57 -27 q 87 -26 85 -20 q 96 -37 90 -31 q 98 -43 96 -41 q 98 -52 99 -46 q 69 -65 81 -68 q 54 -47 56 -58 q 57 -27 53 -37 z "},"*":{"ha":736,"x_min":81,"x_max":652,"o":"m 395 960 q 384 960 388 959 q 373 962 380 962 q 366 975 368 971 q 361 981 363 978 q 364 991 362 987 q 369 1000 366 994 q 387 1002 384 1004 q 396 1000 391 1001 q 401 993 399 997 q 407 985 404 989 q 395 960 403 968 m 400 911 q 401 902 397 905 q 408 894 406 899 q 401 878 408 882 q 384 871 393 873 q 373 876 378 873 q 361 879 368 879 q 362 897 359 891 q 366 910 365 903 q 400 911 391 917 m 127 821 q 121 812 126 814 q 114 807 117 810 q 103 807 107 806 q 92 808 99 808 q 83 825 85 815 q 88 844 81 836 q 103 848 95 846 q 118 846 111 850 q 123 833 121 840 q 127 821 125 827 m 646 833 q 648 825 647 829 q 652 818 650 821 q 647 805 647 807 q 644 802 647 803 q 633 795 636 793 q 628 792 631 796 q 614 800 616 800 q 613 802 613 800 q 610 812 609 810 q 606 815 612 815 q 612 833 610 825 q 629 838 618 836 q 646 833 639 840 m 222 810 q 216 793 218 795 q 216 789 213 792 q 208 786 210 789 q 203 780 206 783 q 185 783 191 779 q 174 793 179 788 q 176 808 175 803 q 180 819 176 812 q 197 828 191 830 q 209 825 202 826 q 212 817 208 818 q 216 811 216 817 l 222 810 m 567 807 q 569 795 566 799 q 570 783 572 791 q 553 764 559 766 q 544 766 548 765 q 533 766 540 768 q 531 783 536 774 q 525 799 526 792 q 533 806 528 804 q 541 811 538 807 q 556 811 551 812 q 567 807 562 810 m 406 826 q 406 802 400 811 q 397 791 400 798 q 388 784 395 785 q 380 787 384 784 q 370 787 377 789 q 362 804 362 793 q 366 825 362 814 q 374 827 369 826 q 382 830 380 827 q 391 828 387 829 q 397 825 395 827 l 406 826 m 311 780 q 311 772 308 776 q 312 762 313 768 q 306 752 305 754 q 305 749 307 750 q 285 746 300 746 q 270 758 281 750 l 270 776 q 277 783 274 779 q 285 791 281 788 q 294 788 292 791 q 304 788 297 785 l 311 780 m 487 761 q 475 741 488 745 q 469 734 473 735 q 461 731 465 732 q 452 737 457 734 q 445 745 448 741 q 446 760 446 751 q 452 772 445 768 l 469 774 q 481 767 483 768 q 480 764 480 766 l 487 761 m 361 712 q 362 724 362 718 q 363 732 362 730 q 378 742 377 741 q 391 744 387 743 q 397 742 395 745 q 405 725 403 730 q 407 716 407 720 q 401 701 407 707 q 374 700 381 694 q 361 712 366 705 m 449 677 q 476 665 463 673 q 478 646 479 650 q 473 642 477 642 q 462 631 463 632 q 460 629 461 629 q 444 635 448 631 q 436 650 435 644 q 433 661 437 656 q 442 668 437 666 q 449 677 448 670 m 335 670 q 337 657 332 661 q 340 646 342 654 q 331 632 335 632 q 316 625 319 624 q 311 624 313 627 q 299 636 298 635 q 298 640 300 637 q 296 655 297 651 q 298 663 296 659 q 317 671 305 669 q 335 670 328 673 m 274 590 q 274 575 275 576 q 275 571 273 574 q 270 564 273 567 q 266 557 267 562 q 250 559 255 555 q 236 562 245 563 q 228 586 229 571 q 235 593 231 590 q 243 601 239 597 q 274 590 263 601 m 556 572 q 547 564 549 568 q 540 555 544 559 q 532 554 534 556 q 525 552 529 552 q 512 566 514 563 q 507 572 510 570 q 509 583 507 579 q 511 593 511 587 q 528 597 526 598 q 532 600 530 597 q 540 595 536 595 q 548 590 544 595 q 553 580 553 585 q 556 572 553 575 m 193 486 q 184 486 187 484 q 178 490 182 487 q 164 513 163 503 q 165 529 165 522 q 194 532 179 533 q 205 515 203 528 q 198 496 206 503 l 193 486 m 621 515 q 621 504 620 505 q 621 500 621 503 q 618 495 620 498 q 614 487 616 492 q 603 481 604 483 q 600 479 602 480 q 581 486 582 481 q 578 495 582 494 q 578 503 575 496 q 583 514 583 511 q 585 519 583 517 q 595 522 591 519 q 605 525 598 525 q 613 520 612 525 q 621 515 614 515 z "},"+":{"ha":651,"x_min":69,"x_max":582,"o":"m 343 736 q 345 716 346 722 q 340 705 343 711 q 332 698 338 701 q 317 699 327 694 q 302 718 302 712 q 304 732 301 723 q 319 741 315 739 q 327 742 323 742 q 336 737 332 741 q 343 736 339 734 m 349 597 q 338 586 346 589 q 320 581 331 583 q 311 587 313 583 q 302 591 309 591 q 301 603 302 598 q 302 614 300 608 q 312 623 308 618 q 324 625 316 627 q 332 622 328 625 q 339 618 335 618 q 345 605 342 608 q 349 597 347 602 m 454 509 q 460 498 457 503 q 463 484 464 492 q 456 471 463 477 q 441 465 450 464 q 422 479 430 467 q 422 502 414 492 q 442 510 437 511 q 454 509 448 509 m 543 513 q 556 509 552 510 q 570 507 560 509 q 581 495 581 494 q 581 487 582 491 q 582 480 579 483 q 573 472 578 475 q 566 463 568 469 q 555 464 559 463 q 544 465 551 465 q 541 473 544 471 q 534 480 537 476 q 534 488 533 486 q 533 495 536 491 q 538 503 534 500 q 543 513 543 506 m 311 511 q 332 510 330 511 q 345 484 347 495 q 342 470 345 473 q 335 464 339 467 q 319 464 319 464 q 310 471 315 467 q 302 479 305 476 q 302 488 301 483 q 302 496 304 492 q 308 504 308 499 q 311 511 308 509 m 98 464 q 82 469 84 468 q 76 471 80 471 q 69 500 69 479 q 96 510 85 513 q 105 505 102 509 q 113 500 109 502 q 111 477 115 486 q 98 464 106 469 m 224 505 q 229 490 231 491 q 228 487 228 488 q 227 474 229 477 q 222 467 224 471 q 212 465 220 467 q 199 465 203 464 q 192 471 195 468 q 186 477 189 475 q 185 490 184 484 q 187 499 186 495 q 194 504 191 500 q 201 509 197 507 q 213 509 212 510 q 217 506 214 507 l 224 505 m 332 349 q 326 349 328 346 q 317 349 324 351 q 312 354 316 353 q 305 358 308 355 q 304 368 304 362 q 301 377 304 373 q 309 387 304 384 q 316 395 313 389 q 327 393 321 393 q 338 393 332 393 q 349 381 345 388 q 347 371 346 376 q 346 359 349 366 q 339 355 343 357 q 332 349 335 353 m 349 247 q 338 239 342 244 q 328 233 335 235 q 319 237 323 233 q 308 240 315 240 q 303 260 301 255 q 305 269 305 264 q 317 278 313 273 q 330 275 324 277 q 340 273 335 274 q 345 260 343 266 q 349 247 346 254 z "},",":{"ha":187,"x_min":-14,"x_max":146,"o":"m 140 65 q 123 62 133 62 q 107 64 114 61 q 100 74 102 69 q 100 90 98 79 q 106 98 102 94 q 113 104 110 102 q 127 101 121 104 q 141 94 133 98 q 143 73 146 75 q 140 65 140 71 m 65 -22 q 68 -15 68 -18 q 66 -5 68 -12 q 79 6 71 1 q 99 7 88 11 q 114 -11 114 -7 q 114 -20 114 -15 q 104 -31 107 -27 q 98 -37 102 -35 q 79 -34 81 -34 q 75 -33 76 -34 l 65 -22 m 39 -130 q 33 -117 35 -125 q 30 -102 31 -110 q 64 -90 42 -87 q 75 -100 66 -95 q 74 -114 75 -109 q 75 -126 73 -119 q 60 -133 71 -133 q 39 -130 49 -133 m 16 -247 l 0 -247 q -14 -229 -11 -239 q -10 -220 -12 -224 q -11 -210 -8 -216 q 15 -203 4 -199 q 30 -212 26 -206 q 31 -220 30 -213 q 33 -231 33 -228 q 26 -240 31 -237 q 16 -247 20 -243 z "},"-":{"ha":495,"x_min":68,"x_max":426,"o":"m 118 506 q 121 491 121 491 q 122 490 122 491 q 119 480 122 484 q 114 469 117 476 q 106 465 110 468 q 99 461 103 463 q 90 463 92 463 q 84 465 88 463 q 75 469 80 468 q 69 477 71 471 q 71 486 68 481 q 73 496 75 490 q 87 505 77 502 q 103 505 96 509 q 111 505 107 505 q 118 506 115 506 m 218 502 q 222 481 225 491 q 213 465 220 472 q 193 461 198 460 q 184 464 187 463 q 177 470 182 465 q 172 477 172 475 q 176 492 174 488 q 179 498 178 495 q 184 504 182 500 q 194 507 187 507 q 205 505 199 509 q 218 502 212 502 m 326 483 q 315 469 320 471 q 307 463 309 468 q 292 463 297 458 q 279 468 288 468 l 273 484 q 275 499 275 499 q 292 505 286 506 q 301 507 298 505 q 313 496 308 503 q 326 483 319 488 m 374 479 q 378 490 377 486 q 381 500 378 495 q 397 505 389 503 q 414 505 404 507 q 420 498 416 500 q 425 490 423 495 q 418 471 426 479 q 399 463 410 463 q 387 468 389 468 q 384 469 385 468 l 374 479 z "},".":{"ha":189,"x_min":65,"x_max":121,"o":"m 103 110 q 115 102 113 104 q 119 96 117 99 q 117 86 117 92 q 114 77 117 80 q 102 68 103 66 q 80 72 83 69 q 72 75 77 75 q 73 103 65 91 q 103 110 84 110 m 113 -16 l 91 -20 q 77 -14 79 -16 q 72 -12 76 -11 q 71 -2 69 -7 q 73 5 72 3 q 83 19 76 19 q 96 23 91 19 q 108 16 103 20 q 117 8 113 12 q 113 -16 121 -4 z "},"/":{"ha":568,"x_min":42,"x_max":526,"o":"m 510 1016 q 520 1008 517 1013 q 526 997 524 1002 q 506 970 525 977 q 499 972 502 971 q 490 972 496 974 q 484 981 487 978 q 477 987 480 983 q 493 1007 486 1001 q 510 1016 500 1013 m 416 856 q 429 868 422 863 q 450 872 435 873 q 455 867 454 869 q 458 859 456 864 q 460 839 464 845 q 454 833 456 833 q 444 829 449 829 q 435 833 439 830 q 427 829 433 827 q 418 833 420 830 q 416 844 418 840 q 416 856 415 849 m 347 722 q 388 731 363 735 q 391 722 391 728 q 395 715 391 716 q 390 702 389 704 q 389 699 391 700 q 374 688 378 689 q 362 688 369 688 q 347 707 350 701 q 347 722 345 712 m 290 578 q 307 588 298 586 q 317 590 315 590 q 335 583 331 590 q 341 569 342 571 q 340 564 340 567 q 333 554 336 556 q 327 551 330 552 q 308 547 313 544 q 301 552 304 548 q 294 557 298 556 q 292 568 293 564 q 290 578 290 571 m 228 438 q 256 448 237 448 q 279 433 274 449 q 269 415 278 420 q 261 410 264 412 q 252 406 258 407 q 232 415 241 406 q 229 427 231 422 q 228 438 228 431 m 172 304 q 195 308 183 308 q 214 300 208 308 q 216 278 216 293 q 208 271 210 275 q 198 264 205 267 q 189 264 194 262 q 180 263 184 266 q 176 270 180 269 q 168 274 171 271 q 167 291 165 285 q 172 304 168 297 m 117 121 q 105 142 104 134 q 110 157 106 151 q 122 162 117 160 q 134 167 127 164 q 141 163 137 164 q 148 160 145 163 q 153 145 153 151 q 155 136 152 140 q 142 127 148 132 q 129 121 137 122 l 117 121 m 43 12 q 57 22 56 15 q 66 22 64 20 q 75 23 69 24 q 81 19 77 20 q 90 15 85 18 q 91 6 88 8 q 92 -3 94 4 q 85 -11 87 -5 q 76 -18 83 -16 q 46 -16 60 -22 q 43 0 43 -5 q 43 12 42 5 z "},":":{"ha":244,"x_min":96,"x_max":151,"o":"m 146 674 q 140 665 144 667 q 140 654 137 662 q 124 649 127 651 q 115 648 121 647 q 99 670 104 666 q 102 677 102 673 q 106 685 103 681 q 118 690 111 688 q 132 689 125 692 q 144 678 141 680 q 146 674 146 677 m 111 606 q 126 603 123 605 q 133 600 129 601 q 148 583 140 591 q 143 576 148 578 q 140 568 138 575 q 121 563 125 566 q 111 563 118 560 q 104 571 109 568 q 98 579 100 574 q 101 595 102 593 q 102 598 100 597 l 111 606 m 130 110 q 142 102 140 104 q 148 96 144 99 q 145 86 145 92 q 142 77 145 80 q 132 66 138 69 q 121 68 122 69 q 117 66 121 66 q 110 72 113 69 q 100 75 107 75 q 102 103 96 92 q 130 110 115 110 m 141 -16 l 118 -20 q 106 -14 107 -16 q 100 -12 104 -11 q 99 -2 98 -7 q 102 5 100 3 q 113 19 106 19 q 123 23 119 19 q 135 16 130 20 q 146 8 140 12 q 141 -16 151 -5 z "},";":{"ha":274,"x_min":0,"x_max":176,"o":"m 176 654 q 161 632 167 635 q 144 631 146 631 q 141 632 142 632 q 127 650 132 647 q 130 657 127 655 q 132 665 133 659 q 148 674 138 674 q 168 663 163 666 q 176 654 174 661 m 132 556 q 129 570 130 568 q 127 576 127 572 q 132 589 132 587 q 133 591 133 590 q 165 593 155 598 q 176 579 175 587 q 175 572 176 574 q 174 563 174 570 q 152 551 159 552 q 138 552 145 549 l 132 556 m 155 65 q 138 62 148 62 q 121 64 127 61 q 113 74 115 69 q 114 90 111 79 q 119 98 115 94 q 126 104 123 102 q 140 101 134 104 q 156 94 146 98 q 157 73 160 75 q 155 65 155 71 m 79 -22 q 81 -15 81 -18 q 80 -5 81 -12 q 93 6 84 1 q 113 7 102 11 q 127 -11 127 -7 q 127 -20 127 -15 q 118 -31 121 -27 q 111 -37 115 -35 q 94 -34 96 -34 q 90 -33 91 -34 q 83 -27 84 -31 q 79 -22 81 -23 m 53 -130 q 47 -117 49 -125 q 43 -102 45 -110 q 77 -90 56 -87 q 90 -100 80 -96 q 89 -114 90 -109 q 90 -126 88 -119 q 73 -133 84 -133 q 53 -130 62 -133 m 31 -247 l 14 -247 q 0 -229 3 -239 q 3 -220 1 -224 q 3 -210 5 -216 q 29 -203 18 -199 q 43 -212 41 -206 q 45 -220 43 -213 q 46 -231 46 -228 q 40 -240 45 -237 q 31 -247 35 -243 z "},"<":{"ha":732,"x_min":54,"x_max":650,"o":"m 631 629 q 616 637 621 635 q 606 650 610 646 q 620 678 604 669 q 648 662 640 675 q 646 648 646 655 q 639 642 647 642 l 631 629 m 604 183 q 606 201 604 198 q 609 209 609 205 q 637 217 632 213 q 646 202 647 205 q 644 195 644 199 q 647 186 650 191 q 643 178 644 182 q 634 172 636 175 q 621 171 632 168 q 608 181 610 182 q 604 183 605 180 m 511 597 q 505 589 509 591 q 500 581 502 587 q 492 579 495 582 q 487 574 490 576 q 476 577 480 576 q 468 585 472 578 q 465 603 463 598 q 468 614 467 608 q 481 618 475 616 q 495 618 487 621 q 506 606 505 608 q 507 598 507 604 l 511 597 m 488 224 q 469 225 475 225 l 461 256 q 471 264 468 259 q 479 271 475 269 q 486 269 484 271 q 495 264 488 266 q 500 245 499 250 q 500 237 502 241 q 494 231 498 233 q 488 224 490 229 m 350 517 q 338 523 340 524 q 334 524 336 522 q 328 541 328 537 q 326 551 327 545 q 339 563 331 557 q 357 563 347 568 q 369 547 368 551 q 369 537 370 543 q 359 525 359 528 l 350 517 m 327 282 q 322 297 326 289 q 326 312 319 305 q 332 316 328 315 q 338 321 335 317 q 347 320 345 320 q 355 320 349 320 q 363 305 362 307 q 363 301 365 304 q 357 283 358 285 q 354 279 355 282 q 340 277 346 275 q 327 282 334 279 m 235 481 q 222 468 224 471 q 217 463 220 465 q 195 472 202 465 q 192 490 193 486 q 194 500 191 495 q 210 509 205 503 q 220 506 216 507 q 228 507 224 505 q 230 496 227 499 q 231 486 233 492 l 235 481 m 229 349 q 218 342 221 347 q 208 335 214 336 q 188 344 193 332 q 189 370 183 355 q 200 377 194 373 q 214 381 206 381 q 221 369 221 372 q 222 363 221 366 q 227 357 228 359 q 229 349 227 354 m 95 418 q 75 404 85 406 q 58 415 62 404 q 57 441 54 426 q 70 446 64 444 q 83 446 76 449 q 91 433 91 442 q 96 427 98 433 q 95 418 95 422 z "},"=":{"ha":602,"x_min":68,"x_max":533,"o":"m 118 369 q 121 355 121 355 q 122 354 122 355 q 119 343 122 347 q 114 334 117 339 q 106 330 110 332 q 99 326 103 327 q 90 326 92 327 q 84 330 88 326 q 75 334 80 332 q 69 342 71 335 q 71 350 68 346 q 73 359 75 354 q 87 368 77 363 q 103 368 96 372 q 118 369 114 368 m 529 369 q 532 355 530 355 q 533 354 533 355 q 529 343 532 347 q 525 334 526 339 q 517 330 521 332 q 509 326 513 327 q 486 334 491 332 q 480 342 481 335 q 481 350 479 346 q 483 359 484 354 q 498 368 488 363 q 514 368 507 372 q 529 369 524 368 m 218 363 q 222 345 225 354 q 213 330 220 336 q 193 325 198 324 q 184 328 187 326 q 177 334 182 330 q 172 342 172 339 q 176 355 174 353 q 179 361 178 358 q 184 366 182 363 q 194 370 187 369 q 205 368 199 370 q 218 363 212 365 m 326 347 q 315 332 320 334 q 307 327 309 331 q 292 327 297 321 q 279 332 288 332 l 273 349 q 279 363 277 363 q 281 366 282 363 q 292 367 286 368 q 301 369 298 366 q 313 359 308 366 q 326 347 319 353 m 374 343 q 378 353 377 349 q 381 362 378 358 q 414 368 396 369 q 420 360 416 363 q 425 353 423 357 q 418 334 426 343 q 399 327 410 326 q 387 332 389 331 q 384 332 385 332 l 374 343 m 118 595 q 119 571 122 575 q 114 562 117 567 q 106 557 110 560 q 99 553 103 555 q 90 554 92 555 q 84 556 88 553 q 75 561 80 559 q 69 570 71 563 q 71 578 68 574 q 73 587 75 582 q 87 595 77 591 q 103 595 96 598 l 118 595 m 529 595 q 529 571 532 575 q 525 562 526 567 q 517 557 521 560 q 509 553 513 555 q 486 561 491 559 q 480 570 481 563 q 481 578 479 574 q 483 587 484 582 q 498 595 488 591 q 514 595 507 598 l 529 595 m 218 591 q 222 572 225 582 q 213 557 220 563 q 193 553 198 552 q 184 555 187 553 q 177 562 182 556 q 172 570 172 567 q 176 582 174 579 q 179 587 178 585 q 194 598 183 597 q 205 595 199 598 q 218 591 212 593 m 326 575 q 315 560 320 562 q 307 555 309 559 q 292 554 297 548 q 279 560 288 560 l 273 576 q 279 591 277 591 q 281 594 282 591 q 292 595 286 595 q 301 597 298 594 q 313 587 308 594 q 326 575 319 581 m 374 571 q 378 581 377 576 q 381 590 378 586 q 397 595 389 593 q 414 595 404 597 q 420 587 416 590 q 425 581 423 585 q 418 562 426 571 q 399 553 410 553 q 384 560 388 560 l 374 571 z "},">":{"ha":732,"x_min":83,"x_max":678,"o":"m 102 629 q 85 648 85 642 q 83 662 85 655 q 113 678 95 677 q 126 650 126 670 q 117 637 122 646 q 102 629 107 629 m 127 183 q 111 171 115 171 q 98 172 100 168 q 90 178 96 175 q 85 186 88 182 q 88 195 83 191 q 92 212 88 212 q 95 217 95 213 q 111 216 102 214 q 125 201 123 205 q 127 195 127 198 l 127 183 m 222 597 q 227 606 225 604 q 229 613 228 608 q 252 618 245 621 q 264 614 258 616 q 269 603 267 608 q 269 593 270 598 q 256 577 259 578 q 244 574 252 576 q 228 589 231 587 q 222 597 225 591 m 243 224 q 238 231 241 229 q 232 237 235 233 q 233 245 232 241 q 231 252 233 250 q 245 269 243 266 q 252 271 248 271 q 260 264 256 269 q 271 256 264 259 l 271 236 q 256 222 258 225 l 243 224 m 384 517 q 373 528 372 526 q 362 547 361 543 q 366 553 363 551 q 394 563 385 568 q 407 551 403 557 q 406 532 406 544 q 395 523 396 522 q 392 522 393 524 l 384 517 m 407 282 q 393 277 399 279 q 378 279 387 275 q 368 291 370 289 q 366 296 366 293 q 372 312 373 311 q 373 315 372 313 q 386 320 384 320 q 395 321 388 320 q 401 316 397 317 q 408 312 404 315 q 410 297 412 305 q 407 282 407 289 m 502 486 q 503 496 499 492 q 505 507 506 499 q 513 506 509 505 q 522 509 517 507 q 537 500 528 503 q 539 490 540 495 q 538 481 538 486 q 515 463 530 465 q 503 477 505 476 q 498 481 500 479 l 502 486 m 505 349 q 510 363 507 363 q 516 378 515 378 q 518 381 517 378 q 532 377 526 381 q 543 370 537 373 q 545 344 549 355 q 525 335 540 332 q 515 342 518 336 q 505 349 513 347 m 637 418 q 637 427 639 422 q 642 433 636 433 q 644 441 642 438 q 648 446 646 444 q 662 446 655 449 q 675 441 669 444 q 675 415 678 426 q 656 404 671 404 q 637 418 647 406 z "},"?":{"ha":745,"x_min":56,"x_max":685,"o":"m 308 991 q 293 994 298 991 q 282 1000 288 997 q 280 1008 281 1004 q 278 1019 279 1012 q 290 1030 290 1031 q 294 1031 290 1029 q 314 1029 312 1032 q 323 1023 316 1025 q 321 1004 327 1010 q 308 991 315 997 m 465 986 q 453 985 457 985 q 442 987 449 986 q 434 1000 438 994 q 433 1017 430 1006 q 440 1021 438 1017 q 445 1027 442 1024 q 460 1028 457 1027 q 467 1028 463 1029 q 477 1011 477 1015 q 477 1005 477 1008 q 473 994 477 998 q 465 986 468 990 m 182 985 q 184 976 180 978 q 193 971 189 974 q 190 959 190 963 q 184 948 190 955 q 166 942 172 939 q 153 948 160 945 q 149 958 152 952 q 148 968 145 963 q 155 977 151 974 q 163 983 160 979 q 172 983 168 985 q 182 985 176 982 m 621 920 q 610 915 618 914 q 601 907 601 916 q 591 908 594 906 q 582 909 587 910 q 575 926 576 922 q 574 932 574 929 q 588 943 576 941 q 612 943 600 945 q 616 933 614 940 q 621 920 618 926 m 98 892 q 102 871 103 878 q 100 857 100 865 q 82 850 94 849 q 58 854 71 852 q 56 868 57 865 q 56 873 56 871 q 69 888 58 884 q 85 892 80 890 q 98 892 91 895 m 681 792 q 680 783 678 788 q 680 776 681 779 q 672 767 673 769 q 665 764 671 765 q 656 763 659 762 q 646 764 652 764 q 638 776 639 770 q 635 792 637 781 q 647 802 640 798 q 663 804 654 807 q 677 795 675 795 l 681 792 m 674 604 q 659 604 665 602 q 646 605 654 605 q 641 615 643 609 q 635 624 639 621 q 638 638 637 640 q 642 637 639 636 q 665 643 655 646 q 681 636 674 640 q 682 625 685 629 q 682 614 680 621 l 674 604 m 583 465 q 587 489 582 486 q 594 499 591 492 q 603 498 597 498 q 612 499 609 499 q 618 494 614 496 q 624 490 623 492 q 627 477 627 477 q 628 473 628 476 q 623 465 623 467 q 620 460 623 463 q 602 458 605 458 q 595 457 598 457 l 583 465 m 513 381 q 499 373 503 378 q 491 374 496 376 q 481 373 486 372 q 470 387 473 384 q 467 391 467 389 q 473 406 471 404 q 476 412 476 407 q 497 412 487 412 q 511 406 507 412 q 514 397 513 404 q 514 388 515 391 l 513 381 m 339 366 q 365 366 351 372 q 379 357 377 359 q 382 350 381 354 q 371 332 378 339 q 347 328 363 324 q 336 341 335 339 q 336 346 336 343 q 339 366 336 355 m 374 245 q 382 230 381 233 q 381 224 382 227 q 376 216 377 217 q 372 212 374 214 q 363 207 368 208 q 358 203 359 206 q 342 216 345 212 q 334 222 340 221 q 338 235 334 232 q 345 245 342 239 q 359 248 351 250 q 374 245 368 247 m 354 68 l 340 76 q 336 93 335 91 q 339 100 336 95 q 350 111 349 109 q 354 115 351 114 q 374 103 372 106 q 378 84 378 92 q 372 72 378 76 q 354 68 358 75 m 368 16 q 374 8 370 14 q 380 -3 378 3 q 375 -16 374 -14 q 373 -18 376 -18 q 361 -21 366 -19 q 349 -22 357 -23 q 338 -7 340 -16 q 340 5 336 4 q 345 14 343 7 q 356 16 351 14 q 368 16 361 18 z "},"@":{"ha":1210,"x_min":83,"x_max":1126,"o":"m 693 979 q 677 975 684 978 q 663 981 670 971 q 657 991 655 989 q 662 998 659 994 l 674 1009 l 690 1009 q 699 991 697 998 q 693 979 700 983 m 499 1001 q 522 1003 515 1005 q 529 996 528 1001 q 526 975 529 977 q 519 967 522 972 q 509 968 513 966 q 498 970 505 971 q 492 983 491 979 q 491 990 494 987 l 499 1001 m 857 943 q 848 936 853 939 q 842 926 844 933 q 832 929 836 926 q 822 930 829 932 q 818 944 821 937 q 818 958 815 951 q 824 964 821 962 q 830 968 827 966 q 838 967 833 967 q 845 966 842 967 l 856 955 l 857 943 m 339 917 q 340 933 338 932 q 345 937 343 935 q 357 947 354 945 q 363 949 361 949 q 380 933 380 940 l 374 918 q 351 912 358 911 q 339 917 345 913 m 964 838 q 951 837 956 837 q 940 841 947 837 q 932 855 935 853 q 932 861 930 857 q 943 872 935 868 q 960 873 952 876 q 968 858 970 867 q 964 838 967 849 m 251 808 q 228 806 232 806 q 217 808 224 806 q 216 820 217 814 q 221 829 214 826 q 237 840 233 842 q 248 841 241 838 q 254 820 258 827 q 251 808 251 812 m 119 526 q 96 523 102 522 q 84 526 91 524 q 83 537 84 530 q 90 547 83 544 q 106 558 102 560 q 117 557 110 556 q 123 537 126 544 q 119 526 119 530 m 617 724 q 604 717 608 718 q 600 713 601 716 q 591 717 594 715 q 582 719 589 719 q 577 729 581 724 q 575 738 574 734 q 588 751 587 749 q 591 754 589 753 q 613 747 608 747 q 617 724 620 736 m 1051 760 q 1055 751 1055 757 q 1057 739 1055 745 l 1046 727 q 1036 723 1039 724 q 1029 724 1032 722 q 1023 732 1024 730 q 1020 736 1023 735 q 1023 748 1021 743 q 1028 758 1025 753 q 1040 761 1034 765 q 1051 760 1047 757 m 692 696 q 686 707 685 704 q 689 718 686 711 q 719 722 708 731 q 724 716 720 720 q 727 707 727 712 q 711 692 713 694 q 707 689 709 689 q 697 690 700 688 q 692 696 694 692 m 502 711 q 498 701 499 704 q 495 690 498 697 q 483 688 488 689 q 471 688 477 688 q 465 713 460 705 q 484 721 479 723 q 494 722 488 719 l 502 711 m 845 703 q 839 696 838 700 q 837 685 840 692 q 821 686 822 685 q 819 686 821 686 l 806 694 q 814 719 810 711 q 825 721 821 719 q 836 720 829 723 q 840 711 838 716 q 845 703 842 707 m 791 636 q 769 624 776 625 q 751 635 758 620 q 766 653 761 651 q 774 658 770 655 q 789 650 784 658 q 791 636 793 643 m 160 678 q 125 677 130 671 q 125 699 121 693 q 136 707 130 704 q 144 707 138 707 q 153 707 149 708 q 159 697 156 703 q 157 685 161 692 l 160 678 m 420 635 q 431 620 426 620 q 427 609 429 609 q 422 606 425 609 l 410 597 q 395 602 395 600 q 391 605 395 605 q 390 615 391 612 q 391 624 389 618 q 398 630 393 627 q 406 636 403 633 q 413 635 411 636 q 420 635 415 633 m 1093 587 q 1085 591 1088 589 q 1077 594 1082 594 q 1076 610 1074 598 q 1081 623 1081 623 q 1082 625 1081 624 q 1092 627 1084 625 q 1104 628 1100 629 q 1112 618 1109 621 q 1112 612 1115 616 q 1108 601 1111 602 q 1108 597 1105 600 q 1101 592 1104 594 q 1093 587 1097 590 m 827 578 q 829 569 830 574 q 834 563 829 564 q 827 546 830 548 q 822 540 823 544 q 803 542 807 541 q 796 544 799 543 q 796 575 789 559 q 812 579 803 578 q 827 578 821 581 m 366 503 q 351 503 355 500 q 353 519 351 518 q 354 521 354 519 q 363 534 357 530 q 378 536 369 537 q 385 531 381 534 q 389 525 389 528 q 385 506 392 515 q 366 503 377 496 m 1115 503 q 1124 488 1122 488 q 1126 484 1126 488 q 1112 470 1114 473 q 1108 465 1111 467 q 1095 467 1101 467 q 1086 473 1089 468 q 1083 488 1082 484 q 1084 496 1084 492 q 1097 502 1090 499 q 1115 503 1104 505 m 140 399 q 131 380 134 382 q 127 373 127 378 q 102 381 109 373 q 101 389 102 385 q 102 397 100 393 q 120 410 113 410 q 132 408 127 410 l 140 399 m 827 414 q 805 414 810 411 q 796 423 800 416 q 802 445 799 441 q 807 452 804 449 q 831 445 823 453 q 832 427 831 429 q 833 423 833 426 l 827 414 m 396 389 q 387 369 393 374 q 376 369 381 370 q 366 368 372 368 q 359 382 359 376 q 361 399 359 389 q 373 404 366 401 q 389 404 380 407 l 396 389 m 1072 374 q 1084 376 1078 374 q 1096 374 1089 377 q 1101 364 1099 370 q 1101 351 1104 358 q 1087 338 1090 339 q 1081 338 1084 338 q 1063 350 1063 345 q 1069 366 1063 365 l 1072 374 m 758 351 q 756 334 758 340 q 750 321 754 328 q 736 321 742 319 q 724 326 731 323 q 726 350 720 338 q 736 355 732 350 q 743 359 739 359 q 751 356 749 359 q 758 351 753 353 m 806 296 q 814 309 815 308 q 829 316 827 316 q 837 315 833 316 q 844 311 841 313 q 844 294 846 297 q 842 289 841 292 q 826 281 836 283 q 810 287 811 283 q 806 296 808 290 m 481 305 q 483 286 484 292 q 479 277 481 279 q 463 270 467 271 q 456 270 460 269 q 445 286 448 275 q 447 294 445 290 q 450 302 449 297 q 471 305 468 307 q 481 305 475 304 m 690 266 q 665 261 671 258 q 655 267 659 264 q 656 280 656 275 q 659 289 656 285 q 675 296 670 296 q 682 296 680 297 q 692 287 692 289 q 696 283 693 285 q 690 271 693 273 q 690 266 688 269 m 184 228 q 167 229 176 227 q 153 239 157 232 q 156 247 156 243 q 157 255 156 251 q 168 267 164 263 q 186 262 182 267 q 193 255 190 258 q 193 246 194 250 q 193 240 191 243 l 184 228 m 590 252 q 587 231 589 239 q 574 226 579 227 q 566 225 568 225 q 556 241 557 237 q 556 250 555 245 q 567 263 567 264 q 582 261 578 264 q 590 252 586 258 m 1035 237 q 1023 229 1028 235 q 1006 225 1019 222 q 996 240 997 235 q 1000 254 998 250 q 1006 259 1001 258 q 1029 259 1025 270 q 1035 237 1032 248 m 913 218 q 911 210 911 214 q 910 203 911 206 q 906 197 909 199 q 903 190 903 194 q 886 191 892 189 q 875 195 880 193 q 876 205 876 202 q 876 212 875 209 q 885 222 883 221 q 888 227 887 224 q 901 223 901 225 q 903 221 902 221 l 913 218 m 294 111 q 256 119 264 109 q 259 126 256 123 q 259 134 262 129 q 269 141 266 137 q 278 151 273 145 q 289 144 286 151 q 297 136 292 138 q 297 117 300 119 q 294 111 294 114 m 397 56 q 406 56 400 58 q 416 56 411 54 q 427 41 427 43 q 429 35 426 38 q 422 28 425 33 q 418 20 420 23 q 409 18 412 18 q 401 16 406 19 q 389 42 388 35 q 397 50 395 47 q 397 56 400 53 m 709 34 q 723 25 719 26 q 726 19 727 24 q 721 -1 726 3 q 713 -8 716 -4 l 697 -8 q 694 -1 694 -5 q 688 4 693 4 q 696 20 693 15 q 701 30 699 24 l 709 34 m 579 8 q 574 -8 579 0 q 547 -16 562 -18 q 540 -5 543 -11 q 540 11 537 1 q 551 18 547 14 q 562 24 556 22 q 575 12 575 19 l 579 8 z "},"A":{"ha":968,"x_min":54,"x_max":914,"o":"m 511 1001 q 522 989 517 991 q 517 972 521 974 q 513 964 514 970 q 498 964 502 964 q 485 970 487 971 q 481 972 483 970 q 482 987 480 985 q 484 996 484 989 q 495 1002 487 1001 q 511 1001 503 1004 m 579 841 q 566 845 571 841 q 555 852 560 849 q 561 873 557 868 q 571 879 564 878 l 586 878 q 593 871 589 876 q 598 863 597 867 q 587 848 591 849 q 582 842 583 846 l 579 841 m 439 818 q 427 818 433 815 q 418 818 422 821 q 414 836 415 834 q 414 842 414 838 q 418 851 415 849 q 425 857 422 853 q 438 857 434 857 q 448 856 442 856 q 454 845 450 849 q 457 833 458 841 q 451 823 457 826 q 439 818 445 821 m 646 707 q 653 699 650 703 q 659 688 656 694 l 647 673 q 633 673 640 670 q 620 678 627 675 q 618 696 616 690 q 646 707 629 707 m 342 675 q 340 696 338 693 q 342 704 342 699 q 353 710 347 707 q 363 707 359 713 q 372 706 370 708 q 378 704 373 704 q 384 686 380 692 q 372 677 377 680 q 350 671 354 669 q 342 675 346 673 m 720 525 q 711 521 715 524 q 703 518 708 518 q 692 523 696 519 q 684 528 689 526 q 682 543 685 536 q 705 560 696 560 q 720 552 715 560 q 724 538 726 543 q 720 525 722 533 m 307 543 q 310 531 311 537 q 312 518 309 525 q 297 510 300 511 q 292 509 294 509 l 278 518 q 273 530 271 526 q 271 537 274 534 q 291 544 285 545 q 304 544 297 543 l 307 543 m 742 369 q 734 374 739 372 q 727 381 730 376 q 722 403 724 397 q 751 411 741 412 q 765 403 761 410 q 767 394 766 400 q 766 385 768 388 q 757 374 764 374 q 742 369 750 373 m 248 397 q 251 390 251 395 q 254 381 251 385 q 246 369 247 369 q 243 366 245 369 q 225 366 235 361 q 216 374 220 370 q 212 381 212 378 q 214 393 210 387 q 224 403 218 399 q 235 402 228 406 q 248 397 241 399 m 391 381 q 393 368 393 373 q 396 358 393 363 q 389 349 389 350 q 385 345 388 347 q 374 343 380 342 q 363 346 369 345 q 354 362 358 359 q 360 374 355 369 q 370 382 365 378 q 385 381 382 380 q 391 381 387 382 m 628 381 q 631 370 627 373 q 633 361 635 366 q 625 347 633 353 q 604 340 604 342 q 596 345 600 343 q 589 350 593 347 q 589 358 590 354 q 589 366 587 362 q 594 376 594 374 q 595 380 594 378 q 608 386 604 387 q 616 388 613 385 l 628 381 m 506 384 q 513 369 513 369 q 515 368 514 369 q 515 359 515 363 q 514 350 514 355 q 503 345 505 345 q 499 345 500 346 q 484 343 484 342 q 476 359 476 351 q 475 373 476 366 q 488 382 480 378 q 506 384 496 385 m 795 296 q 810 293 808 292 q 815 293 812 294 q 825 279 825 282 q 822 263 825 269 q 789 261 796 252 q 785 285 781 270 l 795 296 m 187 264 q 193 252 190 252 q 195 247 197 251 q 171 228 190 232 q 153 239 160 236 q 151 248 153 245 q 152 256 149 250 q 157 263 155 260 q 161 269 159 266 q 187 264 176 269 m 859 146 q 861 138 859 140 q 865 133 863 136 q 855 117 863 122 q 837 109 848 111 q 828 115 834 111 q 818 125 822 119 q 821 132 819 129 q 822 141 822 134 q 834 152 826 144 q 847 149 841 149 q 859 146 853 149 m 134 127 q 138 115 137 118 q 137 107 140 113 q 123 96 130 98 q 114 100 117 95 q 99 112 99 107 q 99 122 99 117 q 105 127 102 125 q 110 133 109 129 q 123 132 118 134 q 134 127 127 130 m 909 22 q 913 7 914 9 q 913 -1 911 4 q 905 -10 907 -11 q 901 -12 902 -9 q 888 -9 894 -9 q 875 -8 882 -9 q 871 10 872 8 q 872 15 871 12 q 895 24 880 26 l 909 22 m 98 22 q 99 9 98 14 q 98 -1 100 5 q 90 -4 95 -4 q 84 -9 84 -4 q 56 4 57 -12 q 65 30 54 20 q 80 27 79 26 q 90 27 87 30 q 98 22 92 24 z "},"B":{"ha":907,"x_min":125,"x_max":837,"o":"m 389 987 q 380 975 387 979 q 367 975 369 977 q 363 974 365 974 q 350 990 351 986 q 350 998 349 994 q 363 1008 353 1009 q 384 1002 374 1008 q 385 994 384 996 q 389 987 387 993 m 281 997 q 280 984 282 989 q 277 972 278 979 q 265 970 270 972 q 254 968 260 968 q 245 981 250 975 q 243 990 240 987 q 252 1002 248 1001 q 258 1005 255 1002 q 267 1002 264 1005 q 277 1001 270 1000 l 281 997 m 491 1005 q 511 997 507 1004 q 519 987 514 990 q 515 975 519 977 q 510 966 511 972 q 496 968 496 967 q 495 970 496 970 q 480 985 480 975 q 491 1001 480 996 l 491 1005 m 180 979 q 180 970 179 974 q 179 964 182 967 q 172 954 174 959 q 167 948 171 949 q 159 948 161 947 q 152 949 157 949 q 146 958 151 956 q 140 964 142 959 q 143 975 142 970 q 149 983 144 981 q 157 985 151 983 q 165 986 163 986 q 174 983 171 986 q 180 979 176 981 m 633 971 q 631 962 632 964 q 632 952 629 960 q 613 943 621 945 q 598 947 605 941 q 595 966 595 958 q 602 981 595 975 q 620 981 613 986 q 633 971 627 975 m 692 928 q 699 936 694 933 q 709 941 704 939 q 724 933 718 939 q 731 920 731 928 q 718 904 723 907 q 708 902 713 901 q 692 928 689 902 m 165 875 q 175 866 172 868 q 180 861 178 864 q 174 842 178 848 q 163 833 170 836 q 146 841 156 830 q 144 854 148 852 q 141 859 141 856 q 149 870 142 865 q 163 872 155 875 l 165 875 m 793 837 q 790 824 787 825 q 793 819 793 823 q 783 807 784 807 q 774 804 781 807 q 763 807 765 804 q 757 810 761 810 q 754 834 753 821 q 766 844 765 837 q 779 839 773 842 q 793 837 785 836 m 167 707 q 157 709 160 709 q 146 712 153 709 q 138 726 138 722 q 140 741 137 739 q 140 746 142 743 q 157 751 146 749 q 179 732 178 742 q 176 718 180 724 q 167 707 171 711 m 798 730 q 794 718 795 723 q 792 707 793 713 q 763 702 770 696 q 750 715 755 708 q 758 731 755 728 q 779 735 774 736 q 784 731 783 734 l 798 730 m 751 614 q 752 605 753 608 q 750 600 751 602 q 743 587 745 590 q 736 583 741 585 q 720 593 730 583 q 715 600 718 597 q 716 610 713 602 q 729 624 724 621 q 741 625 734 627 q 747 621 745 624 q 751 614 749 617 m 171 620 q 178 606 176 610 q 165 587 174 595 q 141 582 157 579 q 132 600 133 597 q 133 610 132 604 q 140 618 137 614 q 151 623 144 621 q 159 620 155 623 q 171 620 164 617 m 637 532 q 631 545 633 537 q 631 562 628 553 q 646 570 637 568 q 662 564 655 571 q 667 552 665 555 q 667 543 669 549 q 661 536 665 538 q 655 530 658 533 q 646 532 652 532 q 637 532 640 533 m 537 532 q 539 521 540 525 q 538 510 538 517 q 531 504 534 507 q 524 499 528 500 q 505 506 509 500 q 499 515 500 511 q 501 523 499 519 q 502 532 503 526 q 519 536 510 534 q 537 532 529 537 m 420 529 q 422 517 420 522 q 422 505 423 511 q 413 494 418 498 q 406 490 408 491 q 398 492 403 490 q 391 498 393 495 q 385 513 387 509 q 385 525 382 518 q 406 532 391 529 q 417 528 416 525 q 420 529 418 530 m 262 514 q 271 522 267 519 q 281 526 275 525 q 300 519 297 522 q 300 505 301 509 q 297 498 300 500 q 285 486 289 488 q 275 486 281 483 l 264 496 q 262 505 264 500 q 262 514 259 509 m 179 502 q 177 494 176 498 q 178 487 178 490 q 170 478 176 483 q 156 473 164 473 q 142 484 144 481 q 138 488 140 487 q 142 506 137 499 q 153 518 148 513 q 166 511 160 515 q 179 502 172 506 m 689 496 q 688 487 686 491 q 689 479 689 483 q 663 471 681 471 q 656 478 659 475 q 652 487 652 481 q 659 501 652 496 q 671 510 665 506 q 686 501 684 505 q 689 496 688 498 m 764 430 q 769 430 762 431 q 779 426 776 429 q 783 400 792 419 q 769 391 774 399 q 755 394 760 392 q 747 406 750 396 q 747 420 745 416 q 758 429 757 427 q 764 430 758 430 m 148 355 q 138 357 141 354 q 129 359 134 359 q 125 372 126 366 q 127 387 125 377 q 136 391 132 389 q 144 396 141 393 q 160 392 159 393 q 163 377 164 380 q 164 368 163 374 q 150 358 151 359 q 148 355 149 357 m 837 302 q 834 294 834 300 q 833 282 834 288 q 825 279 830 279 q 818 275 821 278 q 808 281 811 277 q 798 286 804 285 q 798 301 796 296 q 802 313 799 307 q 837 302 830 315 m 165 270 q 168 252 171 260 q 160 237 165 243 q 148 236 153 237 q 137 236 142 235 q 130 251 130 245 q 130 259 129 256 q 133 267 130 263 q 137 273 136 270 q 153 274 148 275 q 165 270 159 273 m 795 155 q 791 161 795 160 q 787 168 788 163 q 787 179 785 175 q 791 189 789 183 q 800 192 795 190 q 808 193 804 194 q 818 186 811 193 q 825 176 825 180 q 817 159 827 167 q 795 155 807 151 m 170 149 q 168 136 168 137 q 167 129 168 136 q 154 122 155 121 q 152 123 153 123 q 140 126 142 123 q 133 130 138 129 q 137 155 129 142 q 152 161 144 161 q 165 156 160 157 q 170 149 170 155 m 773 73 q 772 56 776 62 q 761 43 768 49 q 741 50 746 39 q 728 65 736 60 q 739 77 736 75 q 743 85 742 80 q 760 81 754 84 q 773 73 766 77 m 171 27 q 168 19 170 24 q 164 11 167 14 q 147 5 152 5 q 140 8 142 5 q 130 24 130 19 q 132 36 129 31 q 137 46 134 41 q 150 45 144 43 q 163 45 156 47 q 167 36 165 41 q 171 27 168 31 m 644 3 q 635 4 639 3 q 625 4 632 5 q 620 37 616 20 q 637 43 629 43 q 646 39 642 42 q 654 34 651 37 q 650 14 656 16 l 644 3 m 517 34 q 525 29 522 33 q 532 24 528 26 q 533 9 534 9 q 524 -5 525 -5 q 502 -3 507 -8 q 495 5 496 3 q 498 24 491 16 q 517 34 506 33 m 410 30 q 412 20 412 26 q 412 8 412 14 q 406 -5 408 -5 q 406 -7 403 -4 q 396 -8 399 -9 q 387 -7 393 -7 q 376 5 374 3 q 372 8 377 8 q 382 29 377 26 q 395 33 387 33 q 401 30 397 33 q 410 30 404 27 m 277 19 q 281 -1 283 7 q 270 -12 275 -8 q 262 -15 264 -15 q 245 -7 245 -8 q 243 -3 245 -7 q 241 9 239 5 q 241 16 243 12 q 258 24 247 24 q 277 19 269 23 z "},"C":{"ha":963,"x_min":81,"x_max":882,"o":"m 589 1024 q 593 1014 591 1019 q 593 1002 595 1009 q 582 989 591 993 q 558 994 564 985 q 556 1010 552 1002 q 589 1024 570 1027 m 463 1019 q 465 1010 463 1012 q 471 1005 468 1008 q 470 996 468 1001 q 469 987 472 991 q 465 981 468 982 q 460 975 461 979 q 451 975 456 977 q 441 977 446 974 q 434 984 438 982 q 430 991 430 986 q 438 1010 427 1004 q 463 1019 449 1017 m 707 987 q 703 972 704 979 q 696 962 703 966 l 675 962 q 672 970 673 966 q 667 978 671 975 q 673 993 670 991 q 673 997 675 994 q 686 1000 685 998 q 690 1001 686 1002 q 701 995 697 1000 q 707 987 704 990 m 317 971 q 328 966 324 970 q 338 963 331 963 q 340 949 340 951 q 342 943 339 947 q 330 928 336 932 q 321 925 324 925 l 304 930 q 298 941 298 940 q 297 945 297 943 q 304 962 302 960 q 315 967 312 968 q 317 971 317 966 m 793 911 q 783 905 788 909 q 774 898 777 902 q 761 905 761 903 q 754 916 757 911 q 754 926 751 921 q 787 939 773 940 q 790 930 787 932 q 795 925 793 928 l 793 911 m 844 838 q 838 846 842 844 q 831 852 833 848 q 840 875 829 867 q 861 879 850 883 q 871 870 869 873 q 872 857 873 867 q 869 850 871 854 q 864 842 868 845 q 844 838 856 838 m 243 856 q 235 842 240 849 q 222 833 231 836 q 208 838 210 837 q 203 841 206 838 q 203 866 195 863 q 216 876 210 869 q 243 856 232 871 m 180 758 q 178 734 187 743 q 159 726 170 724 q 143 739 144 727 q 148 766 142 751 q 165 766 155 768 q 180 758 175 764 m 96 606 q 89 618 94 613 q 84 631 84 623 q 96 643 95 643 q 100 646 98 643 q 106 649 103 648 q 117 648 109 650 q 122 640 119 643 q 127 632 125 636 q 125 621 127 625 q 119 612 122 616 q 108 609 113 609 q 96 606 103 609 m 122 476 q 111 469 113 469 q 107 468 110 468 q 87 472 92 464 q 84 490 81 480 q 90 503 91 500 q 92 507 90 506 q 116 506 104 511 q 125 488 127 500 l 122 476 m 149 361 q 146 349 149 353 q 140 338 142 345 q 129 334 133 335 q 119 335 125 332 q 104 349 113 338 q 106 359 107 355 q 107 368 104 362 q 126 375 122 373 q 134 374 130 377 q 142 366 138 369 q 149 361 146 363 m 194 210 q 163 187 190 183 q 154 199 155 198 q 153 203 153 201 q 151 211 151 209 q 153 220 151 213 q 183 225 171 229 q 194 210 189 214 m 876 157 q 880 142 878 151 q 876 127 882 134 q 863 119 863 119 q 861 117 864 118 q 841 125 849 113 q 835 135 836 129 q 836 144 834 141 q 842 153 837 151 q 852 160 846 156 q 864 159 859 159 q 876 157 869 160 m 305 81 q 299 70 302 75 q 289 62 296 65 q 266 75 269 69 q 269 91 263 80 q 296 98 290 104 q 305 81 301 91 m 783 38 q 771 35 776 37 q 761 35 766 34 q 748 52 749 38 q 757 72 747 65 q 777 72 765 76 q 791 58 788 68 q 789 48 792 52 q 783 38 785 45 m 419 14 q 415 6 418 8 q 414 -1 412 4 q 391 -9 404 -7 q 373 14 368 -5 q 384 29 382 27 q 388 33 385 31 q 396 31 392 30 q 406 31 400 33 q 412 20 408 24 q 419 14 416 16 m 681 20 q 683 8 682 14 q 682 -5 684 3 q 667 -15 670 -15 q 651 -10 656 -16 q 642 3 646 -4 q 644 11 640 9 q 647 19 648 12 q 654 24 651 20 q 659 30 656 27 q 672 24 670 27 q 681 20 674 20 m 541 -23 q 531 -23 534 -22 q 524 -24 528 -24 q 515 -14 517 -18 q 510 -7 513 -11 q 524 18 514 8 q 540 16 540 16 q 551 3 549 3 q 549 -13 548 -12 q 548 -14 551 -14 l 541 -23 z "},"D":{"ha":1077,"x_min":125,"x_max":996,"o":"m 453 986 q 446 970 448 977 q 433 962 444 963 q 416 972 419 967 q 412 986 412 982 q 414 993 412 990 q 444 998 438 1004 q 453 986 450 993 m 328 986 q 330 979 331 983 q 330 971 330 975 q 323 964 324 968 q 315 956 321 959 q 303 954 305 956 q 298 954 301 952 q 288 965 293 956 q 285 983 282 974 q 294 991 286 986 q 309 994 302 996 q 319 991 315 994 q 328 986 324 989 m 581 989 q 583 979 581 982 q 583 968 586 977 q 570 955 571 956 q 567 954 570 954 q 552 958 555 958 q 547 962 549 959 q 543 972 544 966 q 543 982 541 979 q 556 993 553 991 q 572 993 567 996 q 581 989 576 990 m 172 949 q 151 960 157 951 q 142 966 145 963 q 142 975 140 968 q 163 989 155 989 q 174 987 171 989 q 183 979 179 986 q 184 963 187 971 q 172 949 172 948 m 688 974 q 708 962 703 968 q 709 943 713 956 q 694 934 703 936 q 675 939 685 932 q 673 963 669 951 q 680 969 678 964 q 688 974 681 974 m 836 907 q 834 891 834 903 q 817 880 821 883 q 811 876 814 876 q 802 878 806 876 q 795 883 799 880 q 796 910 791 899 q 815 920 802 921 q 826 914 822 918 q 836 907 830 910 m 189 845 q 188 835 190 838 q 187 826 186 831 q 176 819 180 823 q 163 815 171 814 q 150 827 156 817 q 151 848 144 837 q 165 854 155 852 q 189 845 179 859 m 929 798 q 920 784 917 784 q 922 780 924 784 q 901 779 911 774 q 887 791 891 783 q 898 814 894 808 q 911 821 902 821 q 924 810 918 817 q 929 798 929 804 m 182 705 q 181 698 180 703 q 180 690 182 693 q 157 677 159 677 q 144 683 151 677 q 134 696 137 689 q 138 704 137 700 q 141 712 138 708 q 151 716 146 713 q 161 719 156 719 q 176 709 174 709 q 182 705 179 708 m 962 663 q 946 661 948 661 q 941 662 944 662 q 929 667 930 667 q 926 669 928 667 q 925 688 922 684 q 929 697 928 692 q 938 703 935 700 q 948 705 941 705 q 956 698 951 700 q 964 692 960 696 q 963 674 963 678 q 962 663 963 670 m 193 582 q 191 564 194 567 q 186 555 187 562 q 168 549 171 551 q 161 551 164 548 q 153 579 148 564 q 165 593 156 589 q 172 593 171 594 q 180 590 174 593 l 193 582 m 964 567 q 980 568 974 570 q 991 563 986 566 q 991 549 996 555 q 989 534 987 544 q 958 537 970 518 q 958 557 954 551 q 964 567 962 564 m 140 446 q 150 451 145 449 q 160 454 155 453 q 168 450 165 453 q 176 445 171 446 q 177 437 174 441 q 178 427 180 434 q 170 414 171 416 q 167 411 168 412 q 154 410 160 408 q 141 414 148 411 q 136 430 136 420 q 140 446 137 439 m 991 414 q 987 405 990 410 q 981 397 983 400 q 966 394 966 393 q 964 396 966 395 q 952 406 956 406 q 948 410 948 407 q 949 419 949 414 q 951 427 948 425 l 974 437 q 979 429 977 433 q 987 425 982 426 l 991 414 m 926 289 q 928 304 929 297 q 947 315 941 316 q 954 317 952 313 q 961 313 958 315 q 970 309 964 311 q 964 281 975 292 q 939 277 952 270 q 933 284 937 282 q 926 289 929 286 m 153 293 q 170 302 167 302 q 180 300 174 302 q 190 289 189 293 q 193 282 191 285 q 171 258 189 267 q 161 264 165 263 q 153 271 156 266 q 153 281 151 275 q 153 293 155 286 m 905 189 q 913 179 909 183 q 921 170 917 175 q 907 148 914 153 q 888 146 897 140 q 880 153 883 149 q 875 163 878 157 q 878 173 876 168 q 879 184 879 178 q 890 186 887 182 q 905 189 894 190 m 189 164 q 190 150 189 157 q 182 144 191 142 q 168 132 175 133 q 155 133 160 130 q 149 144 152 138 q 144 155 146 149 q 150 162 146 159 q 156 170 153 165 q 176 172 167 172 q 189 164 184 171 m 808 77 q 800 52 807 66 q 792 50 795 53 q 784 47 789 47 q 776 51 780 50 q 768 54 772 52 q 764 68 764 68 q 765 69 765 68 q 779 90 773 87 q 795 91 784 94 q 802 84 799 88 q 808 77 806 80 m 661 23 q 652 4 658 18 q 633 1 640 0 q 624 3 627 3 l 617 33 q 635 42 624 41 q 654 37 647 43 q 656 28 655 33 q 661 23 656 24 m 125 23 q 136 33 134 34 q 138 34 137 33 q 147 38 144 38 q 153 38 151 38 q 169 24 167 27 q 171 16 171 20 q 166 7 170 11 q 161 -3 163 3 q 152 -5 155 -1 q 141 -5 149 -8 q 134 4 137 3 q 129 7 130 5 q 127 15 127 11 q 125 23 127 19 m 347 19 q 344 7 347 11 q 339 -4 340 3 q 330 -7 332 -4 q 324 -9 327 -9 q 307 0 311 -9 q 302 12 304 11 q 302 19 301 14 q 310 28 305 26 q 317 37 315 31 q 340 28 336 33 q 347 19 345 23 m 471 35 q 477 27 475 33 q 481 16 479 22 q 477 9 480 11 q 475 0 473 7 q 460 -5 463 -3 q 454 -8 458 -8 q 447 -3 449 -7 q 442 7 445 0 q 439 13 441 9 q 441 22 438 16 l 452 33 q 463 35 458 37 q 471 35 467 34 z "},"E":{"ha":878,"x_min":123,"x_max":791,"o":"m 298 1001 q 302 995 300 997 q 304 986 305 993 q 300 970 304 974 q 290 966 297 966 q 279 968 283 964 q 269 974 274 971 q 273 997 262 987 q 291 1003 288 1005 q 298 1001 294 1001 m 772 1009 q 787 997 783 998 q 784 977 791 985 q 768 966 772 967 q 758 966 764 964 q 749 978 751 975 q 743 986 746 981 q 746 993 745 990 q 746 1001 747 996 q 758 1006 753 1004 q 772 1009 764 1008 m 191 981 q 186 968 187 970 q 184 964 184 967 q 177 962 178 966 q 174 954 176 958 q 150 962 156 956 q 144 974 144 968 q 151 991 142 985 q 172 994 160 997 q 181 986 175 987 q 191 981 187 985 m 556 986 q 549 977 553 982 q 543 967 545 972 q 532 967 537 968 q 522 968 526 966 q 510 981 510 979 q 511 995 509 993 q 514 1000 513 997 q 522 1004 517 1002 q 533 1009 526 1006 q 541 1002 538 1006 q 551 997 544 998 l 556 986 m 663 1002 q 669 994 666 998 q 670 983 671 990 q 661 971 663 979 q 641 968 643 966 q 633 971 639 971 q 631 979 633 975 q 629 987 628 983 q 648 1008 631 998 q 656 1003 654 1006 q 663 1002 658 1000 m 167 861 q 156 861 160 863 q 148 856 152 859 q 127 876 134 861 q 149 895 145 888 q 161 891 155 894 q 170 880 167 888 q 170 871 171 878 q 167 861 168 865 m 184 765 q 179 754 178 754 q 178 751 180 754 q 161 747 170 750 q 146 750 153 745 q 139 762 142 757 q 138 776 136 768 q 155 787 152 788 q 160 789 157 787 q 170 785 165 788 q 179 780 174 783 q 184 765 182 769 m 190 640 q 180 621 184 624 q 178 612 176 618 q 166 613 171 612 q 156 612 161 614 q 150 617 152 614 q 142 621 148 620 q 144 630 142 628 q 144 639 146 632 q 161 651 149 646 q 179 644 172 656 l 190 640 m 274 530 q 275 520 275 525 q 277 513 275 515 q 263 501 273 506 q 241 500 254 496 q 237 509 240 506 q 236 521 235 511 q 244 536 243 536 q 245 538 245 536 q 265 535 262 538 q 274 530 269 532 m 183 519 q 168 496 175 500 q 159 496 163 496 q 149 495 155 495 q 145 501 149 499 q 140 507 141 503 q 148 533 136 524 q 156 534 153 532 q 165 534 159 536 q 174 527 170 530 q 183 519 179 524 m 389 540 q 398 532 393 536 q 407 524 403 529 q 396 502 401 506 q 384 498 391 498 q 366 505 368 503 q 363 522 361 518 q 366 528 365 525 q 381 538 381 538 l 389 540 m 533 502 q 525 503 528 505 q 518 502 522 500 q 508 509 507 507 q 507 513 509 510 q 505 527 503 519 q 511 537 507 534 q 527 540 526 538 q 529 541 528 541 q 543 517 545 528 q 533 502 540 507 m 651 538 q 659 526 655 532 q 659 514 662 521 q 640 501 646 500 q 628 500 635 502 q 623 509 624 503 q 618 518 623 515 q 623 526 621 524 q 627 534 624 528 q 638 537 635 533 q 651 538 642 541 m 171 372 q 159 367 164 369 q 142 366 153 365 q 139 372 141 370 q 134 381 137 374 q 134 389 134 382 q 134 397 133 395 q 159 411 151 407 q 168 405 164 408 q 176 400 171 401 q 173 381 175 384 q 171 372 171 378 m 174 281 q 177 273 176 277 q 180 266 178 269 q 176 258 179 260 q 175 248 174 255 q 153 242 157 240 q 142 244 149 244 q 136 255 140 251 q 134 270 133 259 q 151 284 142 286 q 174 281 160 282 m 170 167 q 174 155 171 156 q 179 152 178 155 q 176 142 178 148 q 171 134 174 137 q 144 133 151 126 q 136 151 137 140 q 146 168 144 165 q 152 172 149 170 q 161 170 155 170 q 170 167 167 170 m 153 -5 q 137 -4 148 -1 q 132 4 134 0 q 125 11 129 8 q 125 21 123 18 q 127 30 126 24 q 144 39 141 39 q 151 41 148 38 q 160 32 157 38 q 168 22 163 26 q 153 -5 165 3 m 292 33 q 296 24 293 26 q 301 18 300 23 q 298 8 301 11 q 298 -1 296 5 q 291 -6 293 -3 q 282 -11 289 -9 q 275 -11 279 -11 q 267 -8 270 -11 q 261 3 263 3 q 259 5 259 3 q 260 13 258 9 q 263 22 262 16 q 275 30 270 24 q 292 33 281 35 m 631 34 q 644 29 637 31 q 654 18 651 27 q 660 4 663 9 q 654 -7 656 -1 q 643 -11 648 -9 q 629 -12 637 -12 q 623 -3 625 -8 q 617 5 620 1 q 618 14 617 11 q 620 22 620 16 q 631 34 628 22 m 544 14 q 541 2 541 7 q 537 -8 541 -3 q 507 -4 514 -15 q 504 7 506 5 q 505 15 502 8 q 518 28 518 26 q 519 30 518 30 q 538 24 536 30 q 544 14 540 19 m 393 26 q 420 15 410 24 q 416 -7 423 0 q 401 -15 408 -15 q 383 -6 391 -15 q 381 14 376 3 q 387 19 384 18 q 393 26 389 20 m 743 -9 q 732 1 736 -5 q 732 24 727 16 q 747 35 746 34 q 751 37 749 37 q 762 32 758 37 q 770 26 765 27 q 772 14 774 19 q 773 3 770 9 q 760 -5 768 -3 q 743 -9 751 -7 m 392 968 q 387 980 389 974 q 385 994 384 986 q 391 1001 389 997 q 397 1006 392 1005 q 412 1005 406 1009 q 425 996 419 1001 q 418 975 425 982 q 392 968 404 967 z "},"F":{"ha":846,"x_min":125,"x_max":776,"o":"m 437 985 q 433 976 435 979 q 431 967 431 972 q 419 961 423 962 q 412 960 415 960 q 392 970 399 966 q 393 987 391 981 q 399 1000 396 994 l 415 1005 q 426 995 419 998 q 437 985 433 991 m 294 963 q 282 961 288 962 q 271 966 277 960 q 262 971 267 970 q 258 975 258 972 q 260 986 256 982 q 262 1000 263 990 q 273 1003 269 1000 q 285 1005 278 1006 q 296 1000 293 1005 q 304 989 300 996 q 300 976 302 982 q 294 963 297 970 m 661 983 q 648 966 655 970 q 632 964 642 963 q 621 978 623 977 q 618 982 618 979 l 625 997 q 640 1006 637 1006 q 646 1008 643 1005 q 661 998 651 1005 q 661 983 670 990 m 179 991 q 174 979 175 981 q 174 974 174 977 q 155 966 157 968 q 148 964 152 964 q 136 972 141 966 q 132 983 132 978 q 138 1001 130 993 q 160 1004 145 1008 q 169 997 163 998 q 179 991 175 996 m 551 998 q 551 989 548 993 q 555 982 555 986 q 549 972 553 975 q 540 964 545 968 q 530 965 533 966 q 519 966 526 964 q 513 975 514 975 q 513 982 513 975 q 519 996 519 996 q 528 1004 524 1001 q 538 1004 532 1006 l 551 998 m 762 1002 q 773 987 773 991 q 776 977 773 982 q 763 962 765 964 q 758 959 761 960 q 745 959 751 956 q 731 964 738 962 q 728 979 731 972 q 731 993 726 986 q 740 997 735 996 q 747 1004 745 998 l 762 1002 m 165 860 q 146 854 153 861 q 134 862 138 857 q 125 873 129 867 q 146 894 142 887 q 159 890 153 892 q 168 879 165 887 q 167 870 168 876 q 165 860 165 864 m 175 764 q 170 753 168 754 q 168 750 171 753 q 153 746 161 749 q 136 749 144 743 q 130 761 133 755 q 129 774 126 766 q 144 786 141 787 q 151 788 148 785 q 160 784 156 787 q 170 779 164 781 q 175 764 172 768 m 182 639 q 172 620 176 623 q 171 610 168 617 q 159 612 164 610 q 148 610 153 613 q 142 616 144 613 q 134 620 140 618 q 137 629 136 627 q 136 636 138 631 q 153 649 140 643 q 171 643 165 655 l 182 639 m 275 519 q 277 510 277 514 q 279 502 277 506 q 264 490 274 495 q 244 488 255 484 q 239 498 241 495 q 237 510 236 502 q 247 529 247 528 q 267 524 264 528 q 275 519 270 521 m 176 514 q 167 496 170 499 q 160 490 164 492 q 141 488 155 488 q 138 496 141 494 q 132 502 134 498 q 132 515 129 509 q 138 528 136 522 q 149 528 145 526 q 159 529 152 530 q 168 522 163 525 q 176 514 172 518 m 388 529 q 397 522 392 525 q 406 513 401 518 q 395 490 400 495 q 384 484 391 484 q 368 490 369 491 q 365 491 366 490 q 361 510 359 506 q 365 517 363 514 q 376 525 376 524 q 380 528 377 526 l 388 529 m 521 488 q 513 490 515 492 q 506 488 510 487 q 496 496 495 495 q 495 499 496 498 q 490 515 488 507 q 499 525 492 522 q 513 528 513 526 q 517 528 514 529 q 530 505 533 515 q 521 488 528 495 m 639 529 q 646 517 643 522 q 647 503 650 511 q 627 489 633 488 q 616 488 621 490 q 610 497 612 491 q 605 507 609 503 q 608 515 606 513 q 613 524 610 517 q 625 526 621 522 q 639 529 628 530 m 167 370 q 155 366 160 368 q 138 365 149 363 q 134 374 137 369 q 129 387 130 380 q 134 400 136 399 q 133 404 133 401 q 153 410 146 407 q 163 404 160 407 q 172 399 165 401 q 169 380 171 384 q 167 370 167 377 m 171 279 q 174 271 174 275 q 178 264 175 267 q 174 256 176 259 q 172 247 171 254 q 159 239 167 244 q 150 241 153 240 q 140 243 146 243 q 134 254 137 250 q 132 269 130 258 q 148 283 138 285 q 171 279 157 281 m 168 165 q 174 154 171 155 q 178 151 176 153 q 170 133 175 138 q 134 149 138 123 q 145 166 142 164 q 151 171 148 168 q 159 168 153 168 q 168 165 165 168 m 155 -7 q 138 -5 149 -3 q 126 9 130 5 q 126 20 125 16 q 127 27 127 23 q 145 37 141 38 q 152 39 149 37 q 161 31 159 37 q 168 22 163 24 q 155 -7 165 1 z "},"G":{"ha":1021,"x_min":81,"x_max":918,"o":"m 568 1024 q 568 1006 570 1010 q 564 994 566 1001 q 526 1005 541 990 q 527 1015 525 1012 q 528 1024 529 1019 q 541 1034 534 1027 q 556 1029 551 1032 q 568 1024 562 1025 m 718 1009 q 711 982 720 989 q 685 985 696 977 q 677 1005 674 993 q 686 1015 680 1010 q 700 1020 693 1020 q 710 1016 707 1020 q 718 1009 713 1012 m 437 996 q 438 984 437 989 q 439 972 439 979 q 416 964 427 963 q 408 969 412 964 q 399 971 404 974 q 399 983 399 979 q 400 994 399 986 q 422 1000 414 1002 q 437 996 430 998 m 821 920 q 808 916 814 917 q 793 917 803 914 q 782 931 783 928 q 779 937 781 935 q 791 950 784 944 q 808 954 799 956 q 823 932 822 940 q 821 920 823 925 m 307 913 q 304 895 304 906 q 296 888 301 890 q 285 883 290 886 q 277 886 279 883 q 267 888 274 888 q 266 896 269 892 q 263 903 263 899 q 264 911 262 907 q 264 920 266 916 q 286 926 279 928 q 298 922 293 925 l 307 913 m 873 875 q 897 876 891 879 q 909 872 902 872 q 917 859 916 864 q 916 846 918 853 q 905 835 906 836 q 902 834 903 834 q 880 838 886 833 q 871 850 873 844 q 876 865 873 861 l 873 875 m 187 789 q 193 768 193 779 q 182 755 187 758 q 174 755 179 755 q 167 754 170 754 q 154 765 159 761 q 149 776 149 769 l 156 789 q 164 794 159 793 q 172 795 170 795 q 187 789 179 795 m 83 621 q 94 629 90 624 q 106 633 99 633 q 118 630 114 629 q 125 628 122 631 q 129 616 127 623 q 127 604 130 610 q 118 596 119 595 q 114 595 117 597 q 92 599 95 597 q 84 606 90 601 q 85 616 88 616 q 83 621 81 617 m 515 452 q 520 444 514 445 q 533 442 526 442 q 535 437 533 439 q 536 427 537 434 q 518 412 522 423 q 507 410 511 414 q 496 410 503 407 q 486 418 487 418 q 481 420 484 418 q 481 433 481 427 q 483 444 480 438 q 492 452 488 452 q 495 454 495 452 q 506 452 502 454 q 515 452 510 449 m 661 450 q 669 436 667 441 q 667 429 670 431 q 661 411 663 418 l 639 411 q 632 418 635 414 q 627 425 629 422 q 628 434 628 429 q 628 445 628 439 q 637 448 635 445 q 644 453 640 450 q 651 451 648 450 q 661 450 654 452 m 789 452 q 799 437 796 437 q 802 435 802 438 q 795 414 802 420 q 779 412 781 414 q 773 414 777 411 q 761 426 761 425 q 762 435 761 427 q 766 446 764 444 q 789 452 772 452 m 125 454 q 127 441 127 448 q 127 425 127 435 q 114 419 122 419 q 95 419 106 419 q 85 431 85 430 q 85 437 85 433 q 88 448 85 444 q 94 456 91 452 q 102 458 99 457 q 111 458 106 460 l 125 454 m 903 406 q 890 404 894 403 q 884 400 887 404 q 872 408 878 404 q 867 419 867 412 q 872 431 872 429 q 875 437 872 434 q 900 438 892 442 q 910 426 907 434 q 907 411 907 414 q 903 406 906 408 m 902 300 q 905 288 902 293 q 905 278 907 283 q 892 264 902 267 q 875 264 883 262 q 865 277 871 271 q 863 293 860 282 q 873 299 868 296 q 884 305 878 302 q 892 302 890 305 q 902 300 894 298 m 178 282 q 179 262 175 271 q 170 251 171 252 q 167 248 170 250 q 142 254 146 248 q 134 263 138 260 q 138 279 133 273 q 150 287 142 285 q 165 288 157 289 q 178 282 172 286 m 860 152 q 863 162 861 160 q 864 170 865 164 q 871 176 868 172 q 882 179 875 179 q 893 174 891 175 q 899 171 895 172 q 901 153 901 155 q 902 149 902 152 q 895 141 898 144 q 890 138 892 138 q 882 138 886 137 q 873 138 878 138 q 868 145 871 141 q 860 152 865 149 m 243 141 q 248 125 245 134 q 247 107 250 117 q 235 106 240 106 q 222 104 229 106 q 212 115 217 111 q 208 127 208 118 q 219 142 209 138 q 243 141 229 145 m 395 52 q 394 43 393 45 q 395 34 395 41 l 382 22 q 361 30 366 23 q 355 41 355 37 q 356 47 354 43 q 357 57 358 52 q 378 62 366 61 q 395 52 391 62 m 806 20 q 804 13 804 16 q 803 5 804 9 q 793 -3 800 0 q 777 -4 787 -7 q 771 0 773 -3 q 762 5 769 3 q 766 26 761 18 q 783 34 772 34 q 791 29 788 34 q 802 27 795 24 l 806 20 m 553 16 q 551 3 548 4 q 553 0 555 3 q 540 -8 547 -3 q 526 -11 533 -14 q 519 -5 521 -8 q 511 0 518 -1 q 517 26 509 18 q 541 25 534 28 q 553 16 548 22 m 667 -24 q 656 -12 661 -20 q 656 4 652 -3 q 680 11 673 12 q 690 7 686 9 q 695 -5 693 -5 q 696 -11 697 -5 q 667 -24 684 -27 m 882 62 l 898 62 q 904 56 901 60 q 910 50 907 53 q 901 23 910 33 q 884 22 890 23 q 872 27 879 20 q 869 47 867 41 q 871 60 871 53 l 882 62 z "},"H":{"ha":1100,"x_min":125,"x_max":977,"o":"m 134 1025 q 154 1025 148 1027 q 167 1020 160 1023 q 170 991 175 1000 q 156 981 164 983 q 141 983 151 981 q 129 989 132 986 q 126 1004 125 1002 q 127 1009 127 1006 q 133 1017 129 1016 q 134 1025 137 1019 m 972 1005 q 975 992 972 997 q 974 979 977 987 q 963 977 967 979 q 952 971 959 974 q 941 977 948 974 q 933 986 935 979 q 932 994 930 990 q 936 1005 935 998 q 946 1011 939 1008 q 958 1008 954 1015 q 966 1009 963 1010 q 972 1005 968 1008 m 133 864 q 129 876 129 871 q 129 892 129 882 q 160 899 142 902 q 167 892 161 894 q 171 884 172 890 q 168 865 172 871 q 157 859 163 859 q 146 859 152 856 q 133 864 140 861 m 970 861 q 956 857 963 860 q 943 856 949 854 q 929 887 925 861 q 943 895 935 895 q 960 895 951 894 q 966 888 963 891 q 971 879 970 886 q 970 871 972 875 q 970 861 968 867 m 960 769 q 966 757 964 764 q 970 743 967 750 q 955 732 963 736 q 933 730 947 727 q 928 739 930 734 q 924 746 926 743 q 928 758 929 757 q 930 761 928 758 q 950 769 947 770 q 960 769 954 768 m 168 774 q 170 766 168 770 q 172 760 172 762 q 168 751 172 754 q 165 741 164 747 q 136 745 146 736 q 126 769 126 753 q 138 777 137 776 q 140 779 140 777 q 155 779 149 780 q 168 774 161 777 m 943 643 q 959 637 944 637 q 966 632 962 635 q 972 627 970 629 l 972 609 q 964 601 967 606 q 948 598 960 595 q 935 608 936 606 q 932 612 933 610 q 933 627 932 624 q 936 632 935 629 l 943 643 m 133 652 q 148 650 140 651 q 163 647 156 648 q 170 633 170 642 q 167 618 170 625 q 156 615 160 618 q 146 612 152 612 q 134 618 138 613 q 125 627 130 623 q 130 640 132 639 q 129 643 129 640 l 133 652 m 970 517 q 972 495 972 506 q 960 479 971 484 q 948 479 954 477 q 940 479 943 481 q 934 485 937 481 q 928 494 930 488 q 930 503 928 499 q 928 510 933 507 q 938 519 933 517 q 948 522 943 522 q 958 519 952 522 q 970 517 963 515 m 327 505 q 311 488 313 490 q 302 483 309 486 q 292 481 297 480 q 278 483 288 481 q 275 491 278 490 q 270 499 271 492 q 295 518 282 519 q 313 509 308 517 l 327 505 m 471 487 q 465 480 467 484 q 458 475 463 476 q 437 477 441 472 q 426 487 433 481 q 423 498 426 494 q 418 505 420 502 q 439 513 433 509 q 458 517 446 518 q 467 507 468 509 q 469 506 467 505 q 469 496 472 499 q 471 487 465 492 m 609 506 q 610 495 609 500 q 610 486 612 490 q 591 475 600 476 q 576 476 583 473 q 571 483 574 479 q 567 490 568 487 q 569 500 567 492 q 574 510 571 507 q 591 515 581 517 q 609 506 601 513 m 850 509 q 854 487 856 492 q 850 477 852 481 q 841 477 842 476 q 836 476 840 479 q 817 481 819 479 q 811 486 814 483 q 817 508 812 503 q 827 515 821 513 q 844 512 840 514 q 850 509 848 510 m 726 509 q 734 492 735 496 q 736 486 732 487 q 724 475 726 476 q 715 472 722 473 q 700 472 707 471 q 692 484 694 476 q 690 499 690 492 q 726 509 697 511 m 168 494 q 159 488 164 491 q 151 484 155 484 q 126 502 133 498 q 130 520 126 519 q 137 528 134 521 q 146 527 142 526 q 155 526 151 528 q 171 514 167 514 q 168 502 170 505 q 168 494 167 499 m 930 359 q 928 369 929 365 q 924 378 926 373 q 932 383 930 378 q 937 391 933 388 q 951 392 944 393 q 966 389 959 391 q 970 373 968 384 q 962 355 970 359 q 947 351 955 351 q 938 355 941 353 q 930 359 935 357 m 172 393 q 173 382 174 388 q 175 370 172 377 q 149 361 159 357 q 130 368 138 365 q 133 387 130 384 q 136 395 136 389 q 154 399 144 401 q 172 393 164 397 m 935 233 q 930 242 930 236 q 925 252 929 248 q 940 273 930 266 q 951 271 947 274 q 963 269 955 267 q 971 256 967 263 q 970 241 975 250 q 962 233 964 233 q 958 229 959 232 q 935 233 944 229 m 171 233 q 141 233 155 232 q 132 248 134 245 q 133 261 132 255 q 137 270 134 267 q 153 271 148 271 q 167 270 157 271 q 171 233 168 250 m 970 151 q 972 134 972 144 q 970 118 972 125 q 943 113 956 113 q 930 127 932 122 q 926 137 929 132 q 932 144 930 140 q 936 152 935 148 q 943 154 940 152 q 951 156 947 156 q 961 154 956 156 q 970 151 966 152 m 175 134 q 170 125 172 129 q 168 114 167 122 q 142 111 159 107 q 137 117 140 114 q 129 122 134 121 q 130 130 129 127 q 130 140 132 133 q 153 152 149 152 q 161 149 156 152 q 175 134 165 136 m 966 31 q 968 20 966 24 q 968 9 970 15 q 958 -3 963 -1 q 952 -9 954 -4 q 943 -6 947 -7 q 933 -3 939 -5 q 926 6 928 1 q 924 15 924 11 q 928 29 925 28 q 926 33 930 30 q 946 37 936 39 q 966 31 956 34 m 164 35 q 169 27 167 33 q 168 19 171 22 q 168 -7 174 3 q 155 -11 163 -11 q 138 -9 148 -11 q 134 -3 136 -7 q 127 3 133 1 q 130 18 125 12 q 138 31 136 24 q 152 33 148 33 q 164 35 156 33 z "},"I":{"ha":304,"x_min":125,"x_max":179,"o":"m 175 1004 q 175 994 176 997 q 174 985 174 990 q 155 979 159 981 q 148 978 151 978 q 132 997 132 986 q 135 1007 132 1004 q 141 1017 138 1010 q 161 1015 153 1020 q 175 1004 170 1009 m 179 886 q 175 868 175 872 q 161 861 164 861 q 147 861 153 859 q 138 867 141 864 q 132 884 130 882 q 133 892 134 887 q 142 898 138 894 q 152 902 145 902 q 171 892 165 895 q 179 886 176 890 m 168 738 q 146 735 157 734 q 135 746 140 741 q 136 761 130 751 q 161 769 155 773 q 174 761 167 765 q 172 745 174 750 q 168 738 171 741 m 138 605 q 134 621 137 613 q 133 635 132 628 q 142 640 138 637 q 153 640 146 642 q 162 635 159 639 q 171 632 165 632 q 169 614 171 620 q 163 602 167 609 q 150 603 155 604 q 138 605 145 602 m 161 475 q 144 473 151 472 q 135 477 136 477 q 132 483 134 477 q 129 499 126 495 q 136 507 133 506 q 140 511 140 509 q 153 511 151 513 q 163 507 156 510 q 168 500 164 502 q 171 494 171 498 q 168 484 171 487 q 161 475 164 481 m 141 387 q 148 387 142 389 q 156 388 153 384 q 166 380 164 380 q 171 378 168 380 q 171 363 174 369 q 165 351 168 357 q 148 349 157 349 q 133 355 138 350 q 132 374 130 365 q 141 387 133 382 m 157 266 q 171 254 161 255 q 174 240 172 240 q 178 237 176 240 q 168 231 170 233 q 164 231 167 229 q 152 227 157 228 q 140 228 146 227 q 127 239 130 235 q 125 244 125 243 q 135 258 132 256 q 141 266 138 260 q 149 265 145 263 q 157 266 153 267 m 146 144 q 161 138 156 138 q 170 121 168 126 q 168 113 171 115 q 153 107 161 107 q 134 109 145 107 q 131 116 133 114 q 129 125 129 118 q 140 140 137 140 q 146 144 144 141 m 129 20 q 142 26 141 26 q 146 27 142 27 q 154 26 151 30 q 163 22 157 23 q 168 7 168 11 q 170 3 167 4 q 163 -3 167 -1 q 160 -9 160 -4 q 139 -8 146 -14 q 127 4 132 -3 q 129 12 129 7 q 129 20 129 16 z "},"J":{"ha":724,"x_min":62,"x_max":613,"o":"m 595 1006 q 603 994 605 996 q 605 989 601 991 q 597 979 598 982 q 591 975 595 977 q 582 976 586 974 q 571 978 578 978 q 564 994 563 991 q 563 1000 566 997 l 576 1012 q 591 1013 590 1016 q 595 1006 593 1009 m 609 873 q 593 846 602 848 q 582 847 589 846 q 571 850 575 848 q 564 869 563 864 q 568 876 566 873 q 581 882 572 883 q 598 878 589 880 l 609 873 m 613 734 q 599 722 606 727 q 578 719 591 716 q 571 729 574 724 q 566 738 568 734 q 572 752 572 751 q 575 754 572 753 q 602 751 593 761 q 610 739 612 742 q 613 734 608 735 m 609 623 q 608 606 609 609 q 602 600 608 602 q 592 597 597 595 q 585 594 587 598 q 568 616 572 598 q 572 623 570 620 q 575 631 575 625 q 583 634 581 632 q 591 635 585 636 q 609 623 604 628 m 570 461 q 566 480 566 469 q 576 496 574 491 q 590 497 585 498 q 602 494 595 496 q 604 486 601 490 q 610 479 608 483 q 609 471 608 475 q 609 464 610 467 q 601 458 606 463 q 593 454 595 454 q 581 456 586 453 q 570 461 576 460 m 589 320 q 579 321 582 317 q 574 327 576 324 q 565 337 566 334 q 563 345 564 340 q 572 357 567 351 q 587 363 576 362 q 597 355 593 358 q 605 346 602 353 q 603 332 610 336 q 589 320 595 327 m 589 184 q 576 181 582 183 q 563 180 570 179 q 550 191 553 183 q 547 208 547 199 q 553 213 549 210 q 557 220 556 216 q 566 220 563 220 q 572 222 568 221 q 579 217 575 218 q 586 212 583 216 q 589 194 589 201 q 589 184 590 187 m 110 164 q 102 162 103 165 q 95 161 102 159 q 71 157 80 156 q 65 168 68 163 q 62 178 62 172 q 66 187 62 184 q 72 195 69 190 q 81 195 79 194 q 91 197 84 197 q 100 190 96 194 q 107 182 103 186 q 109 173 110 175 q 110 164 109 171 m 134 76 q 127 84 130 79 q 118 92 123 90 q 121 100 121 96 q 122 109 121 104 q 135 116 130 117 q 146 119 140 115 q 153 112 152 117 q 160 106 155 107 q 161 96 160 100 q 160 90 163 92 q 149 77 152 79 q 134 76 137 76 m 526 57 q 509 60 515 60 q 501 74 500 72 q 499 77 502 76 q 504 90 500 85 q 511 99 507 95 q 529 97 521 100 q 540 85 537 94 q 538 68 540 69 q 533 64 536 66 l 526 57 m 236 47 q 234 37 233 41 q 232 26 235 33 q 224 22 229 24 q 213 22 220 20 q 198 31 206 23 q 194 50 190 38 q 217 58 206 60 q 228 53 224 57 q 236 47 232 49 m 448 23 q 450 16 449 19 q 450 8 450 12 q 445 -2 445 1 q 444 -7 445 -5 q 420 -8 430 -12 q 406 8 411 0 q 410 20 401 16 q 419 28 414 26 q 430 33 425 30 q 444 24 442 26 q 448 23 445 22 m 326 3 q 328 -6 327 -4 q 326 -15 328 -8 q 300 -23 305 -26 q 291 -16 296 -22 q 288 -1 286 -9 q 294 7 288 4 q 307 11 300 11 q 317 7 313 11 q 326 3 321 4 z "},"K":{"ha":882,"x_min":125,"x_max":819,"o":"m 175 997 q 171 988 174 991 q 167 978 168 985 q 159 973 163 975 q 152 968 155 971 q 140 973 141 971 q 137 978 140 975 q 126 989 127 987 q 127 998 125 994 q 132 1006 129 1002 q 144 1012 140 1008 q 157 1012 149 1016 q 169 1002 165 1004 q 175 997 172 1001 m 811 966 q 793 968 799 964 q 780 978 787 971 q 793 1004 780 998 q 815 997 806 1010 l 819 981 q 815 974 818 975 q 811 966 812 972 m 715 894 q 715 876 718 880 q 715 868 713 872 q 701 861 709 861 q 684 859 693 860 q 682 895 678 880 q 689 899 685 898 q 694 905 693 901 q 704 901 700 902 q 711 892 708 899 l 715 894 m 171 869 q 159 852 164 854 q 151 848 153 849 q 138 853 142 848 q 129 863 134 859 q 130 876 129 876 q 132 878 130 876 q 147 889 136 890 q 165 884 159 888 q 168 876 167 880 q 171 869 168 872 m 604 776 q 589 769 593 772 q 581 768 586 766 q 568 785 570 781 q 563 791 566 788 q 573 810 566 807 q 590 814 581 814 q 597 807 594 810 q 602 795 600 804 q 603 785 604 789 q 604 776 602 781 m 175 741 q 167 724 170 726 q 160 719 164 722 q 152 713 156 716 q 140 713 148 711 q 131 720 136 715 q 125 731 126 724 q 127 740 125 735 q 129 750 130 745 q 136 754 133 751 q 142 758 138 757 q 150 755 146 758 q 157 755 153 753 q 165 745 161 750 q 175 741 168 741 m 499 684 q 484 682 486 684 q 480 681 483 680 q 465 696 467 688 q 475 719 464 712 q 484 725 480 723 q 495 724 488 727 q 502 714 502 718 q 505 709 502 711 q 503 701 500 705 q 502 690 505 696 l 499 684 m 153 623 q 163 614 160 620 q 174 605 167 609 q 174 589 171 594 q 164 581 170 583 q 152 575 159 578 q 134 582 134 578 l 127 609 q 147 616 142 617 q 153 623 152 616 m 404 613 q 400 600 403 605 q 395 589 397 595 q 382 585 389 586 q 368 586 374 583 q 363 594 363 589 q 358 602 362 600 q 361 612 361 608 q 363 621 362 617 q 388 627 373 628 q 399 616 399 620 q 404 613 400 613 m 275 529 l 289 511 q 280 488 286 491 q 270 484 274 484 q 260 488 267 484 q 251 496 254 492 q 248 505 250 499 q 248 518 247 511 q 263 529 264 526 l 275 529 m 133 469 q 144 469 140 467 q 155 472 148 472 q 161 467 159 471 q 168 461 163 464 q 170 451 170 456 q 171 441 170 446 q 163 433 165 437 q 159 429 161 430 q 151 429 155 427 q 140 430 146 430 q 133 469 125 449 m 400 407 q 397 399 396 404 q 396 392 397 395 q 375 385 382 384 q 363 388 368 385 q 361 426 351 408 q 370 427 365 427 q 378 429 374 426 q 394 414 392 419 q 400 407 396 410 m 490 320 q 486 300 487 302 q 480 294 486 298 q 466 291 471 290 q 460 294 461 292 q 449 309 449 305 q 450 323 446 316 q 457 332 454 331 q 483 328 480 334 q 490 320 486 323 m 174 307 q 171 296 170 297 q 172 292 172 294 q 166 287 170 288 q 156 283 163 286 q 133 292 138 281 q 132 299 132 294 q 127 307 132 304 q 141 321 138 312 q 157 321 155 324 q 167 320 160 317 q 170 312 168 315 q 174 307 171 309 m 590 218 q 591 199 593 202 q 591 190 589 197 q 562 184 579 180 q 553 200 555 189 q 553 218 551 212 q 574 224 567 224 q 590 218 582 224 m 130 152 q 132 159 130 159 q 133 167 133 160 q 144 172 138 170 q 155 179 151 175 q 171 170 167 174 q 174 151 176 153 q 171 142 171 149 q 160 134 160 136 q 159 133 160 133 q 142 138 148 130 q 130 152 136 145 m 663 80 q 663 91 665 87 q 659 99 662 95 q 662 107 661 103 q 665 117 663 111 q 682 120 677 119 q 694 114 688 121 q 701 101 701 104 q 704 95 700 98 q 694 79 701 85 q 678 73 688 72 q 672 77 674 75 q 663 80 670 79 m 784 20 q 796 9 792 14 q 803 -4 804 -1 q 803 -12 802 -7 q 778 -22 787 -24 q 764 -15 769 -19 q 761 3 764 -1 q 769 20 764 9 q 782 18 781 16 q 784 20 783 20 m 168 34 q 169 26 171 28 q 167 19 167 24 q 171 3 172 5 q 172 -1 170 1 q 166 -7 168 -4 q 161 -12 164 -9 q 153 -9 156 -12 q 144 -9 151 -7 q 138 -4 141 -7 q 132 1 136 -1 q 138 26 136 23 q 151 33 140 28 q 158 35 153 34 q 168 34 163 37 z "},"L":{"ha":825,"x_min":126,"x_max":791,"o":"m 163 1016 q 169 1006 168 1009 q 172 1001 170 1002 q 174 991 174 994 q 172 982 175 987 q 161 971 164 971 q 146 972 152 968 q 134 978 140 975 q 131 996 129 993 q 136 1002 133 998 q 154 1015 149 1016 q 163 1016 159 1015 m 171 845 q 160 834 160 836 q 157 831 160 833 q 141 829 144 827 q 130 842 130 841 q 130 846 129 842 q 134 871 127 864 q 151 876 140 878 q 161 870 157 875 q 168 861 164 865 q 168 852 167 856 q 171 845 170 849 m 178 712 q 159 685 168 693 q 134 688 148 685 q 127 713 129 704 q 134 718 133 713 q 138 726 134 723 q 155 727 146 730 q 167 720 163 726 q 178 712 171 715 m 159 545 q 144 548 151 545 q 133 553 138 551 q 127 575 126 563 q 144 586 136 583 q 160 586 153 589 q 167 574 165 575 q 168 571 168 572 q 165 555 168 559 q 159 545 161 551 m 170 441 q 174 431 172 437 q 175 420 176 426 q 172 413 175 416 q 168 406 168 410 q 144 400 160 403 q 132 437 127 414 q 147 447 144 448 q 152 450 151 446 l 170 441 m 175 292 q 174 281 175 285 q 172 269 174 277 q 155 258 161 258 q 146 259 149 258 q 132 273 133 269 q 127 278 132 277 q 130 289 126 285 q 134 300 133 293 q 156 305 153 302 q 171 295 170 298 q 175 292 172 292 m 174 130 q 160 117 165 119 q 142 116 152 111 q 130 127 133 121 q 132 145 132 142 q 136 148 133 148 q 151 159 148 157 q 159 160 153 160 q 169 147 167 155 q 174 130 171 140 m 305 34 q 313 22 309 27 q 315 5 317 16 q 303 -6 305 -4 q 298 -8 301 -8 q 277 5 285 -11 q 281 31 269 20 q 297 34 294 34 l 305 34 m 442 34 q 446 18 445 23 q 444 1 446 12 q 430 -7 433 -8 q 427 -9 427 -7 q 418 -7 423 -8 q 410 -5 414 -7 q 403 14 403 8 q 403 22 403 19 q 419 33 410 28 q 442 34 429 38 m 555 35 q 565 20 563 22 q 567 15 567 18 q 566 7 568 11 q 564 -3 564 3 q 555 -8 557 -5 q 541 -8 552 -11 q 534 -5 538 -8 q 528 1 529 -1 q 530 22 526 19 q 536 33 534 26 q 545 32 543 31 q 555 35 548 33 m 663 -9 q 636 5 644 -8 q 642 26 639 19 q 652 33 650 34 q 658 34 655 33 q 669 31 665 37 q 678 18 674 24 q 678 4 680 5 q 678 0 677 3 q 671 -4 673 -1 q 663 -9 669 -7 m 791 9 q 786 0 788 1 q 783 -4 784 -1 q 772 -14 774 -14 q 768 -14 769 -14 q 755 -11 758 -11 q 753 -9 753 -11 q 745 4 747 0 q 743 12 743 8 q 754 30 746 22 q 773 29 769 33 q 783 26 777 26 q 786 17 784 20 q 791 9 788 14 m 167 18 q 168 5 167 9 q 168 -9 168 0 q 157 -16 161 -12 q 144 -19 152 -20 q 135 -14 140 -18 q 129 -4 130 -9 q 127 4 127 1 q 130 12 127 7 q 136 20 133 16 q 142 27 140 23 q 167 18 159 23 z "}}}
